<?xml version="1.0" encoding="us-ascii" standalone="no"?><svg xmlns="http://www.w3.org/2000/svg" xmlns:xlink="http://www.w3.org/1999/xlink" contentStyleType="text/css" height="427px" preserveAspectRatio="none" style="width:805px;height:427px;background:#FFFFFF;" version="1.1" viewBox="0 0 805 427" width="805px" zoomAndPan="magnify"><defs/><g><line style="stroke:#181818;stroke-width:0.5;stroke-dasharray:5.0,5.0;" x1="45" x2="45" y1="82.6094" y2="345.4219"/><line style="stroke:#181818;stroke-width:0.5;stroke-dasharray:5.0,5.0;" x1="313.5" x2="313.5" y1="82.6094" y2="345.4219"/><line style="stroke:#181818;stroke-width:0.5;stroke-dasharray:5.0,5.0;" x1="455" x2="455" y1="82.6094" y2="345.4219"/><line style="stroke:#181818;stroke-width:0.5;stroke-dasharray:5.0,5.0;" x1="620" x2="620" y1="82.6094" y2="345.4219"/><line style="stroke:#181818;stroke-width:0.5;stroke-dasharray:5.0,5.0;" x1="738" x2="738" y1="82.6094" y2="345.4219"/><text fill="#000000" font-family="sans-serif" font-size="14" lengthAdjust="spacing" textLength="75" x="5" y="79.5332">&#1050;&#1086;&#1088;&#1080;&#1089;&#1090;&#1091;&#1074;&#1072;&#1095;</text><ellipse cx="45.5" cy="13.5" fill="#E2E2F0" rx="8" ry="8" style="stroke:#181818;stroke-width:0.5;"/><path d="M45.5,21.5 L45.5,48.5 M32.5,29.5 L58.5,29.5 M45.5,48.5 L32.5,63.5 M45.5,48.5 L58.5,63.5 " fill="none" style="stroke:#181818;stroke-width:0.5;"/><text fill="#000000" font-family="sans-serif" font-size="14" lengthAdjust="spacing" textLength="75" x="5" y="358.9551">&#1050;&#1086;&#1088;&#1080;&#1089;&#1090;&#1091;&#1074;&#1072;&#1095;</text><ellipse cx="45.5" cy="370.5313" fill="#E2E2F0" rx="8" ry="8" style="stroke:#181818;stroke-width:0.5;"/><path d="M45.5,378.5313 L45.5,405.5313 M32.5,386.5313 L58.5,386.5313 M45.5,405.5313 L32.5,420.5313 M45.5,405.5313 L58.5,420.5313 " fill="none" style="stroke:#181818;stroke-width:0.5;"/><rect fill="#E2E2F0" height="31.6094" rx="2.5" ry="2.5" style="stroke:#181818;stroke-width:0.5;" width="136" x="245.5" y="50"/><text fill="#000000" font-family="sans-serif" font-size="14" lengthAdjust="spacing" textLength="122" x="252.5" y="71.5332">sprotyv-map (&#1089;&#1072;&#1081;&#1090;)</text><rect fill="#E2E2F0" height="31.6094" rx="2.5" ry="2.5" style="stroke:#181818;stroke-width:0.5;" width="136" x="245.5" y="344.4219"/><text fill="#000000" font-family="sans-serif" font-size="14" lengthAdjust="spacing" textLength="122" x="252.5" y="365.9551">sprotyv-map (&#1089;&#1072;&#1081;&#1090;)</text><rect fill="#E2E2F0" height="31.6094" rx="2.5" ry="2.5" style="stroke:#181818;stroke-width:0.5;" width="111" x="400" y="50"/><text fill="#000000" font-family="sans-serif" font-size="14" lengthAdjust="spacing" textLength="97" x="407" y="71.5332">sprotyvmap-api</text><rect fill="#E2E2F0" height="31.6094" rx="2.5" ry="2.5" style="stroke:#181818;stroke-width:0.5;" width="111" x="400" y="344.4219"/><text fill="#000000" font-family="sans-serif" font-size="14" lengthAdjust="spacing" textLength="97" x="407" y="365.9551">sprotyvmap-api</text><rect fill="#E2E2F0" height="31.6094" rx="2.5" ry="2.5" style="stroke:#181818;stroke-width:0.5;" width="95" x="573" y="50"/><text fill="#000000" font-family="sans-serif" font-size="14" lengthAdjust="spacing" textLength="81" x="580" y="71.5332">sprotyv.in.ua</text><rect fill="#E2E2F0" height="31.6094" rx="2.5" ry="2.5" style="stroke:#181818;stroke-width:0.5;" width="95" x="573" y="344.4219"/><text fill="#000000" font-family="sans-serif" font-size="14" lengthAdjust="spacing" textLength="81" x="580" y="365.9551">sprotyv.in.ua</text><rect fill="#E2E2F0" height="31.6094" rx="2.5" ry="2.5" style="stroke:#181818;stroke-width:0.5;" width="121" x="678" y="50"/><text fill="#000000" font-family="sans-serif" font-size="14" lengthAdjust="spacing" textLength="107" x="685" y="71.5332">Visicom Data API</text><rect fill="#E2E2F0" height="31.6094" rx="2.5" ry="2.5" style="stroke:#181818;stroke-width:0.5;" width="121" x="678" y="344.4219"/><text fill="#000000" font-family="sans-serif" font-size="14" lengthAdjust="spacing" textLength="107" x="685" y="365.9551">Visicom Data API</text><polygon fill="#181818" points="301.5,110.9609,311.5,114.9609,301.5,118.9609,305.5,114.9609" style="stroke:#181818;stroke-width:1.0;"/><line style="stroke:#181818;stroke-width:1.0;" x1="45.5" x2="307.5" y1="114.9609" y2="114.9609"/><text fill="#000000" font-family="sans-serif" font-size="13" lengthAdjust="spacing" textLength="104" x="52.5" y="110.1045">&#1047;&#1072;&#1093;&#1086;&#1076;&#1080;&#1090;&#1100; &#1085;&#1072; &#1089;&#1072;&#1081;&#1090;</text><polygon fill="#181818" points="443.5,141.3125,453.5,145.3125,443.5,149.3125,447.5,145.3125" style="stroke:#181818;stroke-width:1.0;"/><line style="stroke:#181818;stroke-width:1.0;" x1="313.5" x2="449.5" y1="145.3125" y2="145.3125"/><text fill="#000000" font-family="sans-serif" font-size="13" lengthAdjust="spacing" textLength="101" x="320.5" y="140.4561">&#1047;&#1072;&#1087;&#1080;&#1090; &#1058;&#1062;&#1050; &#1090;&#1072; &#1057;&#1055;</text><polygon fill="#181818" points="608.5,171.6641,618.5,175.6641,608.5,179.6641,612.5,175.6641" style="stroke:#181818;stroke-width:1.0;"/><line style="stroke:#181818;stroke-width:1.0;" x1="455.5" x2="614.5" y1="175.6641" y2="175.6641"/><text fill="#000000" font-family="sans-serif" font-size="13" lengthAdjust="spacing" textLength="141" x="462.5" y="170.8076">&#1047;&#1072;&#1087;&#1080;&#1090; &#1072;&#1076;&#1088;&#1077;&#1089; &#1058;&#1062;&#1050; &#1090;&#1072; &#1057;&#1055;</text><polygon fill="#181818" points="466.5,202.0156,456.5,206.0156,466.5,210.0156,462.5,206.0156" style="stroke:#181818;stroke-width:1.0;"/><line style="stroke:#181818;stroke-width:1.0;stroke-dasharray:2.0,2.0;" x1="460.5" x2="619.5" y1="206.0156" y2="206.0156"/><text fill="#000000" font-family="sans-serif" font-size="13" lengthAdjust="spacing" textLength="112" x="472.5" y="201.1592">&#1040;&#1076;&#1088;&#1077;&#1089;&#1080; &#1058;&#1062;&#1050; &#1090;&#1072; &#1057;&#1055;</text><polygon fill="#181818" points="726.5,232.3672,736.5,236.3672,726.5,240.3672,730.5,236.3672" style="stroke:#181818;stroke-width:1.0;"/><line style="stroke:#181818;stroke-width:1.0;" x1="455.5" x2="732.5" y1="236.3672" y2="236.3672"/><text fill="#000000" font-family="sans-serif" font-size="13" lengthAdjust="spacing" textLength="99" x="462.5" y="231.5107">&#1047;&#1072;&#1087;&#1080;&#1090; &#1082;&#1086;&#1086;&#1088;&#1076;&#1080;&#1085;&#1072;&#1090;</text><polygon fill="#181818" points="466.5,262.7188,456.5,266.7188,466.5,270.7188,462.5,266.7188" style="stroke:#181818;stroke-width:1.0;"/><line style="stroke:#181818;stroke-width:1.0;stroke-dasharray:2.0,2.0;" x1="460.5" x2="737.5" y1="266.7188" y2="266.7188"/><text fill="#000000" font-family="sans-serif" font-size="13" lengthAdjust="spacing" textLength="180" x="472.5" y="261.8623">&#1050;&#1086;&#1086;&#1088;&#1076;&#1080;&#1085;&#1072;&#1090;&#1080; (&#1076;&#1086;&#1074;&#1075;&#1086;&#1090;&#1072;, &#1096;&#1080;&#1088;&#1086;&#1090;&#1072;)</text><polygon fill="#181818" points="324.5,293.0703,314.5,297.0703,324.5,301.0703,320.5,297.0703" style="stroke:#181818;stroke-width:1.0;"/><line style="stroke:#181818;stroke-width:1.0;stroke-dasharray:2.0,2.0;" x1="318.5" x2="454.5" y1="297.0703" y2="297.0703"/><text fill="#000000" font-family="sans-serif" font-size="13" lengthAdjust="spacing" textLength="118" x="330.5" y="292.2139">&#1044;&#1072;&#1085;&#1110; &#1087;&#1088;&#1086; &#1058;&#1062;&#1050; &#1090;&#1072; &#1057;&#1055;</text><polygon fill="#181818" points="56.5,323.4219,46.5,327.4219,56.5,331.4219,52.5,327.4219" style="stroke:#181818;stroke-width:1.0;"/><line style="stroke:#181818;stroke-width:1.0;stroke-dasharray:2.0,2.0;" x1="50.5" x2="312.5" y1="327.4219" y2="327.4219"/><text fill="#000000" font-family="sans-serif" font-size="13" lengthAdjust="spacing" textLength="244" x="62.5" y="322.5654">&#1054;&#1090;&#1088;&#1080;&#1084;&#1091;&#1108; &#1084;&#1072;&#1087;&#1091; &#1058;&#1062;&#1050; &#1090;&#1072; &#1057;&#1055; &#1087;&#1086; &#1074;&#1089;&#1110;&#1081; &#1059;&#1082;&#1088;&#1072;&#1111;&#1085;&#1110;</text><!--SRC=[TPAzJW9158NxUOeRAabS7i32nCJ6pif-0XHJ09lTXSGEbXWjB2m891GQDR7U82P0-7c5Sz_8CxiG5R2QJEQxvvnxxzXgqegaX37MsiLCUvfg7nDaUbyI6qixhaScj57YgYwqpKHASHYrajjEqB2Xd6WF6UQQbdCuRXn5IGOsT3d2yoXJSSrAs-O8d-DwxIzrus9NRJNaqYPMBgwlSh3ZQbxE-8mIdDDUpWGZPh_36bDsa-gZO8LCTZcD8KIKTLiM6yy9tl21iMXA6AzuCPuWM8JPOpDCEQmlxHsMRVdWn-Df1sFshqlHoPxBWatufR0HtmF3Rx5VukDzXYOdlAsvma- -qEXKz862tU9MDZk5Obe3-grqADXuuZ1WFY_I-Op9FtEc_2TOQby7WgMFg_s3EkfvjGd_qn1pmJiMBCjqvCtCDm00]--></g></svg>