<?xml version="1.0" encoding="us-ascii" standalone="no"?><svg xmlns="http://www.w3.org/2000/svg" xmlns:xlink="http://www.w3.org/1999/xlink" contentStyleType="text/css" height="211px" preserveAspectRatio="none" style="width:1132px;height:211px;background:#FFFFFF;" version="1.1" viewBox="0 0 1132 211" width="1132px" zoomAndPan="magnify"><defs/><g><!--cluster GitHub--><g id="cluster_GitHub"><rect fill="none" height="198" rx="2.5" ry="2.5" style="stroke:#181818;stroke-width:1.0;" width="509" x="352" y="7"/><text fill="#000000" font-family="sans-serif" font-size="14" font-weight="bold" lengthAdjust="spacing" textLength="48" x="582.5" y="23.5332">GitHub</text></g><!--entity deployAzure--><g id="elem_deployAzure"><polygon fill="#F1F1F1" points="368.5,43.5,599.5,43.5,609.5,71.1094,599.5,98.7188,368.5,98.7188,378.5,71.1094" style="stroke:#181818;stroke-width:0.5;"/><text fill="#000000" font-family="sans-serif" font-size="14" font-style="italic" lengthAdjust="spacing" textLength="103" x="437.5" y="68.0332">&#171;GitHub Action&#187;</text><text fill="#000000" font-family="sans-serif" font-size="14" lengthAdjust="spacing" textLength="201" x="388.5" y="85.6426">Deploy sprotyvmap-api to Azure</text></g><!--entity deployFirebase--><g id="elem_deployFirebase"><polygon fill="#F1F1F1" points="368,133.5,600,133.5,610,161.1094,600,188.7188,368,188.7188,378,161.1094" style="stroke:#181818;stroke-width:0.5;"/><text fill="#000000" font-family="sans-serif" font-size="14" font-style="italic" lengthAdjust="spacing" textLength="103" x="437.5" y="158.0332">&#171;GitHub Action&#187;</text><text fill="#000000" font-family="sans-serif" font-size="14" lengthAdjust="spacing" textLength="202" x="388" y="175.6426">Deploy sprotyv-map to Firebase</text></g><!--entity builtApi--><g id="elem_builtApi"><rect fill="#F1F1F1" height="40.6094" rx="2.5" ry="2.5" style="stroke:#181818;stroke-width:0.5;" width="174" x="671" y="50.5"/><polygon fill="#F1F1F1" points="828,55.5,828,69.5,840,69.5,840,61.5,834,55.5,828,55.5" style="stroke:#181818;stroke-width:0.5;"/><line style="stroke:#181818;stroke-width:0.5;" x1="834" x2="834" y1="55.5" y2="61.5"/><line style="stroke:#181818;stroke-width:0.5;" x1="840" x2="834" y1="61.5" y2="61.5"/><text fill="#000000" font-family="sans-serif" font-size="14" lengthAdjust="spacing" textLength="144" x="681" y="78.0332">sprotyvmap-api artifact</text></g><!--entity builtApp--><g id="elem_builtApp"><rect fill="#F1F1F1" height="40.6094" rx="2.5" ry="2.5" style="stroke:#181818;stroke-width:0.5;" width="155" x="680.5" y="140.5"/><polygon fill="#F1F1F1" points="818.5,145.5,818.5,159.5,830.5,159.5,830.5,151.5,824.5,145.5,818.5,145.5" style="stroke:#181818;stroke-width:0.5;"/><line style="stroke:#181818;stroke-width:0.5;" x1="824.5" x2="824.5" y1="145.5" y2="151.5"/><line style="stroke:#181818;stroke-width:0.5;" x1="830.5" x2="824.5" y1="151.5" y2="151.5"/><text fill="#000000" font-family="sans-serif" font-size="14" lengthAdjust="spacing" textLength="125" x="690.5" y="168.0332">sprotyv-map artifact</text></g><!--entity Developer--><g id="elem_Developer"><ellipse cx="38.5" cy="85.5" fill="#F1F1F1" rx="8" ry="8" style="stroke:#181818;stroke-width:0.5;"/><path d="M38.5,93.5 L38.5,120.5 M25.5,101.5 L51.5,101.5 M38.5,120.5 L25.5,135.5 M38.5,120.5 L51.5,135.5 " fill="none" style="stroke:#181818;stroke-width:0.5;"/><text fill="#000000" font-family="sans-serif" font-size="14" lengthAdjust="spacing" textLength="65" x="6" y="151.5332">Developer</text></g><!--entity FirebaseHost--><g id="elem_FirebaseHost"><path d="M987.611,145.5133 C991.4763,139.4711 995.4565,137.9585 1000.7436,143.9634 C1005.342,139.1998 1009.5161,139.1761 1013.1597,145.0752 C1015.3415,138.4638 1020.894,138.5035 1024.9716,143.0723 C1027.9256,137.0923 1034.0092,137.1126 1037.429,142.5647 C1040.0468,135.8202 1045.2272,135.2951 1049.8083,140.5371 C1053.2488,136.1961 1058.8332,135.4335 1061.3274,141.5769 C1065.3938,135.5387 1070.7577,135.3044 1074.2677,142.1363 C1078.0535,137.579 1083.9897,138.5711 1086.3674,143.8657 C1090.7327,138.5239 1095.4937,139.2907 1098.4805,145.3325 C1102.7067,140.3496 1105.9082,141.4299 1109.3559,146.2005 C1118.108,148.0265 1120,154.2678 1114.4878,161.0301 C1121.9276,168.5901 1118.6759,173.2538 1110.5626,176.9881 C1107.5335,185.0151 1101.9283,185.1882 1096.5299,179.3936 C1093.1251,184.3045 1088.4575,184.4047 1085.8834,178.5704 C1083.0508,184.8839 1078.2916,185.3877 1074.3874,179.5873 C1071.2403,186.3987 1064.9118,184.9048 1061.6338,179.7265 C1058.7363,186.1099 1052.7777,185.5615 1049.2708,180.3778 C1045.9959,187.0654 1041.1064,185.8276 1037.3597,180.8598 C1032.0903,187.0407 1027.1888,185.7654 1023.9431,178.7953 C1019.9105,184.7019 1015.7475,184.6251 1012.303,178.2385 C1008.8052,184.6107 1003.6736,184.8411 999.7096,178.708 C995.8755,182.9477 992.3566,183.7301 989.1685,178.0233 C978.2949,177.0687 974.8697,171.5358 978.64,161.3398 C972.5435,152.1815 977.4633,145.4637 987.611,145.5133 " fill="#F1F1F1" style="stroke:#181818;stroke-width:0.5;"/><text fill="#000000" font-family="sans-serif" font-size="14" lengthAdjust="spacing" textLength="107" x="994.5" y="166.5332">Firebase Hosting</text></g><!--entity AzureHost--><g id="elem_AzureHost"><path d="M983.3321,55.2562 C986.6995,49.1207 993.5962,49.2966 997.1602,55.0271 C1000.5117,48.7068 1005.4685,49.2591 1009.411,54.3951 C1013.8798,47.9649 1018.4304,47.605 1023.2474,54.02 C1025.9101,46.5003 1030.8729,45.0003 1036.7398,50.7659 C1041.47,45.3289 1046.0152,45.3914 1049.746,51.8577 C1053.6722,46.2494 1057.5629,45.036 1061.9752,51.3595 C1066.4979,44.8129 1071.6458,46.013 1074.8816,52.6221 C1079.698,47.3027 1084.3814,46.0615 1088.5684,53.3077 C1093.6133,46.9604 1097.7836,48.9117 1101.2899,54.8951 C1105.1677,49.161 1110.906,50.3829 1113.9614,55.8274 C1122.6529,59.0852 1123.4111,64.2817 1117.7353,71.0916 C1125.7788,78.3145 1122.9784,86.0967 1113.2144,88.7642 C1109.3464,94.8223 1103.3018,94.1527 1100.5642,87.6277 C1096.7833,94.4299 1092.4559,95.553 1087.1885,89.1312 C1085.0979,95.5238 1079.0672,95.4509 1075.2856,90.9847 C1070.5245,97.9305 1066.114,96.7259 1061.8167,90.51 C1058.5912,96.2018 1054.9036,97.2738 1050.0823,92.2589 C1045.015,97.486 1038.7854,97.3293 1035.9325,89.8023 C1032.9606,95.9861 1026.8628,96.6773 1023.3522,90.3439 C1018.3326,95.5181 1014.1102,95.871 1010.1205,89.194 C1005.2449,94.3925 1000.8671,93.5568 997.3949,87.594 C993.8867,92.8509 988.0442,93.9504 984.8902,87.2244 C973.8516,87.1843 970.551,82.1353 975.4124,72.1188 C970.6626,64.1757 973.2988,56.2562 983.3321,55.2562 " fill="#F1F1F1" style="stroke:#181818;stroke-width:0.5;"/><text fill="#000000" font-family="sans-serif" font-size="14" lengthAdjust="spacing" textLength="116" x="990" y="76.5332">Azure App Service</text></g><!--link Developer to deployFirebase--><g id="link_Developer_deployFirebase"><path d="M71.14,130.56 C80.56,134.28 91.03,137.84 101,140 C188.96,159.04 284.6501,163.8851 361.7101,164.2051 " fill="none" id="Developer-to-deployFirebase" style="stroke:#181818;stroke-width:1.0;"/><polygon fill="#181818" points="367.71,164.23,358.7267,160.1927,362.71,164.2092,358.6935,168.1926,367.71,164.23" style="stroke:#181818;stroke-width:1.0;"/><text fill="#000000" font-family="sans-serif" font-size="13" lengthAdjust="spacing" textLength="216" x="110.5" y="136.4951">pushes sprotyv-map into main branch</text></g><!--link Developer to deployAzure--><g id="link_Developer_deployAzure"><path d="M71.04,112.84 C131.85,106.73 262.21,93.6594 362.5,83.5894 " fill="none" id="Developer-to-deployAzure" style="stroke:#181818;stroke-width:1.0;"/><polygon fill="#181818" points="368.47,82.99,359.1154,79.9092,363.495,83.4895,359.9147,87.8691,368.47,82.99" style="stroke:#181818;stroke-width:1.0;"/><text fill="#000000" font-family="sans-serif" font-size="13" lengthAdjust="spacing" textLength="233" x="102" y="83.4951">pushes sprotyvmap-api into main branch</text></g><!--link deployAzure to builtApi--><g id="link_deployAzure_builtApi"><path d="M609.83,71 C630.35,71 651.3,71 670.72,71 " fill="none" id="deployAzure-builtApi" style="stroke:#181818;stroke-width:1.0;"/></g><!--link deployFirebase to builtApp--><g id="link_deployFirebase_builtApp"><path d="M610.22,161 C634.03,161 658.41,161 680.28,161 " fill="none" id="deployFirebase-builtApp" style="stroke:#181818;stroke-width:1.0;"/></g><!--link builtApi to AzureHost--><g id="link_builtApi_AzureHost"><path d="M845.02,71 C886.29,71 929.19,71 968.54,71 " fill="none" id="builtApi-to-AzureHost" style="stroke:#181818;stroke-width:1.0;"/><polygon fill="#181818" points="974.54,71,965.54,67,969.54,71,965.54,75,974.54,71" style="stroke:#181818;stroke-width:1.0;"/><text fill="#000000" font-family="sans-serif" font-size="13" lengthAdjust="spacing" textLength="66" x="878" y="67.4951">is deployed</text></g><!--link builtApp to FirebaseHost--><g id="link_builtApp_FirebaseHost"><path d="M835.8,161 C880.46,161 930.23,161 973.25,161 " fill="none" id="builtApp-to-FirebaseHost" style="stroke:#181818;stroke-width:1.0;"/><polygon fill="#181818" points="979.25,161,970.25,157,974.25,161,970.25,165,979.25,161" style="stroke:#181818;stroke-width:1.0;"/><text fill="#000000" font-family="sans-serif" font-size="13" lengthAdjust="spacing" textLength="66" x="878" y="157.4951">is deployed</text></g><!--SRC=[VP9DJiCm48NtFiLJDbtb0WXLgbH15-muWUDCcn6fRTbEe23kZZF5_GajMSwyzysyYHU8Rsoz3dgF5xQK3fxWGkgSwccRa1m2xxg4bWEPnCugfKro0MiQgNUUWbh0z6veOLt2kmkPjuEEe0-V7TI2BSO8urfI4qFRNKzuvhGPcY-5_FdW3CM8Qas-TmV4N4Y7SQzzhJrFEwm-Xq0L7Xz_VLZ9BbWkfqcjs4Jp7w_Em0dsbACqEjxXdO559qmT4czpSbIpxKgZcepDm7rQURvjaGLkwRqIm-cagElbR0aym0-netYLXctEizVvmatGrdHtCNASFuoIOOw1S2wTTNsTRRRSkUtLjpe-X-hKtRYOygEGnAKurOhmE29xyKfXP4EYbAh8ocJ9SohdD5n-5RL5v4LqEULQzmC0]--></g></svg>