<?xml version="1.0" encoding="us-ascii" standalone="no"?><svg xmlns="http://www.w3.org/2000/svg" xmlns:xlink="http://www.w3.org/1999/xlink" contentStyleType="text/css" height="1383px" preserveAspectRatio="none" style="width:3307px;height:1383px;background:#FFFFFF;" version="1.1" viewBox="0 0 3307 1383" width="3307px" zoomAndPan="magnify"><defs/><g><!--cluster sprotyvmap--><g id="cluster_sprotyvmap"><path d="M8.5,438 L91.5,438 A3.75,3.75 0 0 1 94,440.5 L101,461.6094 L2560.5,461.6094 A2.5,2.5 0 0 1 2563,464.1094 L2563,1374 A2.5,2.5 0 0 1 2560.5,1376.5 L8.5,1376.5 A2.5,2.5 0 0 1 6,1374 L6,440.5 A2.5,2.5 0 0 1 8.5,438 " fill="none" style="stroke:#000000;stroke-width:1.5;"/><line style="stroke:#000000;stroke-width:1.5;" x1="6" x2="101" y1="461.6094" y2="461.6094"/><text fill="#000000" font-family="sans-serif" font-size="14" font-weight="bold" lengthAdjust="spacing" textLength="82" x="10" y="454.5332">sprotyvmap</text></g><!--cluster Shared--><g id="cluster_Shared"><path d="M575.5,482 L626.5,482 A3.75,3.75 0 0 1 629,484.5 L636,505.6094 L1149.5,505.6094 A2.5,2.5 0 0 1 1152,508.1094 L1152,956.5 A2.5,2.5 0 0 1 1149.5,959 L575.5,959 A2.5,2.5 0 0 1 573,956.5 L573,484.5 A2.5,2.5 0 0 1 575.5,482 " fill="none" style="stroke:#000000;stroke-width:1.5;"/><line style="stroke:#000000;stroke-width:1.5;" x1="573" x2="636" y1="505.6094" y2="505.6094"/><text fill="#000000" font-family="sans-serif" font-size="14" font-weight="bold" lengthAdjust="spacing" textLength="50" x="577" y="498.5332">Shared</text></g><!--cluster Abstractions--><g id="cluster_Abstractions"><path d="M678.5,534 L767.5,534 A3.75,3.75 0 0 1 770,536.5 L777,557.6094 L1117.5,557.6094 A2.5,2.5 0 0 1 1120,560.1094 L1120,674.5 A2.5,2.5 0 0 1 1117.5,677 L678.5,677 A2.5,2.5 0 0 1 676,674.5 L676,536.5 A2.5,2.5 0 0 1 678.5,534 " fill="none" style="stroke:#000000;stroke-width:1.5;"/><line style="stroke:#000000;stroke-width:1.5;" x1="676" x2="777" y1="557.6094" y2="557.6094"/><text fill="#000000" font-family="sans-serif" font-size="14" font-weight="bold" lengthAdjust="spacing" textLength="88" x="680" y="550.5332">Abstractions</text></g><!--cluster Primitives--><g id="cluster_Primitives"><path d="M607.5,749 L678.5,749 A3.75,3.75 0 0 1 681,751.5 L688,772.6094 L1117.5,772.6094 A2.5,2.5 0 0 1 1120,775.1094 L1120,924.5 A2.5,2.5 0 0 1 1117.5,927 L607.5,927 A2.5,2.5 0 0 1 605,924.5 L605,751.5 A2.5,2.5 0 0 1 607.5,749 " fill="none" style="stroke:#000000;stroke-width:1.5;"/><line style="stroke:#000000;stroke-width:1.5;" x1="605" x2="688" y1="772.6094" y2="772.6094"/><text fill="#000000" font-family="sans-serif" font-size="14" font-weight="bold" lengthAdjust="spacing" textLength="70" x="609" y="765.5332">Primitives</text></g><!--cluster SprotyvInUaScraper--><g id="cluster_SprotyvInUaScraper"><path d="M1178.5,735 L1319.5,735 A3.75,3.75 0 0 1 1322,737.5 L1329,758.6094 L1381.5,758.6094 A2.5,2.5 0 0 1 1384,761.1094 L1384,1191 A2.5,2.5 0 0 1 1381.5,1193.5 L1178.5,1193.5 A2.5,2.5 0 0 1 1176,1191 L1176,737.5 A2.5,2.5 0 0 1 1178.5,735 " fill="none" style="stroke:#000000;stroke-width:1.5;"/><line style="stroke:#000000;stroke-width:1.5;" x1="1176" x2="1329" y1="758.6094" y2="758.6094"/><text fill="#000000" font-family="sans-serif" font-size="14" font-weight="bold" lengthAdjust="spacing" textLength="140" x="1180" y="751.5332">SprotyvInUaScraper</text></g><!--cluster WebApp--><g id="cluster_WebApp"><path d="M32.5,502.5 L91.5,502.5 A3.75,3.75 0 0 1 94,505 L101,526.1094 L546.5,526.1094 A2.5,2.5 0 0 1 549,528.6094 L549,927 A2.5,2.5 0 0 1 546.5,929.5 L32.5,929.5 A2.5,2.5 0 0 1 30,927 L30,505 A2.5,2.5 0 0 1 32.5,502.5 " fill="none" style="stroke:#000000;stroke-width:1.5;"/><line style="stroke:#000000;stroke-width:1.5;" x1="30" x2="101" y1="526.1094" y2="526.1094"/><text fill="#000000" font-family="sans-serif" font-size="14" font-weight="bold" lengthAdjust="spacing" textLength="58" x="34" y="519.0332">WebApp</text></g><!--cluster Services--><g id="cluster_Services"><path d="M56.5,546.5 L119.5,546.5 A3.75,3.75 0 0 1 122,549 L129,570.1094 L299.5,570.1094 A2.5,2.5 0 0 1 302,572.6094 L302,903 A2.5,2.5 0 0 1 299.5,905.5 L56.5,905.5 A2.5,2.5 0 0 1 54,903 L54,549 A2.5,2.5 0 0 1 56.5,546.5 " fill="none" style="stroke:#000000;stroke-width:1.5;"/><line style="stroke:#000000;stroke-width:1.5;" x1="54" x2="129" y1="570.1094" y2="570.1094"/><text fill="#000000" font-family="sans-serif" font-size="14" font-weight="bold" lengthAdjust="spacing" textLength="62" x="58" y="563.0332">Services</text></g><!--cluster Pages--><g id="cluster_Pages"><path d="M328.5,783 L372.5,783 A3.75,3.75 0 0 1 375,785.5 L382,806.6094 L522.5,806.6094 A2.5,2.5 0 0 1 525,809.1094 L525,890.5 A2.5,2.5 0 0 1 522.5,893 L328.5,893 A2.5,2.5 0 0 1 326,890.5 L326,785.5 A2.5,2.5 0 0 1 328.5,783 " fill="none" style="stroke:#000000;stroke-width:1.5;"/><line style="stroke:#000000;stroke-width:1.5;" x1="326" x2="382" y1="806.6094" y2="806.6094"/><text fill="#000000" font-family="sans-serif" font-size="14" font-weight="bold" lengthAdjust="spacing" textLength="43" x="330" y="799.5332">Pages</text></g><!--cluster WebService--><g id="cluster_WebService"><path d="M1410.5,709 L1496.5,709 A3.75,3.75 0 0 1 1499,711.5 L1506,732.6094 L2536.5,732.6094 A2.5,2.5 0 0 1 2539,735.1094 L2539,1350 A2.5,2.5 0 0 1 2536.5,1352.5 L1410.5,1352.5 A2.5,2.5 0 0 1 1408,1350 L1408,711.5 A2.5,2.5 0 0 1 1410.5,709 " fill="none" style="stroke:#000000;stroke-width:1.5;"/><line style="stroke:#000000;stroke-width:1.5;" x1="1408" x2="1506" y1="732.6094" y2="732.6094"/><text fill="#000000" font-family="sans-serif" font-size="14" font-weight="bold" lengthAdjust="spacing" textLength="85" x="1412" y="725.5332">WebService</text></g><!--cluster Workers--><g id="cluster_Workers"><path d="M2001.5,983 L2061.5,983 A3.75,3.75 0 0 1 2064,985.5 L2071,1006.6094 L2198.5,1006.6094 A2.5,2.5 0 0 1 2201,1009.1094 L2201,1326 A2.5,2.5 0 0 1 2198.5,1328.5 L2001.5,1328.5 A2.5,2.5 0 0 1 1999,1326 L1999,985.5 A2.5,2.5 0 0 1 2001.5,983 " fill="none" style="stroke:#000000;stroke-width:1.5;"/><line style="stroke:#000000;stroke-width:1.5;" x1="1999" x2="2071" y1="1006.6094" y2="1006.6094"/><text fill="#000000" font-family="sans-serif" font-size="14" font-weight="bold" lengthAdjust="spacing" textLength="59" x="2003" y="999.5332">Workers</text></g><!--cluster Controllers--><g id="cluster_Controllers"><path d="M2227.5,1009.5 L2307.5,1009.5 A3.75,3.75 0 0 1 2310,1012 L2317,1033.1094 L2512.5,1033.1094 A2.5,2.5 0 0 1 2515,1035.6094 L2515,1160 A2.5,2.5 0 0 1 2512.5,1162.5 L2227.5,1162.5 A2.5,2.5 0 0 1 2225,1160 L2225,1012 A2.5,2.5 0 0 1 2227.5,1009.5 " fill="none" style="stroke:#000000;stroke-width:1.5;"/><line style="stroke:#000000;stroke-width:1.5;" x1="2225" x2="2317" y1="1033.1094" y2="1033.1094"/><text fill="#000000" font-family="sans-serif" font-size="14" font-weight="bold" lengthAdjust="spacing" textLength="79" x="2229" y="1026.0332">Controllers</text></g><!--cluster Providers--><g id="cluster_Providers"><path d="M2147.5,753 L2217.5,753 A3.75,3.75 0 0 1 2220,755.5 L2227,776.6094 L2366.5,776.6094 A2.5,2.5 0 0 1 2369,779.1094 L2369,920.5 A2.5,2.5 0 0 1 2366.5,923 L2147.5,923 A2.5,2.5 0 0 1 2145,920.5 L2145,755.5 A2.5,2.5 0 0 1 2147.5,753 " fill="none" style="stroke:#000000;stroke-width:1.5;"/><line style="stroke:#000000;stroke-width:1.5;" x1="2145" x2="2227" y1="776.6094" y2="776.6094"/><text fill="#000000" font-family="sans-serif" font-size="14" font-weight="bold" lengthAdjust="spacing" textLength="69" x="2149" y="769.5332">Providers</text></g><!--cluster Services--><g id="cluster_Services"><path d="M1434.5,770.5 L1497.5,770.5 A3.75,3.75 0 0 1 1500,773 L1507,794.1094 L1972.5,794.1094 A2.5,2.5 0 0 1 1975,796.6094 L1975,1177.5 A2.5,2.5 0 0 1 1972.5,1180 L1434.5,1180 A2.5,2.5 0 0 1 1432,1177.5 L1432,773 A2.5,2.5 0 0 1 1434.5,770.5 " fill="none" style="stroke:#000000;stroke-width:1.5;"/><line style="stroke:#000000;stroke-width:1.5;" x1="1432" x2="1507" y1="794.1094" y2="794.1094"/><text fill="#000000" font-family="sans-serif" font-size="14" font-weight="bold" lengthAdjust="spacing" textLength="62" x="1436" y="787.0332">Services</text></g><!--cluster Visicom.DataApi.Geocoder--><g id="cluster_Visicom.DataApi.Geocoder"><path d="M2589.5,6 L2775.5,6 A3.75,3.75 0 0 1 2778,8.5 L2785,29.6094 L3297.5,29.6094 A2.5,2.5 0 0 1 3300,32.1094 L3300,1344.5 A2.5,2.5 0 0 1 3297.5,1347 L2589.5,1347 A2.5,2.5 0 0 1 2587,1344.5 L2587,8.5 A2.5,2.5 0 0 1 2589.5,6 " fill="none" style="stroke:#000000;stroke-width:1.5;"/><line style="stroke:#000000;stroke-width:1.5;" x1="2587" x2="2785" y1="29.6094" y2="29.6094"/><text fill="#000000" font-family="sans-serif" font-size="14" font-weight="bold" lengthAdjust="spacing" textLength="185" x="2591" y="22.5332">Visicom.DataApi.Geocoder</text></g><!--cluster Visicom.DataApi.Abstractions--><g id="cluster_Visicom.DataApi.Abstractions"><path d="M2613.5,50 L2817.5,50 A3.75,3.75 0 0 1 2820,52.5 L2827,73.6094 L2975.5,73.6094 A2.5,2.5 0 0 1 2978,76.1094 L2978,411.5 A2.5,2.5 0 0 1 2975.5,414 L2613.5,414 A2.5,2.5 0 0 1 2611,411.5 L2611,52.5 A2.5,2.5 0 0 1 2613.5,50 " fill="none" style="stroke:#000000;stroke-width:1.5;"/><line style="stroke:#000000;stroke-width:1.5;" x1="2611" x2="2827" y1="73.6094" y2="73.6094"/><text fill="#000000" font-family="sans-serif" font-size="14" font-weight="bold" lengthAdjust="spacing" textLength="203" x="2615" y="66.5332">Visicom.DataApi.Abstractions</text></g><!--cluster Data--><g id="cluster_Data"><path d="M2621.5,788 L2653.5,788 A3.75,3.75 0 0 1 2656,790.5 L2663,811.6094 L2918.5,811.6094 A2.5,2.5 0 0 1 2921,814.1094 L2921,1312.5 A2.5,2.5 0 0 1 2918.5,1315 L2621.5,1315 A2.5,2.5 0 0 1 2619,1312.5 L2619,790.5 A2.5,2.5 0 0 1 2621.5,788 " fill="none" style="stroke:#000000;stroke-width:1.5;"/><line style="stroke:#000000;stroke-width:1.5;" x1="2619" x2="2663" y1="811.6094" y2="811.6094"/><text fill="#000000" font-family="sans-serif" font-size="14" font-weight="bold" lengthAdjust="spacing" textLength="31" x="2623" y="804.5332">Data</text></g><!--cluster Enums--><g id="cluster_Enums"><path d="M2963.5,757.5 L3011.5,757.5 A3.75,3.75 0 0 1 3014,760 L3021,781.1094 L3265.5,781.1094 A2.5,2.5 0 0 1 3268,783.6094 L3268,1155 A2.5,2.5 0 0 1 3265.5,1157.5 L2963.5,1157.5 A2.5,2.5 0 0 1 2961,1155 L2961,760 A2.5,2.5 0 0 1 2963.5,757.5 " fill="none" style="stroke:#000000;stroke-width:1.5;"/><line style="stroke:#000000;stroke-width:1.5;" x1="2961" x2="3021" y1="781.1094" y2="781.1094"/><text fill="#000000" font-family="sans-serif" font-size="14" font-weight="bold" lengthAdjust="spacing" textLength="47" x="2965" y="774.0332">Enums</text></g><!--class IDataProvider--><g id="elem_IDataProvider"><rect codeLine="9" fill="#F1F1F1" height="75.2188" id="IDataProvider" rx="2.5" ry="2.5" style="stroke:#181818;stroke-width:0.5;" width="193" x="719.5" y="578"/><ellipse cx="768.75" cy="594" fill="#B4A7E5" rx="11" ry="11" style="stroke:#181818;stroke-width:1.0;"/><path d="M769.7031,590.6406 L769.7031,597.2969 L771.4219,597.2969 Q772.0313,597.2969 772.2969,597.5313 Q772.5625,597.7656 772.5625,598.1563 Q772.5625,598.5313 772.2969,598.7656 Q772.0313,599 771.4219,599 L766.2813,599 Q765.6719,599 765.4063,598.7656 Q765.1406,598.5313 765.1406,598.1406 Q765.1406,597.7656 765.4063,597.5313 Q765.6719,597.2969 766.2813,597.2969 L768,597.2969 L768,590.6406 L766.2813,590.6406 Q765.6719,590.6406 765.4063,590.4063 Q765.1406,590.1719 765.1406,589.7813 Q765.1406,589.4063 765.4063,589.1719 Q765.6719,588.9375 766.2813,588.9375 L771.4219,588.9375 Q772.0313,588.9375 772.2969,589.1719 Q772.5625,589.4063 772.5625,589.7813 Q772.5625,590.1719 772.2969,590.4063 Q772.0313,590.6406 771.4219,590.6406 L769.7031,590.6406 Z " fill="#000000"/><text fill="#000000" font-family="sans-serif" font-size="14" font-style="italic" lengthAdjust="spacing" textLength="86" x="789.25" y="599.7285">IDataProvider</text><line style="stroke:#181818;stroke-width:0.5;" x1="720.5" x2="911.5" y1="610" y2="610"/><text fill="#000000" font-family="sans-serif" font-size="14" lengthAdjust="spacing" textLength="181" x="725.5" y="628.5332">GetEquipmentCentreAsync()</text><text fill="#000000" font-family="sans-serif" font-size="14" lengthAdjust="spacing" textLength="136" x="725.5" y="646.1426">GetAllDistrictsAsync()</text></g><!--class IMapPointProvider--><g id="elem_IMapPointProvider"><rect codeLine="14" fill="#F1F1F1" height="57.6094" id="IMapPointProvider" rx="2.5" ry="2.5" style="stroke:#181818;stroke-width:0.5;" width="148" x="948" y="586.5"/><ellipse cx="963" cy="602.5" fill="#B4A7E5" rx="11" ry="11" style="stroke:#181818;stroke-width:1.0;"/><path d="M963.9531,599.1406 L963.9531,605.7969 L965.6719,605.7969 Q966.2813,605.7969 966.5469,606.0313 Q966.8125,606.2656 966.8125,606.6563 Q966.8125,607.0313 966.5469,607.2656 Q966.2813,607.5 965.6719,607.5 L960.5313,607.5 Q959.9219,607.5 959.6563,607.2656 Q959.3906,607.0313 959.3906,606.6406 Q959.3906,606.2656 959.6563,606.0313 Q959.9219,605.7969 960.5313,605.7969 L962.25,605.7969 L962.25,599.1406 L960.5313,599.1406 Q959.9219,599.1406 959.6563,598.9063 Q959.3906,598.6719 959.3906,598.2813 Q959.3906,597.9063 959.6563,597.6719 Q959.9219,597.4375 960.5313,597.4375 L965.6719,597.4375 Q966.2813,597.4375 966.5469,597.6719 Q966.8125,597.9063 966.8125,598.2813 Q966.8125,598.6719 966.5469,598.9063 Q966.2813,599.1406 965.6719,599.1406 L963.9531,599.1406 Z " fill="#000000"/><text fill="#000000" font-family="sans-serif" font-size="14" font-style="italic" lengthAdjust="spacing" textLength="116" x="977" y="608.2285">IMapPointProvider</text><line style="stroke:#181818;stroke-width:0.5;" x1="949" x2="1095" y1="618.5" y2="618.5"/><text fill="#000000" font-family="sans-serif" font-size="14" lengthAdjust="spacing" textLength="103" x="954" y="637.0332">GetPointAsync()</text></g><!--class District--><g id="elem_District"><rect codeLine="22" fill="#F1F1F1" height="92.8281" id="District" rx="2.5" ry="2.5" style="stroke:#181818;stroke-width:0.5;" width="143" x="648.5" y="801.5"/><ellipse cx="694.25" cy="817.5" fill="#F1F1F1" rx="11" ry="11" style="stroke:#181818;stroke-width:1.0;"/><path d="M692.3594,822.0625 Q692.1406,822.3281 692,822.4063 Q691.8594,822.4844 691.6719,822.4844 Q691.2813,822.4844 691.0313,822.2188 Q690.7969,821.9531 690.7969,821.3594 L690.7969,820.2031 Q690.7969,819.5938 691.0313,819.3438 Q691.2813,819.0781 691.6719,819.0781 Q691.9688,819.0781 692.1719,819.2344 Q692.375,819.3906 692.4844,819.7656 Q692.5938,820.125 692.7031,820.2656 Q692.9531,820.5156 693.5625,820.7813 Q694.1719,821.0469 694.9063,821.0469 Q696.0469,821.0469 696.7656,820.5156 Q697.2344,820.1875 697.2344,819.7188 Q697.2344,819.4063 697.0156,819.125 Q696.7969,818.8438 696.2813,818.6719 Q695.9531,818.5469 694.7969,818.3281 Q693.4063,818.0625 692.6875,817.7031 Q691.9688,817.3438 691.5469,816.6875 Q691.1406,816.0156 691.1406,815.2344 Q691.1406,814.0156 692.1563,813.1094 Q693.1875,812.1875 694.8281,812.1875 Q695.4844,812.1875 696.0313,812.3281 Q696.5938,812.4688 697.0625,812.7656 Q697.3906,812.4531 697.7188,812.4531 Q698.0938,812.4531 698.3281,812.7188 Q698.5625,812.9688 698.5625,813.5781 L698.5625,814.8594 Q698.5625,815.4688 698.3281,815.7344 Q698.0938,815.9844 697.7188,815.9844 Q697.4063,815.9844 697.1719,815.7969 Q696.9844,815.6563 696.8906,815.2344 Q696.8125,814.8125 696.6719,814.625 Q696.4219,814.3125 695.9375,814.1094 Q695.4688,813.8906 694.8281,813.8906 Q693.9063,813.8906 693.375,814.3125 Q692.8438,814.7344 692.8438,815.2031 Q692.8438,815.5156 693.0625,815.8125 Q693.2813,816.1094 693.7031,816.2813 Q693.9844,816.3906 695.2813,816.6563 Q696.5938,816.9063 697.2969,817.2188 Q698,817.5156 698.4688,818.1719 Q698.9375,818.8281 698.9375,819.7344 Q698.9375,821 698.0469,821.75 Q696.8594,822.75 695.0313,822.75 Q694.3281,822.75 693.6563,822.5781 Q693,822.4063 692.3594,822.0625 Z " fill="#000000"/><text fill="#000000" font-family="sans-serif" font-size="14" lengthAdjust="spacing" textLength="43" x="714.75" y="823.2285">District</text><line style="stroke:#181818;stroke-width:0.5;" x1="649.5" x2="790.5" y1="833.5" y2="833.5"/><ellipse cx="659.5" cy="847.8047" fill="none" rx="3" ry="3" style="stroke:#038048;stroke-width:1.0;"/><text fill="#000000" font-family="sans-serif" font-size="14" lengthAdjust="spacing" textLength="11" x="668.5" y="852.0332">Id</text><ellipse cx="659.5" cy="865.4141" fill="none" rx="3" ry="3" style="stroke:#038048;stroke-width:1.0;"/><text fill="#000000" font-family="sans-serif" font-size="14" lengthAdjust="spacing" textLength="36" x="668.5" y="869.6426">Name</text><ellipse cx="659.5" cy="883.0234" fill="none" rx="3" ry="3" style="stroke:#038048;stroke-width:1.0;"/><text fill="#000000" font-family="sans-serif" font-size="14" lengthAdjust="spacing" textLength="117" x="668.5" y="887.252">EquipmentCentres</text></g><!--class EquipmentCentre--><g id="elem_EquipmentCentre"><rect codeLine="28" fill="#F1F1F1" height="110.4375" id="EquipmentCentre" rx="2.5" ry="2.5" style="stroke:#181818;stroke-width:0.5;" width="142" x="827" y="793"/><ellipse cx="842" cy="809" fill="#F1F1F1" rx="11" ry="11" style="stroke:#181818;stroke-width:1.0;"/><path d="M840.1094,813.5625 Q839.8906,813.8281 839.75,813.9063 Q839.6094,813.9844 839.4219,813.9844 Q839.0313,813.9844 838.7813,813.7188 Q838.5469,813.4531 838.5469,812.8594 L838.5469,811.7031 Q838.5469,811.0938 838.7813,810.8438 Q839.0313,810.5781 839.4219,810.5781 Q839.7188,810.5781 839.9219,810.7344 Q840.125,810.8906 840.2344,811.2656 Q840.3438,811.625 840.4531,811.7656 Q840.7031,812.0156 841.3125,812.2813 Q841.9219,812.5469 842.6563,812.5469 Q843.7969,812.5469 844.5156,812.0156 Q844.9844,811.6875 844.9844,811.2188 Q844.9844,810.9063 844.7656,810.625 Q844.5469,810.3438 844.0313,810.1719 Q843.7031,810.0469 842.5469,809.8281 Q841.1563,809.5625 840.4375,809.2031 Q839.7188,808.8438 839.2969,808.1875 Q838.8906,807.5156 838.8906,806.7344 Q838.8906,805.5156 839.9063,804.6094 Q840.9375,803.6875 842.5781,803.6875 Q843.2344,803.6875 843.7813,803.8281 Q844.3438,803.9688 844.8125,804.2656 Q845.1406,803.9531 845.4688,803.9531 Q845.8438,803.9531 846.0781,804.2188 Q846.3125,804.4688 846.3125,805.0781 L846.3125,806.3594 Q846.3125,806.9688 846.0781,807.2344 Q845.8438,807.4844 845.4688,807.4844 Q845.1563,807.4844 844.9219,807.2969 Q844.7344,807.1563 844.6406,806.7344 Q844.5625,806.3125 844.4219,806.125 Q844.1719,805.8125 843.6875,805.6094 Q843.2188,805.3906 842.5781,805.3906 Q841.6563,805.3906 841.125,805.8125 Q840.5938,806.2344 840.5938,806.7031 Q840.5938,807.0156 840.8125,807.3125 Q841.0313,807.6094 841.4531,807.7813 Q841.7344,807.8906 843.0313,808.1563 Q844.3438,808.4063 845.0469,808.7188 Q845.75,809.0156 846.2188,809.6719 Q846.6875,810.3281 846.6875,811.2344 Q846.6875,812.5 845.7969,813.25 Q844.6094,814.25 842.7813,814.25 Q842.0781,814.25 841.4063,814.0781 Q840.75,813.9063 840.1094,813.5625 Z " fill="#000000"/><text fill="#000000" font-family="sans-serif" font-size="14" lengthAdjust="spacing" textLength="110" x="856" y="814.7285">EquipmentCentre</text><line style="stroke:#181818;stroke-width:0.5;" x1="828" x2="968" y1="825" y2="825"/><ellipse cx="838" cy="839.3047" fill="none" rx="3" ry="3" style="stroke:#038048;stroke-width:1.0;"/><text fill="#000000" font-family="sans-serif" font-size="14" lengthAdjust="spacing" textLength="27" x="847" y="843.5332">Title</text><ellipse cx="838" cy="856.9141" fill="none" rx="3" ry="3" style="stroke:#038048;stroke-width:1.0;"/><text fill="#000000" font-family="sans-serif" font-size="14" lengthAdjust="spacing" textLength="70" x="847" y="861.1426">Information</text><ellipse cx="838" cy="874.5234" fill="none" rx="3" ry="3" style="stroke:#038048;stroke-width:1.0;"/><text fill="#000000" font-family="sans-serif" font-size="14" lengthAdjust="spacing" textLength="54" x="847" y="878.752">Location</text><ellipse cx="838" cy="892.1328" fill="none" rx="3" ry="3" style="stroke:#038048;stroke-width:1.0;"/><text fill="#000000" font-family="sans-serif" font-size="14" lengthAdjust="spacing" textLength="32" x="847" y="896.3613">Point</text></g><!--class MapPoint--><g id="elem_MapPoint"><rect codeLine="35" fill="#F1F1F1" height="75.2188" id="MapPoint" rx="2.5" ry="2.5" style="stroke:#181818;stroke-width:0.5;" width="91" x="1004.5" y="810.5"/><ellipse cx="1019.5" cy="826.5" fill="#F1F1F1" rx="11" ry="11" style="stroke:#181818;stroke-width:1.0;"/><path d="M1017.6094,831.0625 Q1017.3906,831.3281 1017.25,831.4063 Q1017.1094,831.4844 1016.9219,831.4844 Q1016.5313,831.4844 1016.2813,831.2188 Q1016.0469,830.9531 1016.0469,830.3594 L1016.0469,829.2031 Q1016.0469,828.5938 1016.2813,828.3438 Q1016.5313,828.0781 1016.9219,828.0781 Q1017.2188,828.0781 1017.4219,828.2344 Q1017.625,828.3906 1017.7344,828.7656 Q1017.8438,829.125 1017.9531,829.2656 Q1018.2031,829.5156 1018.8125,829.7813 Q1019.4219,830.0469 1020.1563,830.0469 Q1021.2969,830.0469 1022.0156,829.5156 Q1022.4844,829.1875 1022.4844,828.7188 Q1022.4844,828.4063 1022.2656,828.125 Q1022.0469,827.8438 1021.5313,827.6719 Q1021.2031,827.5469 1020.0469,827.3281 Q1018.6563,827.0625 1017.9375,826.7031 Q1017.2188,826.3438 1016.7969,825.6875 Q1016.3906,825.0156 1016.3906,824.2344 Q1016.3906,823.0156 1017.4063,822.1094 Q1018.4375,821.1875 1020.0781,821.1875 Q1020.7344,821.1875 1021.2813,821.3281 Q1021.8438,821.4688 1022.3125,821.7656 Q1022.6406,821.4531 1022.9688,821.4531 Q1023.3438,821.4531 1023.5781,821.7188 Q1023.8125,821.9688 1023.8125,822.5781 L1023.8125,823.8594 Q1023.8125,824.4688 1023.5781,824.7344 Q1023.3438,824.9844 1022.9688,824.9844 Q1022.6563,824.9844 1022.4219,824.7969 Q1022.2344,824.6563 1022.1406,824.2344 Q1022.0625,823.8125 1021.9219,823.625 Q1021.6719,823.3125 1021.1875,823.1094 Q1020.7188,822.8906 1020.0781,822.8906 Q1019.1563,822.8906 1018.625,823.3125 Q1018.0938,823.7344 1018.0938,824.2031 Q1018.0938,824.5156 1018.3125,824.8125 Q1018.5313,825.1094 1018.9531,825.2813 Q1019.2344,825.3906 1020.5313,825.6563 Q1021.8438,825.9063 1022.5469,826.2188 Q1023.25,826.5156 1023.7188,827.1719 Q1024.1875,827.8281 1024.1875,828.7344 Q1024.1875,830 1023.2969,830.75 Q1022.1094,831.75 1020.2813,831.75 Q1019.5781,831.75 1018.9063,831.5781 Q1018.25,831.4063 1017.6094,831.0625 Z " fill="#000000"/><text fill="#000000" font-family="sans-serif" font-size="14" lengthAdjust="spacing" textLength="59" x="1033.5" y="832.2285">MapPoint</text><line style="stroke:#181818;stroke-width:0.5;" x1="1005.5" x2="1094.5" y1="842.5" y2="842.5"/><ellipse cx="1015.5" cy="856.8047" fill="none" rx="3" ry="3" style="stroke:#038048;stroke-width:1.0;"/><text fill="#000000" font-family="sans-serif" font-size="14" lengthAdjust="spacing" textLength="51" x="1024.5" y="861.0332">Latitude</text><ellipse cx="1015.5" cy="874.4141" fill="none" rx="3" ry="3" style="stroke:#038048;stroke-width:1.0;"/><text fill="#000000" font-family="sans-serif" font-size="14" lengthAdjust="spacing" textLength="63" x="1024.5" y="878.6426">Longitude</text></g><!--class WebScraper--><g id="elem_WebScraper"><rect codeLine="48" fill="#F1F1F1" height="153.6563" id="WebScraper" rx="2.5" ry="2.5" style="stroke:#181818;stroke-width:0.5;" width="176" x="1192" y="771"/><ellipse cx="1236.25" cy="787" fill="#ADD1B2" rx="11" ry="11" style="stroke:#181818;stroke-width:1.0;"/><path d="M1239.0156,782.875 Q1239.1719,782.6563 1239.3594,782.5469 Q1239.5469,782.4375 1239.7656,782.4375 Q1240.1406,782.4375 1240.375,782.7031 Q1240.6094,782.9531 1240.6094,783.5625 L1240.6094,785.0156 Q1240.6094,785.625 1240.375,785.8906 Q1240.1406,786.1563 1239.7656,786.1563 Q1239.4219,786.1563 1239.2188,785.9531 Q1239.0156,785.7656 1238.9063,785.25 Q1238.8594,784.8906 1238.6719,784.7031 Q1238.3438,784.3281 1237.7344,784.1094 Q1237.125,783.8906 1236.5,783.8906 Q1235.7344,783.8906 1235.0938,784.2188 Q1234.4688,784.5469 1233.9688,785.2969 Q1233.4844,786.0469 1233.4844,787.0781 L1233.4844,788.1719 Q1233.4844,789.4063 1234.375,790.2344 Q1235.2656,791.0469 1236.8594,791.0469 Q1237.7969,791.0469 1238.4531,790.7969 Q1238.8438,790.6406 1239.2656,790.2031 Q1239.5313,789.9375 1239.6719,789.8594 Q1239.8281,789.7813 1240.0313,789.7813 Q1240.3594,789.7813 1240.6094,790.0469 Q1240.875,790.2969 1240.875,790.6406 Q1240.875,790.9844 1240.5313,791.3906 Q1240.0313,791.9688 1239.2344,792.2969 Q1238.1563,792.75 1236.8594,792.75 Q1235.3438,792.75 1234.1406,792.125 Q1233.1563,791.625 1232.4688,790.5625 Q1231.7813,789.4844 1231.7813,788.2031 L1231.7813,787.0469 Q1231.7813,785.7188 1232.3906,784.5781 Q1233.0156,783.4219 1234.1094,782.8125 Q1235.2031,782.1875 1236.4375,782.1875 Q1237.1719,782.1875 1237.8125,782.3594 Q1238.4688,782.5156 1239.0156,782.875 Z " fill="#000000"/><text fill="#000000" font-family="sans-serif" font-size="14" lengthAdjust="spacing" textLength="79" x="1256.75" y="792.7285">WebScraper</text><line style="stroke:#181818;stroke-width:0.5;" x1="1193" x2="1367" y1="803" y2="803"/><rect fill="none" height="6" style="stroke:#C82930;stroke-width:1.0;" width="6" x="1200" y="814.3047"/><text fill="#000000" font-family="sans-serif" font-size="14" lengthAdjust="spacing" textLength="60" x="1212" y="821.5332">httpClient</text><line style="stroke:#181818;stroke-width:0.5;" x1="1193" x2="1367" y1="828.6094" y2="828.6094"/><ellipse cx="1203" cy="842.9141" fill="#84BE84" rx="3" ry="3" style="stroke:#038048;stroke-width:1.0;"/><text fill="#000000" font-family="sans-serif" font-size="14" lengthAdjust="spacing" text-decoration="underline" textLength="53" x="1212" y="847.1426">Create()</text><ellipse cx="1203" cy="860.5234" fill="#84BE84" rx="3" ry="3" style="stroke:#038048;stroke-width:1.0;"/><text fill="#000000" font-family="sans-serif" font-size="14" lengthAdjust="spacing" textLength="110" x="1212" y="864.752">LoadDataAsync()</text><ellipse cx="1203" cy="878.1328" fill="#84BE84" rx="3" ry="3" style="stroke:#038048;stroke-width:1.0;"/><text fill="#000000" font-family="sans-serif" font-size="14" lengthAdjust="spacing" textLength="98" x="1212" y="882.3613">GetAllDistricts()</text><ellipse cx="1203" cy="895.7422" fill="#84BE84" rx="3" ry="3" style="stroke:#038048;stroke-width:1.0;"/><text fill="#000000" font-family="sans-serif" font-size="14" lengthAdjust="spacing" textLength="150" x="1212" y="899.9707">GetEquipmentCentres()</text><ellipse cx="1203" cy="913.3516" fill="#84BE84" rx="3" ry="3" style="stroke:#038048;stroke-width:1.0;"/><text fill="#000000" font-family="sans-serif" font-size="14" lengthAdjust="spacing" textLength="143" x="1212" y="917.5801">GetEquipmentCentre()</text></g><!--class XPathBuilder--><g id="elem_XPathBuilder"><rect codeLine="59" fill="#F1F1F1" height="163.2656" id="XPathBuilder" rx="2.5" ry="2.5" style="stroke:#181818;stroke-width:0.5;" width="176" x="1192" y="1014.5"/><ellipse cx="1235.35" cy="1030.5" fill="#ADD1B2" rx="11" ry="11" style="stroke:#181818;stroke-width:1.0;"/><path d="M1238.1156,1026.375 Q1238.2719,1026.1563 1238.4594,1026.0469 Q1238.6469,1025.9375 1238.8656,1025.9375 Q1239.2406,1025.9375 1239.475,1026.2031 Q1239.7094,1026.4531 1239.7094,1027.0625 L1239.7094,1028.5156 Q1239.7094,1029.125 1239.475,1029.3906 Q1239.2406,1029.6563 1238.8656,1029.6563 Q1238.5219,1029.6563 1238.3188,1029.4531 Q1238.1156,1029.2656 1238.0063,1028.75 Q1237.9594,1028.3906 1237.7719,1028.2031 Q1237.4438,1027.8281 1236.8344,1027.6094 Q1236.225,1027.3906 1235.6,1027.3906 Q1234.8344,1027.3906 1234.1938,1027.7188 Q1233.5688,1028.0469 1233.0688,1028.7969 Q1232.5844,1029.5469 1232.5844,1030.5781 L1232.5844,1031.6719 Q1232.5844,1032.9063 1233.475,1033.7344 Q1234.3656,1034.5469 1235.9594,1034.5469 Q1236.8969,1034.5469 1237.5531,1034.2969 Q1237.9438,1034.1406 1238.3656,1033.7031 Q1238.6313,1033.4375 1238.7719,1033.3594 Q1238.9281,1033.2813 1239.1313,1033.2813 Q1239.4594,1033.2813 1239.7094,1033.5469 Q1239.975,1033.7969 1239.975,1034.1406 Q1239.975,1034.4844 1239.6313,1034.8906 Q1239.1313,1035.4688 1238.3344,1035.7969 Q1237.2563,1036.25 1235.9594,1036.25 Q1234.4438,1036.25 1233.2406,1035.625 Q1232.2563,1035.125 1231.5688,1034.0625 Q1230.8813,1032.9844 1230.8813,1031.7031 L1230.8813,1030.5469 Q1230.8813,1029.2188 1231.4906,1028.0781 Q1232.1156,1026.9219 1233.2094,1026.3125 Q1234.3031,1025.6875 1235.5375,1025.6875 Q1236.2719,1025.6875 1236.9125,1025.8594 Q1237.5688,1026.0156 1238.1156,1026.375 Z " fill="#000000"/><text fill="#000000" font-family="sans-serif" font-size="14" lengthAdjust="spacing" textLength="81" x="1255.65" y="1036.2285">XPathBuilder</text><line style="stroke:#181818;stroke-width:0.5;" x1="1193" x2="1367" y1="1046.5" y2="1046.5"/><text fill="#000000" font-family="sans-serif" font-size="14" lengthAdjust="spacing" text-decoration="underline" textLength="116" x="1198" y="1065.0332">DistrictNameXPath</text><text fill="#000000" font-family="sans-serif" font-size="14" lengthAdjust="spacing" text-decoration="underline" textLength="146" x="1198" y="1082.6426">EquipmentCentreName</text><text fill="#000000" font-family="sans-serif" font-size="14" lengthAdjust="spacing" text-decoration="underline" textLength="133" x="1198" y="1100.252">EquipmentCentreInfo</text><text fill="#000000" font-family="sans-serif" font-size="14" lengthAdjust="spacing" text-decoration="underline" textLength="164" x="1198" y="1117.8613">EquipmentCentreLocation</text><text fill="#000000" font-family="sans-serif" font-size="14" lengthAdjust="spacing" text-decoration="underline" textLength="140" x="1198" y="1135.4707">EquipmentCentreData</text><text fill="#000000" font-family="sans-serif" font-size="14" lengthAdjust="spacing" text-decoration="underline" textLength="80" x="1198" y="1153.0801">DistrictXPath</text><text fill="#000000" font-family="sans-serif" font-size="14" lengthAdjust="spacing" text-decoration="underline" textLength="102" x="1198" y="1170.6895">AllDistrictsXPath</text></g><!--class IEquipmentCentreProvider--><g id="elem_IEquipmentCentreProvider"><rect codeLine="77" fill="#F1F1F1" height="65.6094" id="IEquipmentCentreProvider" rx="2.5" ry="2.5" style="stroke:#181818;stroke-width:0.5;" width="198" x="83" y="582.5"/><ellipse cx="98" cy="598.5" fill="#B4A7E5" rx="11" ry="11" style="stroke:#181818;stroke-width:1.0;"/><path d="M98.9531,595.1406 L98.9531,601.7969 L100.6719,601.7969 Q101.2813,601.7969 101.5469,602.0313 Q101.8125,602.2656 101.8125,602.6563 Q101.8125,603.0313 101.5469,603.2656 Q101.2813,603.5 100.6719,603.5 L95.5313,603.5 Q94.9219,603.5 94.6563,603.2656 Q94.3906,603.0313 94.3906,602.6406 Q94.3906,602.2656 94.6563,602.0313 Q94.9219,601.7969 95.5313,601.7969 L97.25,601.7969 L97.25,595.1406 L95.5313,595.1406 Q94.9219,595.1406 94.6563,594.9063 Q94.3906,594.6719 94.3906,594.2813 Q94.3906,593.9063 94.6563,593.6719 Q94.9219,593.4375 95.5313,593.4375 L100.6719,593.4375 Q101.2813,593.4375 101.5469,593.6719 Q101.8125,593.9063 101.8125,594.2813 Q101.8125,594.6719 101.5469,594.9063 Q101.2813,595.1406 100.6719,595.1406 L98.9531,595.1406 Z " fill="#000000"/><text fill="#000000" font-family="sans-serif" font-size="14" font-style="italic" lengthAdjust="spacing" textLength="166" x="112" y="604.2285">IEquipmentCentreProvider</text><line style="stroke:#181818;stroke-width:0.5;" x1="84" x2="280" y1="614.5" y2="614.5"/><line style="stroke:#181818;stroke-width:0.5;" x1="84" x2="280" y1="622.5" y2="622.5"/><text fill="#000000" font-family="sans-serif" font-size="14" lengthAdjust="spacing" textLength="121" x="89" y="641.0332">GetDistrictsAsync()</text></g><!--class ApiEquipmentCentreProvider--><g id="elem_ApiEquipmentCentreProvider"><rect codeLine="81" fill="#F1F1F1" height="83.2188" id="ApiEquipmentCentreProvider" rx="2.5" ry="2.5" style="stroke:#181818;stroke-width:0.5;" width="215" x="70.5" y="806.5"/><ellipse cx="85.5" cy="822.5" fill="#ADD1B2" rx="11" ry="11" style="stroke:#181818;stroke-width:1.0;"/><path d="M88.2656,818.375 Q88.4219,818.1563 88.6094,818.0469 Q88.7969,817.9375 89.0156,817.9375 Q89.3906,817.9375 89.625,818.2031 Q89.8594,818.4531 89.8594,819.0625 L89.8594,820.5156 Q89.8594,821.125 89.625,821.3906 Q89.3906,821.6563 89.0156,821.6563 Q88.6719,821.6563 88.4688,821.4531 Q88.2656,821.2656 88.1563,820.75 Q88.1094,820.3906 87.9219,820.2031 Q87.5938,819.8281 86.9844,819.6094 Q86.375,819.3906 85.75,819.3906 Q84.9844,819.3906 84.3438,819.7188 Q83.7188,820.0469 83.2188,820.7969 Q82.7344,821.5469 82.7344,822.5781 L82.7344,823.6719 Q82.7344,824.9063 83.625,825.7344 Q84.5156,826.5469 86.1094,826.5469 Q87.0469,826.5469 87.7031,826.2969 Q88.0938,826.1406 88.5156,825.7031 Q88.7813,825.4375 88.9219,825.3594 Q89.0781,825.2813 89.2813,825.2813 Q89.6094,825.2813 89.8594,825.5469 Q90.125,825.7969 90.125,826.1406 Q90.125,826.4844 89.7813,826.8906 Q89.2813,827.4688 88.4844,827.7969 Q87.4063,828.25 86.1094,828.25 Q84.5938,828.25 83.3906,827.625 Q82.4063,827.125 81.7188,826.0625 Q81.0313,824.9844 81.0313,823.7031 L81.0313,822.5469 Q81.0313,821.2188 81.6406,820.0781 Q82.2656,818.9219 83.3594,818.3125 Q84.4531,817.6875 85.6875,817.6875 Q86.4219,817.6875 87.0625,817.8594 Q87.7188,818.0156 88.2656,818.375 Z " fill="#000000"/><text fill="#000000" font-family="sans-serif" font-size="14" lengthAdjust="spacing" textLength="183" x="99.5" y="828.2285">ApiEquipmentCentreProvider</text><line style="stroke:#181818;stroke-width:0.5;" x1="71.5" x2="284.5" y1="838.5" y2="838.5"/><rect fill="none" height="6" style="stroke:#C82930;stroke-width:1.0;" width="6" x="78.5" y="849.8047"/><text fill="#000000" font-family="sans-serif" font-size="14" lengthAdjust="spacing" textLength="60" x="90.5" y="857.0332">httpClient</text><line style="stroke:#181818;stroke-width:0.5;" x1="71.5" x2="284.5" y1="864.1094" y2="864.1094"/><ellipse cx="81.5" cy="878.4141" fill="#84BE84" rx="3" ry="3" style="stroke:#038048;stroke-width:1.0;"/><text fill="#000000" font-family="sans-serif" font-size="14" lengthAdjust="spacing" textLength="121" x="90.5" y="882.6426">GetDistrictsAsync()</text></g><!--class About--><g id="elem_About"><rect codeLine="89" fill="#F1F1F1" height="32" id="About" rx="2.5" ry="2.5" style="stroke:#181818;stroke-width:0.5;" width="69" x="439.5" y="832"/><ellipse cx="454.5" cy="848" fill="#ADD1B2" rx="11" ry="11" style="stroke:#181818;stroke-width:1.0;"/><path d="M457.2656,843.875 Q457.4219,843.6563 457.6094,843.5469 Q457.7969,843.4375 458.0156,843.4375 Q458.3906,843.4375 458.625,843.7031 Q458.8594,843.9531 458.8594,844.5625 L458.8594,846.0156 Q458.8594,846.625 458.625,846.8906 Q458.3906,847.1563 458.0156,847.1563 Q457.6719,847.1563 457.4688,846.9531 Q457.2656,846.7656 457.1563,846.25 Q457.1094,845.8906 456.9219,845.7031 Q456.5938,845.3281 455.9844,845.1094 Q455.375,844.8906 454.75,844.8906 Q453.9844,844.8906 453.3438,845.2188 Q452.7188,845.5469 452.2188,846.2969 Q451.7344,847.0469 451.7344,848.0781 L451.7344,849.1719 Q451.7344,850.4063 452.625,851.2344 Q453.5156,852.0469 455.1094,852.0469 Q456.0469,852.0469 456.7031,851.7969 Q457.0938,851.6406 457.5156,851.2031 Q457.7813,850.9375 457.9219,850.8594 Q458.0781,850.7813 458.2813,850.7813 Q458.6094,850.7813 458.8594,851.0469 Q459.125,851.2969 459.125,851.6406 Q459.125,851.9844 458.7813,852.3906 Q458.2813,852.9688 457.4844,853.2969 Q456.4063,853.75 455.1094,853.75 Q453.5938,853.75 452.3906,853.125 Q451.4063,852.625 450.7188,851.5625 Q450.0313,850.4844 450.0313,849.2031 L450.0313,848.0469 Q450.0313,846.7188 450.6406,845.5781 Q451.2656,844.4219 452.3594,843.8125 Q453.4531,843.1875 454.6875,843.1875 Q455.4219,843.1875 456.0625,843.3594 Q456.7188,843.5156 457.2656,843.875 Z " fill="#000000"/><text fill="#000000" font-family="sans-serif" font-size="14" lengthAdjust="spacing" textLength="37" x="468.5" y="853.7285">About</text></g><!--class Main--><g id="elem_Main"><rect codeLine="93" fill="#F1F1F1" height="57.6094" id="Main" rx="2.5" ry="2.5" style="stroke:#181818;stroke-width:0.5;" width="62" x="342" y="819"/><ellipse cx="357" cy="835" fill="#ADD1B2" rx="11" ry="11" style="stroke:#181818;stroke-width:1.0;"/><path d="M359.7656,830.875 Q359.9219,830.6563 360.1094,830.5469 Q360.2969,830.4375 360.5156,830.4375 Q360.8906,830.4375 361.125,830.7031 Q361.3594,830.9531 361.3594,831.5625 L361.3594,833.0156 Q361.3594,833.625 361.125,833.8906 Q360.8906,834.1563 360.5156,834.1563 Q360.1719,834.1563 359.9688,833.9531 Q359.7656,833.7656 359.6563,833.25 Q359.6094,832.8906 359.4219,832.7031 Q359.0938,832.3281 358.4844,832.1094 Q357.875,831.8906 357.25,831.8906 Q356.4844,831.8906 355.8438,832.2188 Q355.2188,832.5469 354.7188,833.2969 Q354.2344,834.0469 354.2344,835.0781 L354.2344,836.1719 Q354.2344,837.4063 355.125,838.2344 Q356.0156,839.0469 357.6094,839.0469 Q358.5469,839.0469 359.2031,838.7969 Q359.5938,838.6406 360.0156,838.2031 Q360.2813,837.9375 360.4219,837.8594 Q360.5781,837.7813 360.7813,837.7813 Q361.1094,837.7813 361.3594,838.0469 Q361.625,838.2969 361.625,838.6406 Q361.625,838.9844 361.2813,839.3906 Q360.7813,839.9688 359.9844,840.2969 Q358.9063,840.75 357.6094,840.75 Q356.0938,840.75 354.8906,840.125 Q353.9063,839.625 353.2188,838.5625 Q352.5313,837.4844 352.5313,836.2031 L352.5313,835.0469 Q352.5313,833.7188 353.1406,832.5781 Q353.7656,831.4219 354.8594,830.8125 Q355.9531,830.1875 357.1875,830.1875 Q357.9219,830.1875 358.5625,830.3594 Q359.2188,830.5156 359.7656,830.875 Z " fill="#000000"/><text fill="#000000" font-family="sans-serif" font-size="14" lengthAdjust="spacing" textLength="30" x="371" y="840.7285">Main</text><line style="stroke:#181818;stroke-width:0.5;" x1="343" x2="403" y1="851" y2="851"/><rect fill="none" height="6" style="stroke:#C82930;stroke-width:1.0;" width="6" x="350" y="862.3047"/><text fill="#000000" font-family="sans-serif" font-size="14" lengthAdjust="spacing" textLength="27" x="362" y="869.5332">Map</text></g><!--class CacheSignal--><g id="elem_CacheSignal"><rect codeLine="105" fill="#F1F1F1" height="75.2188" id="CacheSignal" rx="2.5" ry="2.5" style="stroke:#181818;stroke-width:0.5;" width="123" x="2026.5" y="1237.5"/><ellipse cx="2041.5" cy="1253.5" fill="#ADD1B2" rx="11" ry="11" style="stroke:#181818;stroke-width:1.0;"/><path d="M2044.2656,1249.375 Q2044.4219,1249.1563 2044.6094,1249.0469 Q2044.7969,1248.9375 2045.0156,1248.9375 Q2045.3906,1248.9375 2045.625,1249.2031 Q2045.8594,1249.4531 2045.8594,1250.0625 L2045.8594,1251.5156 Q2045.8594,1252.125 2045.625,1252.3906 Q2045.3906,1252.6563 2045.0156,1252.6563 Q2044.6719,1252.6563 2044.4688,1252.4531 Q2044.2656,1252.2656 2044.1563,1251.75 Q2044.1094,1251.3906 2043.9219,1251.2031 Q2043.5938,1250.8281 2042.9844,1250.6094 Q2042.375,1250.3906 2041.75,1250.3906 Q2040.9844,1250.3906 2040.3438,1250.7188 Q2039.7188,1251.0469 2039.2188,1251.7969 Q2038.7344,1252.5469 2038.7344,1253.5781 L2038.7344,1254.6719 Q2038.7344,1255.9063 2039.625,1256.7344 Q2040.5156,1257.5469 2042.1094,1257.5469 Q2043.0469,1257.5469 2043.7031,1257.2969 Q2044.0938,1257.1406 2044.5156,1256.7031 Q2044.7813,1256.4375 2044.9219,1256.3594 Q2045.0781,1256.2813 2045.2813,1256.2813 Q2045.6094,1256.2813 2045.8594,1256.5469 Q2046.125,1256.7969 2046.125,1257.1406 Q2046.125,1257.4844 2045.7813,1257.8906 Q2045.2813,1258.4688 2044.4844,1258.7969 Q2043.4063,1259.25 2042.1094,1259.25 Q2040.5938,1259.25 2039.3906,1258.625 Q2038.4063,1258.125 2037.7188,1257.0625 Q2037.0313,1255.9844 2037.0313,1254.7031 L2037.0313,1253.5469 Q2037.0313,1252.2188 2037.6406,1251.0781 Q2038.2656,1249.9219 2039.3594,1249.3125 Q2040.4531,1248.6875 2041.6875,1248.6875 Q2042.4219,1248.6875 2043.0625,1248.8594 Q2043.7188,1249.0156 2044.2656,1249.375 Z " fill="#000000"/><text fill="#000000" font-family="sans-serif" font-size="14" lengthAdjust="spacing" textLength="80" x="2055.5" y="1259.2285">CacheSignal</text><rect fill="#FFFFFF" height="17.0938" style="stroke:#181818;stroke-width:1.0;stroke-dasharray:2.0,2.0;" width="9" x="2143.5" y="1234.5"/><text fill="#000000" font-family="sans-serif" font-size="12" font-style="italic" lengthAdjust="spacing" textLength="7" x="2144.5" y="1247.957">T</text><line style="stroke:#181818;stroke-width:0.5;" x1="2027.5" x2="2148.5" y1="1269.5" y2="1269.5"/><ellipse cx="2037.5" cy="1283.8047" fill="#84BE84" rx="3" ry="3" style="stroke:#038048;stroke-width:1.0;"/><text fill="#000000" font-family="sans-serif" font-size="14" lengthAdjust="spacing" textLength="76" x="2046.5" y="1288.0332">WaitAsync()</text><ellipse cx="2037.5" cy="1301.4141" fill="#84BE84" rx="3" ry="3" style="stroke:#038048;stroke-width:1.0;"/><text fill="#000000" font-family="sans-serif" font-size="14" lengthAdjust="spacing" textLength="62" x="2046.5" y="1305.6426">Release()</text></g><!--class DistrictsCacheWorker--><g id="elem_DistrictsCacheWorker"><rect codeLine="112" fill="#F1F1F1" height="153.6563" id="DistrictsCacheWorker" rx="2.5" ry="2.5" style="stroke:#181818;stroke-width:0.5;" width="169" x="2015.5" y="1019"/><ellipse cx="2030.5" cy="1035" fill="#ADD1B2" rx="11" ry="11" style="stroke:#181818;stroke-width:1.0;"/><path d="M2033.2656,1030.875 Q2033.4219,1030.6563 2033.6094,1030.5469 Q2033.7969,1030.4375 2034.0156,1030.4375 Q2034.3906,1030.4375 2034.625,1030.7031 Q2034.8594,1030.9531 2034.8594,1031.5625 L2034.8594,1033.0156 Q2034.8594,1033.625 2034.625,1033.8906 Q2034.3906,1034.1563 2034.0156,1034.1563 Q2033.6719,1034.1563 2033.4688,1033.9531 Q2033.2656,1033.7656 2033.1563,1033.25 Q2033.1094,1032.8906 2032.9219,1032.7031 Q2032.5938,1032.3281 2031.9844,1032.1094 Q2031.375,1031.8906 2030.75,1031.8906 Q2029.9844,1031.8906 2029.3438,1032.2188 Q2028.7188,1032.5469 2028.2188,1033.2969 Q2027.7344,1034.0469 2027.7344,1035.0781 L2027.7344,1036.1719 Q2027.7344,1037.4063 2028.625,1038.2344 Q2029.5156,1039.0469 2031.1094,1039.0469 Q2032.0469,1039.0469 2032.7031,1038.7969 Q2033.0938,1038.6406 2033.5156,1038.2031 Q2033.7813,1037.9375 2033.9219,1037.8594 Q2034.0781,1037.7813 2034.2813,1037.7813 Q2034.6094,1037.7813 2034.8594,1038.0469 Q2035.125,1038.2969 2035.125,1038.6406 Q2035.125,1038.9844 2034.7813,1039.3906 Q2034.2813,1039.9688 2033.4844,1040.2969 Q2032.4063,1040.75 2031.1094,1040.75 Q2029.5938,1040.75 2028.3906,1040.125 Q2027.4063,1039.625 2026.7188,1038.5625 Q2026.0313,1037.4844 2026.0313,1036.2031 L2026.0313,1035.0469 Q2026.0313,1033.7188 2026.6406,1032.5781 Q2027.2656,1031.4219 2028.3594,1030.8125 Q2029.4531,1030.1875 2030.6875,1030.1875 Q2031.4219,1030.1875 2032.0625,1030.3594 Q2032.7188,1030.5156 2033.2656,1030.875 Z " fill="#000000"/><text fill="#000000" font-family="sans-serif" font-size="14" lengthAdjust="spacing" textLength="137" x="2044.5" y="1040.7285">DistrictsCacheWorker</text><line style="stroke:#181818;stroke-width:0.5;" x1="2016.5" x2="2183.5" y1="1051" y2="1051"/><rect fill="none" height="6" style="stroke:#C82930;stroke-width:1.0;" width="6" x="2023.5" y="1062.3047"/><text fill="#000000" font-family="sans-serif" font-size="14" lengthAdjust="spacing" textLength="45" x="2035.5" y="1069.5332">service</text><rect fill="none" height="6" style="stroke:#C82930;stroke-width:1.0;" width="6" x="2023.5" y="1079.9141"/><text fill="#000000" font-family="sans-serif" font-size="14" lengthAdjust="spacing" textLength="77" x="2035.5" y="1087.1426">cacheSignal</text><rect fill="none" height="6" style="stroke:#C82930;stroke-width:1.0;" width="6" x="2023.5" y="1097.5234"/><text fill="#000000" font-family="sans-serif" font-size="14" lengthAdjust="spacing" textLength="91" x="2035.5" y="1104.752">memoryCache</text><rect fill="none" height="6" style="stroke:#C82930;stroke-width:1.0;" width="6" x="2023.5" y="1115.1328"/><text fill="#000000" font-family="sans-serif" font-size="14" lengthAdjust="spacing" textLength="40" x="2035.5" y="1122.3613">logger</text><line style="stroke:#181818;stroke-width:0.5;" x1="2016.5" x2="2183.5" y1="1129.4375" y2="1129.4375"/><ellipse cx="2026.5" cy="1143.7422" fill="#84BE84" rx="3" ry="3" style="stroke:#038048;stroke-width:1.0;"/><text fill="#000000" font-family="sans-serif" font-size="14" lengthAdjust="spacing" textLength="78" x="2035.5" y="1147.9707">StartAsync()</text><polygon fill="#FFFF44" points="2026.5,1156.3516,2030.5,1160.3516,2026.5,1164.3516,2022.5,1160.3516" style="stroke:#B38D22;stroke-width:1.0;"/><text fill="#000000" font-family="sans-serif" font-size="14" lengthAdjust="spacing" textLength="98" x="2035.5" y="1165.5801">ExecuteAsync()</text></g><!--class DistrictsController--><g id="elem_DistrictsController"><rect codeLine="125" fill="#F1F1F1" height="100.8281" id="DistrictsController" rx="2.5" ry="2.5" style="stroke:#181818;stroke-width:0.5;" width="258" x="2241" y="1045.5"/><ellipse cx="2309.75" cy="1061.5" fill="#ADD1B2" rx="11" ry="11" style="stroke:#181818;stroke-width:1.0;"/><path d="M2312.5156,1057.375 Q2312.6719,1057.1563 2312.8594,1057.0469 Q2313.0469,1056.9375 2313.2656,1056.9375 Q2313.6406,1056.9375 2313.875,1057.2031 Q2314.1094,1057.4531 2314.1094,1058.0625 L2314.1094,1059.5156 Q2314.1094,1060.125 2313.875,1060.3906 Q2313.6406,1060.6563 2313.2656,1060.6563 Q2312.9219,1060.6563 2312.7188,1060.4531 Q2312.5156,1060.2656 2312.4063,1059.75 Q2312.3594,1059.3906 2312.1719,1059.2031 Q2311.8438,1058.8281 2311.2344,1058.6094 Q2310.625,1058.3906 2310,1058.3906 Q2309.2344,1058.3906 2308.5938,1058.7188 Q2307.9688,1059.0469 2307.4688,1059.7969 Q2306.9844,1060.5469 2306.9844,1061.5781 L2306.9844,1062.6719 Q2306.9844,1063.9063 2307.875,1064.7344 Q2308.7656,1065.5469 2310.3594,1065.5469 Q2311.2969,1065.5469 2311.9531,1065.2969 Q2312.3438,1065.1406 2312.7656,1064.7031 Q2313.0313,1064.4375 2313.1719,1064.3594 Q2313.3281,1064.2813 2313.5313,1064.2813 Q2313.8594,1064.2813 2314.1094,1064.5469 Q2314.375,1064.7969 2314.375,1065.1406 Q2314.375,1065.4844 2314.0313,1065.8906 Q2313.5313,1066.4688 2312.7344,1066.7969 Q2311.6563,1067.25 2310.3594,1067.25 Q2308.8438,1067.25 2307.6406,1066.625 Q2306.6563,1066.125 2305.9688,1065.0625 Q2305.2813,1063.9844 2305.2813,1062.7031 L2305.2813,1061.5469 Q2305.2813,1060.2188 2305.8906,1059.0781 Q2306.5156,1057.9219 2307.6094,1057.3125 Q2308.7031,1056.6875 2309.9375,1056.6875 Q2310.6719,1056.6875 2311.3125,1056.8594 Q2311.9688,1057.0156 2312.5156,1057.375 Z " fill="#000000"/><text fill="#000000" font-family="sans-serif" font-size="14" lengthAdjust="spacing" textLength="112" x="2330.25" y="1067.2285">DistrictsController</text><line style="stroke:#181818;stroke-width:0.5;" x1="2242" x2="2498" y1="1077.5" y2="1077.5"/><rect fill="none" height="6" style="stroke:#C82930;stroke-width:1.0;" width="6" x="2249" y="1088.8047"/><text fill="#000000" font-family="sans-serif" font-size="14" lengthAdjust="spacing" textLength="156" x="2261" y="1096.0332">equipmentCentreService</text><line style="stroke:#181818;stroke-width:0.5;" x1="2242" x2="2498" y1="1103.1094" y2="1103.1094"/><ellipse cx="2252" cy="1117.4141" fill="#84BE84" rx="3" ry="3" style="stroke:#038048;stroke-width:1.0;"/><text fill="#000000" font-family="sans-serif" font-size="14" lengthAdjust="spacing" textLength="117" x="2261" y="1121.6426">Get() | api/Districts</text><ellipse cx="2252" cy="1135.0234" fill="#84BE84" rx="3" ry="3" style="stroke:#038048;stroke-width:1.0;"/><text fill="#000000" font-family="sans-serif" font-size="14" lengthAdjust="spacing" textLength="232" x="2261" y="1139.252">GetCentre() | api/Districts/{}/centre/{}</text></g><!--class VisicomMapPointProvider--><g id="elem_VisicomMapPointProvider"><rect codeLine="134" fill="#F1F1F1" height="118.4375" id="VisicomMapPointProvider" rx="2.5" ry="2.5" style="stroke:#181818;stroke-width:0.5;" width="192" x="2161" y="789"/><ellipse cx="2176" cy="805" fill="#ADD1B2" rx="11" ry="11" style="stroke:#181818;stroke-width:1.0;"/><path d="M2178.7656,800.875 Q2178.9219,800.6563 2179.1094,800.5469 Q2179.2969,800.4375 2179.5156,800.4375 Q2179.8906,800.4375 2180.125,800.7031 Q2180.3594,800.9531 2180.3594,801.5625 L2180.3594,803.0156 Q2180.3594,803.625 2180.125,803.8906 Q2179.8906,804.1563 2179.5156,804.1563 Q2179.1719,804.1563 2178.9688,803.9531 Q2178.7656,803.7656 2178.6563,803.25 Q2178.6094,802.8906 2178.4219,802.7031 Q2178.0938,802.3281 2177.4844,802.1094 Q2176.875,801.8906 2176.25,801.8906 Q2175.4844,801.8906 2174.8438,802.2188 Q2174.2188,802.5469 2173.7188,803.2969 Q2173.2344,804.0469 2173.2344,805.0781 L2173.2344,806.1719 Q2173.2344,807.4063 2174.125,808.2344 Q2175.0156,809.0469 2176.6094,809.0469 Q2177.5469,809.0469 2178.2031,808.7969 Q2178.5938,808.6406 2179.0156,808.2031 Q2179.2813,807.9375 2179.4219,807.8594 Q2179.5781,807.7813 2179.7813,807.7813 Q2180.1094,807.7813 2180.3594,808.0469 Q2180.625,808.2969 2180.625,808.6406 Q2180.625,808.9844 2180.2813,809.3906 Q2179.7813,809.9688 2178.9844,810.2969 Q2177.9063,810.75 2176.6094,810.75 Q2175.0938,810.75 2173.8906,810.125 Q2172.9063,809.625 2172.2188,808.5625 Q2171.5313,807.4844 2171.5313,806.2031 L2171.5313,805.0469 Q2171.5313,803.7188 2172.1406,802.5781 Q2172.7656,801.4219 2173.8594,800.8125 Q2174.9531,800.1875 2176.1875,800.1875 Q2176.9219,800.1875 2177.5625,800.3594 Q2178.2188,800.5156 2178.7656,800.875 Z " fill="#000000"/><text fill="#000000" font-family="sans-serif" font-size="14" lengthAdjust="spacing" textLength="160" x="2190" y="810.7285">VisicomMapPointProvider</text><line style="stroke:#181818;stroke-width:0.5;" x1="2162" x2="2352" y1="821" y2="821"/><rect fill="none" height="6" style="stroke:#C82930;stroke-width:1.0;" width="6" x="2169" y="832.3047"/><text fill="#000000" font-family="sans-serif" font-size="14" lengthAdjust="spacing" textLength="60" x="2181" y="839.5332">httpClient</text><rect fill="none" height="6" style="stroke:#C82930;stroke-width:1.0;" width="6" x="2169" y="849.9141"/><text fill="#000000" font-family="sans-serif" font-size="14" lengthAdjust="spacing" textLength="97" x="2181" y="857.1426">requestOptions</text><rect fill="none" height="6" style="stroke:#C82930;stroke-width:1.0;" width="6" x="2169" y="867.5234"/><text fill="#000000" font-family="sans-serif" font-size="14" lengthAdjust="spacing" textLength="40" x="2181" y="874.752">logger</text><line style="stroke:#181818;stroke-width:0.5;" x1="2162" x2="2352" y1="881.8281" y2="881.8281"/><ellipse cx="2172" cy="896.1328" fill="#84BE84" rx="3" ry="3" style="stroke:#038048;stroke-width:1.0;"/><text fill="#000000" font-family="sans-serif" font-size="14" lengthAdjust="spacing" textLength="103" x="2181" y="900.3613">GetPointAsync()</text></g><!--class IEquipmentCentreService--><g id="elem_IEquipmentCentreService"><rect codeLine="145" fill="#F1F1F1" height="83.2188" id="IEquipmentCentreService" rx="2.5" ry="2.5" style="stroke:#181818;stroke-width:0.5;" width="193" x="1754.5" y="806.5"/><ellipse cx="1769.95" cy="822.5" fill="#B4A7E5" rx="11" ry="11" style="stroke:#181818;stroke-width:1.0;"/><path d="M1770.9031,819.1406 L1770.9031,825.7969 L1772.6219,825.7969 Q1773.2313,825.7969 1773.4969,826.0313 Q1773.7625,826.2656 1773.7625,826.6563 Q1773.7625,827.0313 1773.4969,827.2656 Q1773.2313,827.5 1772.6219,827.5 L1767.4813,827.5 Q1766.8719,827.5 1766.6063,827.2656 Q1766.3406,827.0313 1766.3406,826.6406 Q1766.3406,826.2656 1766.6063,826.0313 Q1766.8719,825.7969 1767.4813,825.7969 L1769.2,825.7969 L1769.2,819.1406 L1767.4813,819.1406 Q1766.8719,819.1406 1766.6063,818.9063 Q1766.3406,818.6719 1766.3406,818.2813 Q1766.3406,817.9063 1766.6063,817.6719 Q1766.8719,817.4375 1767.4813,817.4375 L1772.6219,817.4375 Q1773.2313,817.4375 1773.4969,817.6719 Q1773.7625,817.9063 1773.7625,818.2813 Q1773.7625,818.6719 1773.4969,818.9063 Q1773.2313,819.1406 1772.6219,819.1406 L1770.9031,819.1406 Z " fill="#000000"/><text fill="#000000" font-family="sans-serif" font-size="14" font-style="italic" lengthAdjust="spacing" textLength="160" x="1784.05" y="828.2285">IEquipmentCentreService</text><line style="stroke:#181818;stroke-width:0.5;" x1="1755.5" x2="1946.5" y1="838.5" y2="838.5"/><line style="stroke:#181818;stroke-width:0.5;" x1="1755.5" x2="1946.5" y1="846.5" y2="846.5"/><text fill="#000000" font-family="sans-serif" font-size="14" lengthAdjust="spacing" textLength="121" x="1760.5" y="865.0332">GetDistrictsAsync()</text><text fill="#000000" font-family="sans-serif" font-size="14" lengthAdjust="spacing" textLength="181" x="1760.5" y="882.6426">GetEquipmentCentreAsync()</text></g><!--class VisicomEquipmentCentreService--><g id="elem_VisicomEquipmentCentreService"><rect codeLine="152" fill="#F1F1F1" height="118.4375" id="VisicomEquipmentCentreService" rx="2.5" ry="2.5" style="stroke:#181818;stroke-width:0.5;" width="237" x="1448.5" y="1037"/><ellipse cx="1463.5" cy="1053" fill="#ADD1B2" rx="11" ry="11" style="stroke:#181818;stroke-width:1.0;"/><path d="M1466.2656,1048.875 Q1466.4219,1048.6563 1466.6094,1048.5469 Q1466.7969,1048.4375 1467.0156,1048.4375 Q1467.3906,1048.4375 1467.625,1048.7031 Q1467.8594,1048.9531 1467.8594,1049.5625 L1467.8594,1051.0156 Q1467.8594,1051.625 1467.625,1051.8906 Q1467.3906,1052.1563 1467.0156,1052.1563 Q1466.6719,1052.1563 1466.4688,1051.9531 Q1466.2656,1051.7656 1466.1563,1051.25 Q1466.1094,1050.8906 1465.9219,1050.7031 Q1465.5938,1050.3281 1464.9844,1050.1094 Q1464.375,1049.8906 1463.75,1049.8906 Q1462.9844,1049.8906 1462.3438,1050.2188 Q1461.7188,1050.5469 1461.2188,1051.2969 Q1460.7344,1052.0469 1460.7344,1053.0781 L1460.7344,1054.1719 Q1460.7344,1055.4063 1461.625,1056.2344 Q1462.5156,1057.0469 1464.1094,1057.0469 Q1465.0469,1057.0469 1465.7031,1056.7969 Q1466.0938,1056.6406 1466.5156,1056.2031 Q1466.7813,1055.9375 1466.9219,1055.8594 Q1467.0781,1055.7813 1467.2813,1055.7813 Q1467.6094,1055.7813 1467.8594,1056.0469 Q1468.125,1056.2969 1468.125,1056.6406 Q1468.125,1056.9844 1467.7813,1057.3906 Q1467.2813,1057.9688 1466.4844,1058.2969 Q1465.4063,1058.75 1464.1094,1058.75 Q1462.5938,1058.75 1461.3906,1058.125 Q1460.4063,1057.625 1459.7188,1056.5625 Q1459.0313,1055.4844 1459.0313,1054.2031 L1459.0313,1053.0469 Q1459.0313,1051.7188 1459.6406,1050.5781 Q1460.2656,1049.4219 1461.3594,1048.8125 Q1462.4531,1048.1875 1463.6875,1048.1875 Q1464.4219,1048.1875 1465.0625,1048.3594 Q1465.7188,1048.5156 1466.2656,1048.875 Z " fill="#000000"/><text fill="#000000" font-family="sans-serif" font-size="14" lengthAdjust="spacing" textLength="205" x="1477.5" y="1058.7285">VisicomEquipmentCentreService</text><line style="stroke:#181818;stroke-width:0.5;" x1="1449.5" x2="1684.5" y1="1069" y2="1069"/><rect fill="none" height="6" style="stroke:#C82930;stroke-width:1.0;" width="6" x="1456.5" y="1080.3047"/><text fill="#000000" font-family="sans-serif" font-size="14" lengthAdjust="spacing" textLength="81" x="1468.5" y="1087.5332">dataProvider</text><rect fill="none" height="6" style="stroke:#C82930;stroke-width:1.0;" width="6" x="1456.5" y="1097.9141"/><text fill="#000000" font-family="sans-serif" font-size="14" lengthAdjust="spacing" textLength="112" x="1468.5" y="1105.1426">mapPointProvider</text><line style="stroke:#181818;stroke-width:0.5;" x1="1449.5" x2="1684.5" y1="1112.2188" y2="1112.2188"/><ellipse cx="1459.5" cy="1126.5234" fill="#84BE84" rx="3" ry="3" style="stroke:#038048;stroke-width:1.0;"/><text fill="#000000" font-family="sans-serif" font-size="14" lengthAdjust="spacing" textLength="121" x="1468.5" y="1130.752">GetDistrictsAsync()</text><ellipse cx="1459.5" cy="1144.1328" fill="#84BE84" rx="3" ry="3" style="stroke:#038048;stroke-width:1.0;"/><text fill="#000000" font-family="sans-serif" font-size="14" lengthAdjust="spacing" textLength="181" x="1468.5" y="1148.3613">GetEquipmentCentreAsync()</text></g><!--class CachedEquipmentCentreService--><g id="elem_CachedEquipmentCentreService"><rect codeLine="159" fill="#F1F1F1" height="136.0469" id="CachedEquipmentCentreService" rx="2.5" ry="2.5" style="stroke:#181818;stroke-width:0.5;" width="238" x="1721" y="1028"/><ellipse cx="1736" cy="1044" fill="#ADD1B2" rx="11" ry="11" style="stroke:#181818;stroke-width:1.0;"/><path d="M1738.7656,1039.875 Q1738.9219,1039.6563 1739.1094,1039.5469 Q1739.2969,1039.4375 1739.5156,1039.4375 Q1739.8906,1039.4375 1740.125,1039.7031 Q1740.3594,1039.9531 1740.3594,1040.5625 L1740.3594,1042.0156 Q1740.3594,1042.625 1740.125,1042.8906 Q1739.8906,1043.1563 1739.5156,1043.1563 Q1739.1719,1043.1563 1738.9688,1042.9531 Q1738.7656,1042.7656 1738.6563,1042.25 Q1738.6094,1041.8906 1738.4219,1041.7031 Q1738.0938,1041.3281 1737.4844,1041.1094 Q1736.875,1040.8906 1736.25,1040.8906 Q1735.4844,1040.8906 1734.8438,1041.2188 Q1734.2188,1041.5469 1733.7188,1042.2969 Q1733.2344,1043.0469 1733.2344,1044.0781 L1733.2344,1045.1719 Q1733.2344,1046.4063 1734.125,1047.2344 Q1735.0156,1048.0469 1736.6094,1048.0469 Q1737.5469,1048.0469 1738.2031,1047.7969 Q1738.5938,1047.6406 1739.0156,1047.2031 Q1739.2813,1046.9375 1739.4219,1046.8594 Q1739.5781,1046.7813 1739.7813,1046.7813 Q1740.1094,1046.7813 1740.3594,1047.0469 Q1740.625,1047.2969 1740.625,1047.6406 Q1740.625,1047.9844 1740.2813,1048.3906 Q1739.7813,1048.9688 1738.9844,1049.2969 Q1737.9063,1049.75 1736.6094,1049.75 Q1735.0938,1049.75 1733.8906,1049.125 Q1732.9063,1048.625 1732.2188,1047.5625 Q1731.5313,1046.4844 1731.5313,1045.2031 L1731.5313,1044.0469 Q1731.5313,1042.7188 1732.1406,1041.5781 Q1732.7656,1040.4219 1733.8594,1039.8125 Q1734.9531,1039.1875 1736.1875,1039.1875 Q1736.9219,1039.1875 1737.5625,1039.3594 Q1738.2188,1039.5156 1738.7656,1039.875 Z " fill="#000000"/><text fill="#000000" font-family="sans-serif" font-size="14" lengthAdjust="spacing" textLength="206" x="1750" y="1049.7285">CachedEquipmentCentreService</text><line style="stroke:#181818;stroke-width:0.5;" x1="1722" x2="1958" y1="1060" y2="1060"/><rect fill="none" height="6" style="stroke:#C82930;stroke-width:1.0;" width="6" x="1729" y="1071.3047"/><text fill="#000000" font-family="sans-serif" font-size="14" lengthAdjust="spacing" textLength="38" x="1741" y="1078.5332">cache</text><rect fill="none" height="6" style="stroke:#C82930;stroke-width:1.0;" width="6" x="1729" y="1088.9141"/><text fill="#000000" font-family="sans-serif" font-size="14" lengthAdjust="spacing" textLength="77" x="1741" y="1096.1426">cacheSignal</text><rect fill="none" height="6" style="stroke:#C82930;stroke-width:1.0;" width="6" x="1729" y="1106.5234"/><text fill="#000000" font-family="sans-serif" font-size="14" lengthAdjust="spacing" textLength="40" x="1741" y="1113.752">logger</text><line style="stroke:#181818;stroke-width:0.5;" x1="1722" x2="1958" y1="1120.8281" y2="1120.8281"/><ellipse cx="1732" cy="1135.1328" fill="#84BE84" rx="3" ry="3" style="stroke:#038048;stroke-width:1.0;"/><text fill="#000000" font-family="sans-serif" font-size="14" lengthAdjust="spacing" textLength="121" x="1741" y="1139.3613">GetDistrictsAsync()</text><ellipse cx="1732" cy="1152.7422" fill="#84BE84" rx="3" ry="3" style="stroke:#038048;stroke-width:1.0;"/><text fill="#000000" font-family="sans-serif" font-size="14" lengthAdjust="spacing" textLength="181" x="1741" y="1156.9707">GetEquipmentCentreAsync()</text></g><!--class BasicGeocoder--><g id="elem_BasicGeocoder"><rect codeLine="237" fill="#F1F1F1" height="136.0469" id="BasicGeocoder" rx="2.5" ry="2.5" style="stroke:#181818;stroke-width:0.5;" width="174" x="2612" y="547.5"/><ellipse cx="2647.25" cy="563.5" fill="#ADD1B2" rx="11" ry="11" style="stroke:#181818;stroke-width:1.0;"/><path d="M2650.0156,559.375 Q2650.1719,559.1563 2650.3594,559.0469 Q2650.5469,558.9375 2650.7656,558.9375 Q2651.1406,558.9375 2651.375,559.2031 Q2651.6094,559.4531 2651.6094,560.0625 L2651.6094,561.5156 Q2651.6094,562.125 2651.375,562.3906 Q2651.1406,562.6563 2650.7656,562.6563 Q2650.4219,562.6563 2650.2188,562.4531 Q2650.0156,562.2656 2649.9063,561.75 Q2649.8594,561.3906 2649.6719,561.2031 Q2649.3438,560.8281 2648.7344,560.6094 Q2648.125,560.3906 2647.5,560.3906 Q2646.7344,560.3906 2646.0938,560.7188 Q2645.4688,561.0469 2644.9688,561.7969 Q2644.4844,562.5469 2644.4844,563.5781 L2644.4844,564.6719 Q2644.4844,565.9063 2645.375,566.7344 Q2646.2656,567.5469 2647.8594,567.5469 Q2648.7969,567.5469 2649.4531,567.2969 Q2649.8438,567.1406 2650.2656,566.7031 Q2650.5313,566.4375 2650.6719,566.3594 Q2650.8281,566.2813 2651.0313,566.2813 Q2651.3594,566.2813 2651.6094,566.5469 Q2651.875,566.7969 2651.875,567.1406 Q2651.875,567.4844 2651.5313,567.8906 Q2651.0313,568.4688 2650.2344,568.7969 Q2649.1563,569.25 2647.8594,569.25 Q2646.3438,569.25 2645.1406,568.625 Q2644.1563,568.125 2643.4688,567.0625 Q2642.7813,565.9844 2642.7813,564.7031 L2642.7813,563.5469 Q2642.7813,562.2188 2643.3906,561.0781 Q2644.0156,559.9219 2645.1094,559.3125 Q2646.2031,558.6875 2647.4375,558.6875 Q2648.1719,558.6875 2648.8125,558.8594 Q2649.4688,559.0156 2650.0156,559.375 Z " fill="#000000"/><text fill="#000000" font-family="sans-serif" font-size="14" lengthAdjust="spacing" textLength="97" x="2665.75" y="569.2285">BasicGeocoder</text><line style="stroke:#181818;stroke-width:0.5;" x1="2613" x2="2785" y1="579.5" y2="579.5"/><rect fill="none" height="6" style="stroke:#C82930;stroke-width:1.0;" width="6" x="2620" y="590.8047"/><text fill="#000000" font-family="sans-serif" font-size="14" lengthAdjust="spacing" textLength="97" x="2632" y="598.0332">requestOptions</text><rect fill="none" height="6" style="stroke:#C82930;stroke-width:1.0;" width="6" x="2620" y="608.4141"/><text fill="#000000" font-family="sans-serif" font-size="14" lengthAdjust="spacing" textLength="60" x="2632" y="615.6426">httpClient</text><line style="stroke:#181818;stroke-width:0.5;" x1="2613" x2="2785" y1="622.7188" y2="622.7188"/><ellipse cx="2623" cy="637.0234" fill="#84BE84" rx="3" ry="3" style="stroke:#038048;stroke-width:1.0;"/><text fill="#000000" font-family="sans-serif" font-size="14" lengthAdjust="spacing" textLength="80" x="2632" y="641.252">SetOptions()</text><ellipse cx="2623" cy="654.6328" fill="#84BE84" rx="3" ry="3" style="stroke:#038048;stroke-width:1.0;"/><text fill="#000000" font-family="sans-serif" font-size="14" lengthAdjust="spacing" textLength="110" x="2632" y="658.8613">GetCoordinates()</text><ellipse cx="2623" cy="672.2422" fill="#84BE84" rx="3" ry="3" style="stroke:#038048;stroke-width:1.0;"/><text fill="#000000" font-family="sans-serif" font-size="14" lengthAdjust="spacing" textLength="148" x="2632" y="676.4707">GetCoordinatesAsync()</text></g><!--class RequestOptions--><g id="elem_RequestOptions"><rect codeLine="245" fill="#F1F1F1" height="66.4141" id="RequestOptions" rx="2.5" ry="2.5" style="stroke:#181818;stroke-width:0.5;" width="156" x="2822" y="582.5"/><ellipse cx="2846.9" cy="598.5" fill="#ADD1B2" rx="11" ry="11" style="stroke:#181818;stroke-width:1.0;"/><path d="M2849.6656,594.375 Q2849.8219,594.1563 2850.0094,594.0469 Q2850.1969,593.9375 2850.4156,593.9375 Q2850.7906,593.9375 2851.025,594.2031 Q2851.2594,594.4531 2851.2594,595.0625 L2851.2594,596.5156 Q2851.2594,597.125 2851.025,597.3906 Q2850.7906,597.6563 2850.4156,597.6563 Q2850.0719,597.6563 2849.8688,597.4531 Q2849.6656,597.2656 2849.5563,596.75 Q2849.5094,596.3906 2849.3219,596.2031 Q2848.9938,595.8281 2848.3844,595.6094 Q2847.775,595.3906 2847.15,595.3906 Q2846.3844,595.3906 2845.7438,595.7188 Q2845.1188,596.0469 2844.6188,596.7969 Q2844.1344,597.5469 2844.1344,598.5781 L2844.1344,599.6719 Q2844.1344,600.9063 2845.025,601.7344 Q2845.9156,602.5469 2847.5094,602.5469 Q2848.4469,602.5469 2849.1031,602.2969 Q2849.4938,602.1406 2849.9156,601.7031 Q2850.1813,601.4375 2850.3219,601.3594 Q2850.4781,601.2813 2850.6813,601.2813 Q2851.0094,601.2813 2851.2594,601.5469 Q2851.525,601.7969 2851.525,602.1406 Q2851.525,602.4844 2851.1813,602.8906 Q2850.6813,603.4688 2849.8844,603.7969 Q2848.8063,604.25 2847.5094,604.25 Q2845.9938,604.25 2844.7906,603.625 Q2843.8063,603.125 2843.1188,602.0625 Q2842.4313,600.9844 2842.4313,599.7031 L2842.4313,598.5469 Q2842.4313,597.2188 2843.0406,596.0781 Q2843.6656,594.9219 2844.7594,594.3125 Q2845.8531,593.6875 2847.0875,593.6875 Q2847.8219,593.6875 2848.4625,593.8594 Q2849.1188,594.0156 2849.6656,594.375 Z " fill="#000000"/><text fill="#000000" font-family="sans-serif" font-size="14" lengthAdjust="spacing" textLength="102" x="2863.1" y="604.2285">RequestOptions</text><line style="stroke:#181818;stroke-width:0.5;" x1="2823" x2="2977" y1="614.5" y2="614.5"/><line style="stroke:#181818;stroke-width:1.0;stroke-dasharray:1.0,2.0;" x1="2823" x2="2826" y1="631.3047" y2="631.3047"/><text fill="#000000" font-family="sans-serif" font-size="14" lengthAdjust="spacing" textLength="148" x="2826" y="636.5332">. see IRequestOptions .</text><line style="stroke:#181818;stroke-width:1.0;stroke-dasharray:1.0,2.0;" x1="2974" x2="2977" y1="631.3047" y2="631.3047"/></g><!--class IGeocoder--><g id="elem_IGeocoder"><rect codeLine="180" fill="#F1F1F1" height="100.8281" id="IGeocoder" rx="2.5" ry="2.5" style="stroke:#181818;stroke-width:0.5;" width="160" x="2627" y="191.5"/><ellipse cx="2669.45" cy="207.5" fill="#B4A7E5" rx="11" ry="11" style="stroke:#181818;stroke-width:1.0;"/><path d="M2670.4031,204.1406 L2670.4031,210.7969 L2672.1219,210.7969 Q2672.7313,210.7969 2672.9969,211.0313 Q2673.2625,211.2656 2673.2625,211.6563 Q2673.2625,212.0313 2672.9969,212.2656 Q2672.7313,212.5 2672.1219,212.5 L2666.9813,212.5 Q2666.3719,212.5 2666.1063,212.2656 Q2665.8406,212.0313 2665.8406,211.6406 Q2665.8406,211.2656 2666.1063,211.0313 Q2666.3719,210.7969 2666.9813,210.7969 L2668.7,210.7969 L2668.7,204.1406 L2666.9813,204.1406 Q2666.3719,204.1406 2666.1063,203.9063 Q2665.8406,203.6719 2665.8406,203.2813 Q2665.8406,202.9063 2666.1063,202.6719 Q2666.3719,202.4375 2666.9813,202.4375 L2672.1219,202.4375 Q2672.7313,202.4375 2672.9969,202.6719 Q2673.2625,202.9063 2673.2625,203.2813 Q2673.2625,203.6719 2672.9969,203.9063 Q2672.7313,204.1406 2672.1219,204.1406 L2670.4031,204.1406 Z " fill="#000000"/><text fill="#000000" font-family="sans-serif" font-size="14" font-style="italic" lengthAdjust="spacing" textLength="67" x="2689.55" y="213.2285">IGeocoder</text><line style="stroke:#181818;stroke-width:0.5;" x1="2628" x2="2786" y1="223.5" y2="223.5"/><line style="stroke:#181818;stroke-width:0.5;" x1="2628" x2="2786" y1="231.5" y2="231.5"/><text fill="#000000" font-family="sans-serif" font-size="14" lengthAdjust="spacing" textLength="80" x="2633" y="250.0332">SetOptions()</text><text fill="#000000" font-family="sans-serif" font-size="14" lengthAdjust="spacing" textLength="110" x="2633" y="267.6426">GetCoordinates()</text><text fill="#000000" font-family="sans-serif" font-size="14" lengthAdjust="spacing" textLength="148" x="2633" y="285.252">GetCoordinatesAsync()</text></g><!--class IRequestOptions--><g id="elem_IRequestOptions"><rect codeLine="186" fill="#F1F1F1" height="312.1406" id="IRequestOptions" rx="2.5" ry="2.5" style="stroke:#181818;stroke-width:0.5;" width="140" x="2822" y="86"/><ellipse cx="2837.9" cy="102" fill="#B4A7E5" rx="11" ry="11" style="stroke:#181818;stroke-width:1.0;"/><path d="M2838.8531,98.6406 L2838.8531,105.2969 L2840.5719,105.2969 Q2841.1813,105.2969 2841.4469,105.5313 Q2841.7125,105.7656 2841.7125,106.1563 Q2841.7125,106.5313 2841.4469,106.7656 Q2841.1813,107 2840.5719,107 L2835.4313,107 Q2834.8219,107 2834.5563,106.7656 Q2834.2906,106.5313 2834.2906,106.1406 Q2834.2906,105.7656 2834.5563,105.5313 Q2834.8219,105.2969 2835.4313,105.2969 L2837.15,105.2969 L2837.15,98.6406 L2835.4313,98.6406 Q2834.8219,98.6406 2834.5563,98.4063 Q2834.2906,98.1719 2834.2906,97.7813 Q2834.2906,97.4063 2834.5563,97.1719 Q2834.8219,96.9375 2835.4313,96.9375 L2840.5719,96.9375 Q2841.1813,96.9375 2841.4469,97.1719 Q2841.7125,97.4063 2841.7125,97.7813 Q2841.7125,98.1719 2841.4469,98.4063 Q2841.1813,98.6406 2840.5719,98.6406 L2838.8531,98.6406 Z " fill="#000000"/><text fill="#000000" font-family="sans-serif" font-size="14" font-style="italic" lengthAdjust="spacing" textLength="106" x="2852.1" y="107.7285">IRequestOptions</text><line style="stroke:#181818;stroke-width:0.5;" x1="2823" x2="2961" y1="118" y2="118"/><text fill="#000000" font-family="sans-serif" font-size="14" lengthAdjust="spacing" textLength="44" x="2828" y="136.5332">ApiKey</text><text fill="#000000" font-family="sans-serif" font-size="14" lengthAdjust="spacing" textLength="64" x="2828" y="154.1426">Language</text><text fill="#000000" font-family="sans-serif" font-size="14" lengthAdjust="spacing" textLength="69" x="2828" y="171.752">Categories</text><text fill="#000000" font-family="sans-serif" font-size="14" lengthAdjust="spacing" textLength="118" x="2828" y="189.3613">ExcludeCategories</text><text fill="#000000" font-family="sans-serif" font-size="14" lengthAdjust="spacing" textLength="27" x="2828" y="206.9707">Text</text><text fill="#000000" font-family="sans-serif" font-size="14" lengthAdjust="spacing" textLength="61" x="2828" y="224.5801">WordText</text><text fill="#000000" font-family="sans-serif" font-size="14" lengthAdjust="spacing" textLength="30" x="2828" y="242.1895">Near</text><text fill="#000000" font-family="sans-serif" font-size="14" lengthAdjust="spacing" textLength="74" x="2828" y="259.7988">NearRadius</text><text fill="#000000" font-family="sans-serif" font-size="14" lengthAdjust="spacing" textLength="37" x="2828" y="277.4082">Order</text><text fill="#000000" font-family="sans-serif" font-size="14" lengthAdjust="spacing" textLength="103" x="2828" y="295.0176">IntersectionArea</text><text fill="#000000" font-family="sans-serif" font-size="14" lengthAdjust="spacing" textLength="86" x="2828" y="312.627">ContainsArea</text><text fill="#000000" font-family="sans-serif" font-size="14" lengthAdjust="spacing" textLength="35" x="2828" y="330.2363">Zoom</text><text fill="#000000" font-family="sans-serif" font-size="14" lengthAdjust="spacing" textLength="29" x="2828" y="347.8457">Limit</text><text fill="#000000" font-family="sans-serif" font-size="14" lengthAdjust="spacing" textLength="84" x="2828" y="365.4551">CountryCode</text><text fill="#000000" font-family="sans-serif" font-size="14" lengthAdjust="spacing" textLength="128" x="2828" y="383.0645">CountryCodePriority</text><line style="stroke:#181818;stroke-width:0.5;" x1="2823" x2="2961" y1="390.1406" y2="390.1406"/></g><!--class Response--><g id="elem_Response"><rect codeLine="208" fill="#F1F1F1" height="32" id="Response" rx="2.5" ry="2.5" style="stroke:#181818;stroke-width:0.5;" width="96" x="2727" y="832"/><ellipse cx="2742" cy="848" fill="#F1F1F1" rx="11" ry="11" style="stroke:#181818;stroke-width:1.0;"/><path d="M2740.1094,852.5625 Q2739.8906,852.8281 2739.75,852.9063 Q2739.6094,852.9844 2739.4219,852.9844 Q2739.0313,852.9844 2738.7813,852.7188 Q2738.5469,852.4531 2738.5469,851.8594 L2738.5469,850.7031 Q2738.5469,850.0938 2738.7813,849.8438 Q2739.0313,849.5781 2739.4219,849.5781 Q2739.7188,849.5781 2739.9219,849.7344 Q2740.125,849.8906 2740.2344,850.2656 Q2740.3438,850.625 2740.4531,850.7656 Q2740.7031,851.0156 2741.3125,851.2813 Q2741.9219,851.5469 2742.6563,851.5469 Q2743.7969,851.5469 2744.5156,851.0156 Q2744.9844,850.6875 2744.9844,850.2188 Q2744.9844,849.9063 2744.7656,849.625 Q2744.5469,849.3438 2744.0313,849.1719 Q2743.7031,849.0469 2742.5469,848.8281 Q2741.1563,848.5625 2740.4375,848.2031 Q2739.7188,847.8438 2739.2969,847.1875 Q2738.8906,846.5156 2738.8906,845.7344 Q2738.8906,844.5156 2739.9063,843.6094 Q2740.9375,842.6875 2742.5781,842.6875 Q2743.2344,842.6875 2743.7813,842.8281 Q2744.3438,842.9688 2744.8125,843.2656 Q2745.1406,842.9531 2745.4688,842.9531 Q2745.8438,842.9531 2746.0781,843.2188 Q2746.3125,843.4688 2746.3125,844.0781 L2746.3125,845.3594 Q2746.3125,845.9688 2746.0781,846.2344 Q2745.8438,846.4844 2745.4688,846.4844 Q2745.1563,846.4844 2744.9219,846.2969 Q2744.7344,846.1563 2744.6406,845.7344 Q2744.5625,845.3125 2744.4219,845.125 Q2744.1719,844.8125 2743.6875,844.6094 Q2743.2188,844.3906 2742.5781,844.3906 Q2741.6563,844.3906 2741.125,844.8125 Q2740.5938,845.2344 2740.5938,845.7031 Q2740.5938,846.0156 2740.8125,846.3125 Q2741.0313,846.6094 2741.4531,846.7813 Q2741.7344,846.8906 2743.0313,847.1563 Q2744.3438,847.4063 2745.0469,847.7188 Q2745.75,848.0156 2746.2188,848.6719 Q2746.6875,849.3281 2746.6875,850.2344 Q2746.6875,851.5 2745.7969,852.25 Q2744.6094,853.25 2742.7813,853.25 Q2742.0781,853.25 2741.4063,853.0781 Q2740.75,852.9063 2740.1094,852.5625 Z " fill="#000000"/><text fill="#000000" font-family="sans-serif" font-size="14" lengthAdjust="spacing" textLength="64" x="2756" y="853.7285">Response</text></g><!--class Properties--><g id="elem_Properties"><rect codeLine="209" fill="#F1F1F1" height="32" id="Properties" rx="2.5" ry="2.5" style="stroke:#181818;stroke-width:0.5;" width="97" x="2651.5" y="1080"/><ellipse cx="2666.5" cy="1096" fill="#F1F1F1" rx="11" ry="11" style="stroke:#181818;stroke-width:1.0;"/><path d="M2664.6094,1100.5625 Q2664.3906,1100.8281 2664.25,1100.9063 Q2664.1094,1100.9844 2663.9219,1100.9844 Q2663.5313,1100.9844 2663.2813,1100.7188 Q2663.0469,1100.4531 2663.0469,1099.8594 L2663.0469,1098.7031 Q2663.0469,1098.0938 2663.2813,1097.8438 Q2663.5313,1097.5781 2663.9219,1097.5781 Q2664.2188,1097.5781 2664.4219,1097.7344 Q2664.625,1097.8906 2664.7344,1098.2656 Q2664.8438,1098.625 2664.9531,1098.7656 Q2665.2031,1099.0156 2665.8125,1099.2813 Q2666.4219,1099.5469 2667.1563,1099.5469 Q2668.2969,1099.5469 2669.0156,1099.0156 Q2669.4844,1098.6875 2669.4844,1098.2188 Q2669.4844,1097.9063 2669.2656,1097.625 Q2669.0469,1097.3438 2668.5313,1097.1719 Q2668.2031,1097.0469 2667.0469,1096.8281 Q2665.6563,1096.5625 2664.9375,1096.2031 Q2664.2188,1095.8438 2663.7969,1095.1875 Q2663.3906,1094.5156 2663.3906,1093.7344 Q2663.3906,1092.5156 2664.4063,1091.6094 Q2665.4375,1090.6875 2667.0781,1090.6875 Q2667.7344,1090.6875 2668.2813,1090.8281 Q2668.8438,1090.9688 2669.3125,1091.2656 Q2669.6406,1090.9531 2669.9688,1090.9531 Q2670.3438,1090.9531 2670.5781,1091.2188 Q2670.8125,1091.4688 2670.8125,1092.0781 L2670.8125,1093.3594 Q2670.8125,1093.9688 2670.5781,1094.2344 Q2670.3438,1094.4844 2669.9688,1094.4844 Q2669.6563,1094.4844 2669.4219,1094.2969 Q2669.2344,1094.1563 2669.1406,1093.7344 Q2669.0625,1093.3125 2668.9219,1093.125 Q2668.6719,1092.8125 2668.1875,1092.6094 Q2667.7188,1092.3906 2667.0781,1092.3906 Q2666.1563,1092.3906 2665.625,1092.8125 Q2665.0938,1093.2344 2665.0938,1093.7031 Q2665.0938,1094.0156 2665.3125,1094.3125 Q2665.5313,1094.6094 2665.9531,1094.7813 Q2666.2344,1094.8906 2667.5313,1095.1563 Q2668.8438,1095.4063 2669.5469,1095.7188 Q2670.25,1096.0156 2670.7188,1096.6719 Q2671.1875,1097.3281 2671.1875,1098.2344 Q2671.1875,1099.5 2670.2969,1100.25 Q2669.1094,1101.25 2667.2813,1101.25 Q2666.5781,1101.25 2665.9063,1101.0781 Q2665.25,1100.9063 2664.6094,1100.5625 Z " fill="#000000"/><text fill="#000000" font-family="sans-serif" font-size="14" lengthAdjust="spacing" textLength="65" x="2680.5" y="1101.7285">Properties</text></g><!--class GeoCentroid--><g id="elem_GeoCentroid"><rect codeLine="210" fill="#F1F1F1" height="32" id="GeoCentroid" rx="2.5" ry="2.5" style="stroke:#181818;stroke-width:0.5;" width="113" x="2783.5" y="1080"/><ellipse cx="2798.5" cy="1096" fill="#F1F1F1" rx="11" ry="11" style="stroke:#181818;stroke-width:1.0;"/><path d="M2796.6094,1100.5625 Q2796.3906,1100.8281 2796.25,1100.9063 Q2796.1094,1100.9844 2795.9219,1100.9844 Q2795.5313,1100.9844 2795.2813,1100.7188 Q2795.0469,1100.4531 2795.0469,1099.8594 L2795.0469,1098.7031 Q2795.0469,1098.0938 2795.2813,1097.8438 Q2795.5313,1097.5781 2795.9219,1097.5781 Q2796.2188,1097.5781 2796.4219,1097.7344 Q2796.625,1097.8906 2796.7344,1098.2656 Q2796.8438,1098.625 2796.9531,1098.7656 Q2797.2031,1099.0156 2797.8125,1099.2813 Q2798.4219,1099.5469 2799.1563,1099.5469 Q2800.2969,1099.5469 2801.0156,1099.0156 Q2801.4844,1098.6875 2801.4844,1098.2188 Q2801.4844,1097.9063 2801.2656,1097.625 Q2801.0469,1097.3438 2800.5313,1097.1719 Q2800.2031,1097.0469 2799.0469,1096.8281 Q2797.6563,1096.5625 2796.9375,1096.2031 Q2796.2188,1095.8438 2795.7969,1095.1875 Q2795.3906,1094.5156 2795.3906,1093.7344 Q2795.3906,1092.5156 2796.4063,1091.6094 Q2797.4375,1090.6875 2799.0781,1090.6875 Q2799.7344,1090.6875 2800.2813,1090.8281 Q2800.8438,1090.9688 2801.3125,1091.2656 Q2801.6406,1090.9531 2801.9688,1090.9531 Q2802.3438,1090.9531 2802.5781,1091.2188 Q2802.8125,1091.4688 2802.8125,1092.0781 L2802.8125,1093.3594 Q2802.8125,1093.9688 2802.5781,1094.2344 Q2802.3438,1094.4844 2801.9688,1094.4844 Q2801.6563,1094.4844 2801.4219,1094.2969 Q2801.2344,1094.1563 2801.1406,1093.7344 Q2801.0625,1093.3125 2800.9219,1093.125 Q2800.6719,1092.8125 2800.1875,1092.6094 Q2799.7188,1092.3906 2799.0781,1092.3906 Q2798.1563,1092.3906 2797.625,1092.8125 Q2797.0938,1093.2344 2797.0938,1093.7031 Q2797.0938,1094.0156 2797.3125,1094.3125 Q2797.5313,1094.6094 2797.9531,1094.7813 Q2798.2344,1094.8906 2799.5313,1095.1563 Q2800.8438,1095.4063 2801.5469,1095.7188 Q2802.25,1096.0156 2802.7188,1096.6719 Q2803.1875,1097.3281 2803.1875,1098.2344 Q2803.1875,1099.5 2802.2969,1100.25 Q2801.1094,1101.25 2799.2813,1101.25 Q2798.5781,1101.25 2797.9063,1101.0781 Q2797.25,1100.9063 2796.6094,1100.5625 Z " fill="#000000"/><text fill="#000000" font-family="sans-serif" font-size="14" lengthAdjust="spacing" textLength="81" x="2812.5" y="1101.7285">GeoCentroid</text></g><!--class Coordinates--><g id="elem_Coordinates"><rect codeLine="211" fill="#F1F1F1" height="32" id="Coordinates" rx="2.5" ry="2.5" style="stroke:#181818;stroke-width:0.5;" width="109" x="2785.5" y="1259"/><ellipse cx="2800.5" cy="1275" fill="#F1F1F1" rx="11" ry="11" style="stroke:#181818;stroke-width:1.0;"/><path d="M2798.6094,1279.5625 Q2798.3906,1279.8281 2798.25,1279.9063 Q2798.1094,1279.9844 2797.9219,1279.9844 Q2797.5313,1279.9844 2797.2813,1279.7188 Q2797.0469,1279.4531 2797.0469,1278.8594 L2797.0469,1277.7031 Q2797.0469,1277.0938 2797.2813,1276.8438 Q2797.5313,1276.5781 2797.9219,1276.5781 Q2798.2188,1276.5781 2798.4219,1276.7344 Q2798.625,1276.8906 2798.7344,1277.2656 Q2798.8438,1277.625 2798.9531,1277.7656 Q2799.2031,1278.0156 2799.8125,1278.2813 Q2800.4219,1278.5469 2801.1563,1278.5469 Q2802.2969,1278.5469 2803.0156,1278.0156 Q2803.4844,1277.6875 2803.4844,1277.2188 Q2803.4844,1276.9063 2803.2656,1276.625 Q2803.0469,1276.3438 2802.5313,1276.1719 Q2802.2031,1276.0469 2801.0469,1275.8281 Q2799.6563,1275.5625 2798.9375,1275.2031 Q2798.2188,1274.8438 2797.7969,1274.1875 Q2797.3906,1273.5156 2797.3906,1272.7344 Q2797.3906,1271.5156 2798.4063,1270.6094 Q2799.4375,1269.6875 2801.0781,1269.6875 Q2801.7344,1269.6875 2802.2813,1269.8281 Q2802.8438,1269.9688 2803.3125,1270.2656 Q2803.6406,1269.9531 2803.9688,1269.9531 Q2804.3438,1269.9531 2804.5781,1270.2188 Q2804.8125,1270.4688 2804.8125,1271.0781 L2804.8125,1272.3594 Q2804.8125,1272.9688 2804.5781,1273.2344 Q2804.3438,1273.4844 2803.9688,1273.4844 Q2803.6563,1273.4844 2803.4219,1273.2969 Q2803.2344,1273.1563 2803.1406,1272.7344 Q2803.0625,1272.3125 2802.9219,1272.125 Q2802.6719,1271.8125 2802.1875,1271.6094 Q2801.7188,1271.3906 2801.0781,1271.3906 Q2800.1563,1271.3906 2799.625,1271.8125 Q2799.0938,1272.2344 2799.0938,1272.7031 Q2799.0938,1273.0156 2799.3125,1273.3125 Q2799.5313,1273.6094 2799.9531,1273.7813 Q2800.2344,1273.8906 2801.5313,1274.1563 Q2802.8438,1274.4063 2803.5469,1274.7188 Q2804.25,1275.0156 2804.7188,1275.6719 Q2805.1875,1276.3281 2805.1875,1277.2344 Q2805.1875,1278.5 2804.2969,1279.25 Q2803.1094,1280.25 2801.2813,1280.25 Q2800.5781,1280.25 2799.9063,1280.0781 Q2799.25,1279.9063 2798.6094,1279.5625 Z " fill="#000000"/><text fill="#000000" font-family="sans-serif" font-size="14" lengthAdjust="spacing" textLength="77" x="2814.5" y="1280.7285">Coordinates</text></g><!--class Categories--><g id="elem_Categories"><rect codeLine="219" fill="#F1F1F1" height="92.8281" id="Categories" rx="2.5" ry="2.5" style="stroke:#181818;stroke-width:0.5;" width="101" x="3004.5" y="801.5"/><ellipse cx="3019.5" cy="817.5" fill="#EB937F" rx="11" ry="11" style="stroke:#181818;stroke-width:1.0;"/><path d="M3018.3594,818.2969 L3018.3594,820.7969 L3022.6875,820.7969 L3022.6875,819.875 Q3022.6875,819.2656 3022.9219,819 Q3023.1719,818.7344 3023.5469,818.7344 Q3023.9219,818.7344 3024.1563,819 Q3024.3906,819.2656 3024.3906,819.875 L3024.3906,822.5 L3016.3906,822.5 Q3015.7656,822.5 3015.5,822.2656 Q3015.25,822.0313 3015.25,821.6406 Q3015.25,821.2656 3015.5156,821.0313 Q3015.7813,820.7969 3016.3906,820.7969 L3016.6563,820.7969 L3016.6563,814.1406 L3016.3906,814.1406 Q3015.7656,814.1406 3015.5,813.9063 Q3015.25,813.6719 3015.25,813.2813 Q3015.25,812.9063 3015.5,812.6719 Q3015.7656,812.4375 3016.3906,812.4375 L3024.0156,812.4375 L3024.0156,815.0313 Q3024.0156,815.6406 3023.7813,815.9063 Q3023.5625,816.1563 3023.1719,816.1563 Q3022.7969,816.1563 3022.5625,815.9063 Q3022.3281,815.6406 3022.3281,815.0313 L3022.3281,814.1406 L3018.3594,814.1406 L3018.3594,816.5938 L3019.8438,816.5938 Q3019.8438,815.9375 3019.9688,815.75 Q3020.2344,815.3438 3020.7031,815.3438 Q3021.0781,815.3438 3021.3125,815.6094 Q3021.5469,815.8594 3021.5469,816.4688 L3021.5469,818.4375 Q3021.5469,818.9844 3021.4219,819.1719 Q3021.1563,819.5625 3020.7031,819.5625 Q3020.2344,819.5625 3019.9688,819.1563 Q3019.8438,818.9688 3019.8438,818.2969 L3018.3594,818.2969 Z " fill="#000000"/><text fill="#000000" font-family="sans-serif" font-size="14" lengthAdjust="spacing" textLength="69" x="3033.5" y="823.2285">Categories</text><line style="stroke:#181818;stroke-width:0.5;" x1="3005.5" x2="3104.5" y1="833.5" y2="833.5"/><text fill="#000000" font-family="sans-serif" font-size="14" lengthAdjust="spacing" textLength="58" x="3010.5" y="852.0332">ItService,</text><text fill="#000000" font-family="sans-serif" font-size="14" lengthAdjust="spacing" textLength="65" x="3010.5" y="869.6426">Cemetery,</text><text fill="#000000" font-family="sans-serif" font-size="14" lengthAdjust="spacing" textLength="59" x="3010.5" y="887.252">Prisons...</text></g><!--class Languages--><g id="elem_Languages"><rect codeLine="225" fill="#F1F1F1" height="92.8281" id="Languages" rx="2.5" ry="2.5" style="stroke:#181818;stroke-width:0.5;" width="103" x="3140.5" y="801.5"/><ellipse cx="3155.5" cy="817.5" fill="#EB937F" rx="11" ry="11" style="stroke:#181818;stroke-width:1.0;"/><path d="M3154.3594,818.2969 L3154.3594,820.7969 L3158.6875,820.7969 L3158.6875,819.875 Q3158.6875,819.2656 3158.9219,819 Q3159.1719,818.7344 3159.5469,818.7344 Q3159.9219,818.7344 3160.1563,819 Q3160.3906,819.2656 3160.3906,819.875 L3160.3906,822.5 L3152.3906,822.5 Q3151.7656,822.5 3151.5,822.2656 Q3151.25,822.0313 3151.25,821.6406 Q3151.25,821.2656 3151.5156,821.0313 Q3151.7813,820.7969 3152.3906,820.7969 L3152.6563,820.7969 L3152.6563,814.1406 L3152.3906,814.1406 Q3151.7656,814.1406 3151.5,813.9063 Q3151.25,813.6719 3151.25,813.2813 Q3151.25,812.9063 3151.5,812.6719 Q3151.7656,812.4375 3152.3906,812.4375 L3160.0156,812.4375 L3160.0156,815.0313 Q3160.0156,815.6406 3159.7813,815.9063 Q3159.5625,816.1563 3159.1719,816.1563 Q3158.7969,816.1563 3158.5625,815.9063 Q3158.3281,815.6406 3158.3281,815.0313 L3158.3281,814.1406 L3154.3594,814.1406 L3154.3594,816.5938 L3155.8438,816.5938 Q3155.8438,815.9375 3155.9688,815.75 Q3156.2344,815.3438 3156.7031,815.3438 Q3157.0781,815.3438 3157.3125,815.6094 Q3157.5469,815.8594 3157.5469,816.4688 L3157.5469,818.4375 Q3157.5469,818.9844 3157.4219,819.1719 Q3157.1563,819.5625 3156.7031,819.5625 Q3156.2344,819.5625 3155.9688,819.1563 Q3155.8438,818.9688 3155.8438,818.2969 L3154.3594,818.2969 Z " fill="#000000"/><text fill="#000000" font-family="sans-serif" font-size="14" lengthAdjust="spacing" textLength="71" x="3169.5" y="823.2285">Languages</text><line style="stroke:#181818;stroke-width:0.5;" x1="3141.5" x2="3242.5" y1="833.5" y2="833.5"/><text fill="#000000" font-family="sans-serif" font-size="14" lengthAdjust="spacing" textLength="63" x="3146.5" y="852.0332">Ukrainian,</text><text fill="#000000" font-family="sans-serif" font-size="14" lengthAdjust="spacing" textLength="50" x="3146.5" y="869.6426">English,</text><text fill="#000000" font-family="sans-serif" font-size="14" lengthAdjust="spacing" textLength="51" x="3146.5" y="887.252">Russian</text></g><!--class Order--><g id="elem_Order"><rect codeLine="231" fill="#F1F1F1" height="75.2188" id="Order" rx="2.5" ry="2.5" style="stroke:#181818;stroke-width:0.5;" width="83" x="3013.5" y="1058.5"/><ellipse cx="3034.8" cy="1074.5" fill="#EB937F" rx="11" ry="11" style="stroke:#181818;stroke-width:1.0;"/><path d="M3033.6594,1075.2969 L3033.6594,1077.7969 L3037.9875,1077.7969 L3037.9875,1076.875 Q3037.9875,1076.2656 3038.2219,1076 Q3038.4719,1075.7344 3038.8469,1075.7344 Q3039.2219,1075.7344 3039.4563,1076 Q3039.6906,1076.2656 3039.6906,1076.875 L3039.6906,1079.5 L3031.6906,1079.5 Q3031.0656,1079.5 3030.8,1079.2656 Q3030.55,1079.0313 3030.55,1078.6406 Q3030.55,1078.2656 3030.8156,1078.0313 Q3031.0813,1077.7969 3031.6906,1077.7969 L3031.9563,1077.7969 L3031.9563,1071.1406 L3031.6906,1071.1406 Q3031.0656,1071.1406 3030.8,1070.9063 Q3030.55,1070.6719 3030.55,1070.2813 Q3030.55,1069.9063 3030.8,1069.6719 Q3031.0656,1069.4375 3031.6906,1069.4375 L3039.3156,1069.4375 L3039.3156,1072.0313 Q3039.3156,1072.6406 3039.0813,1072.9063 Q3038.8625,1073.1563 3038.4719,1073.1563 Q3038.0969,1073.1563 3037.8625,1072.9063 Q3037.6281,1072.6406 3037.6281,1072.0313 L3037.6281,1071.1406 L3033.6594,1071.1406 L3033.6594,1073.5938 L3035.1438,1073.5938 Q3035.1438,1072.9375 3035.2688,1072.75 Q3035.5344,1072.3438 3036.0031,1072.3438 Q3036.3781,1072.3438 3036.6125,1072.6094 Q3036.8469,1072.8594 3036.8469,1073.4688 L3036.8469,1075.4375 Q3036.8469,1075.9844 3036.7219,1076.1719 Q3036.4563,1076.5625 3036.0031,1076.5625 Q3035.5344,1076.5625 3035.2688,1076.1563 Q3035.1438,1075.9688 3035.1438,1075.2969 L3033.6594,1075.2969 Z " fill="#000000"/><text fill="#000000" font-family="sans-serif" font-size="14" lengthAdjust="spacing" textLength="37" x="3050.2" y="1080.2285">Order</text><line style="stroke:#181818;stroke-width:0.5;" x1="3014.5" x2="3095.5" y1="1090.5" y2="1090.5"/><text fill="#000000" font-family="sans-serif" font-size="14" lengthAdjust="spacing" textLength="71" x="3019.5" y="1109.0332">Relevance,</text><text fill="#000000" font-family="sans-serif" font-size="14" lengthAdjust="spacing" textLength="55" x="3019.5" y="1126.6426">Distance</text></g><!--reverse link District to EquipmentCentre--><g id="link_District_EquipmentCentre"><path codeLine="41" d="M803.63,848.5 C815.22,848.5 815.22,848.5 826.81,848.5 " fill="none" id="District-backto-EquipmentCentre" style="stroke:#181818;stroke-width:1.0;"/><polygon fill="#181818" points="791.63,848.5,797.63,852.5,803.63,848.5,797.63,844.5,791.63,848.5" style="stroke:#181818;stroke-width:1.0;"/></g><!--reverse link EquipmentCentre to MapPoint--><g id="link_EquipmentCentre_MapPoint"><path codeLine="42" d="M981.1,848.5 C993,848.5 993.06,848.5 1004.11,848.5 " fill="none" id="EquipmentCentre-backto-MapPoint" style="stroke:#181818;stroke-width:1.0;"/><polygon fill="none" points="969.1,848.5,975.1,852.5,981.1,848.5,975.1,844.5,969.1,848.5" style="stroke:#181818;stroke-width:1.0;"/></g><!--link Abstractions to Primitives--><g id="link_Abstractions_Primitives"><path codeLine="43" d="M675.8747,615.5 C675.523,615.5 675.1622,615.5 674.7927,615.5 C673.3148,615.5 671.6986,615.5 669.9742,615.5 C663.0766,615.5 654.4469,615.5 646.0063,615.5 C629.125,615.5 613,615.5 613,615.5 C613,615.5 613,670.05 613,726.3038 C613,733.3355 613,740.3938 613,747.3756 C613,747.8119 613,742.248 613,742.6837 " fill="none" id="Abstractions-to-Primitives" style="stroke:#181818;stroke-width:1.0;"/><polygon fill="#181818" points="613,748.6837,617,739.6837,613,743.6837,609,739.6837,613,748.6837" style="stroke:#181818;stroke-width:1.0;"/></g><!--reverse link IDataProvider to WebScraper--><g id="link_IDataProvider_WebScraper"><path codeLine="57" d="M869.75,671.39 C869.75,720.67 869.75,782.5 869.75,782.5 C869.75,782.5 1071.45,782.5 1191.99,782.5 " fill="none" id="IDataProvider-backto-WebScraper" style="stroke:#181818;stroke-width:1.0;stroke-dasharray:7.0,7.0;"/><polygon fill="none" points="869.75,653.39,863.75,671.39,875.75,671.39,869.75,653.39" style="stroke:#181818;stroke-width:1.0;"/></g><!--link WebScraper to Primitives--><g id="link_WebScraper_Primitives"><path codeLine="58" d="M1191.77,914.5 C1180.44,914.5 1168.2654,914.5 1155.3961,914.5 C1148.9615,914.5 1142.3531,914.5 1135.5898,914.5 C1132.2082,914.5 1128.7878,914.5 1125.331,914.5 C1123.6026,914.5 1127.8651,914.5 1126.1188,914.5 " fill="none" id="WebScraper-to-Primitives" style="stroke:#181818;stroke-width:1.0;"/><polygon fill="#181818" points="1120.1188,914.5,1129.1188,918.5,1125.1188,914.5,1129.1188,910.5,1120.1188,914.5" style="stroke:#181818;stroke-width:1.0;"/></g><!--link WebScraper to XPathBuilder--><g id="link_WebScraper_XPathBuilder"><path codeLine="70" d="M1280,925.11 C1280,953.41 1280,979.52 1280,1008.21 " fill="none" id="WebScraper-to-XPathBuilder" style="stroke:#181818;stroke-width:1.0;"/><polygon fill="#181818" points="1280,1014.21,1284,1005.21,1280,1009.21,1276,1005.21,1280,1014.21" style="stroke:#181818;stroke-width:1.0;"/></g><!--reverse link IEquipmentCentreProvider to ApiEquipmentCentreProvider--><g id="link_IEquipmentCentreProvider_ApiEquipmentCentreProvider"><path d="M182,666.81 C182,708.25 182,761.02 182,806.09 " fill="none" id="IEquipmentCentreProvider-backto-ApiEquipmentCentreProvider" style="stroke:#181818;stroke-width:1.0;stroke-dasharray:7.0,7.0;"/><polygon fill="none" points="182,648.81,176,666.81,188,666.81,182,648.81" style="stroke:#181818;stroke-width:1.0;"/></g><!--reverse link IEquipmentCentreProvider to Main--><g id="link_IEquipmentCentreProvider_Main"><path codeLine="99" d="M287.14,632.5 C333.64,632.5 373,632.5 373,632.5 C373,632.5 373,760.11 373,818.94 " fill="none" id="IEquipmentCentreProvider-backto-Main" style="stroke:#181818;stroke-width:1.0;"/><polygon fill="#181818" points="281.14,632.5,290.14,636.5,286.14,632.5,290.14,628.5,281.14,632.5" style="stroke:#181818;stroke-width:1.0;"/></g><!--reverse link DistrictsCacheWorker to CacheSignal--><g id="link_DistrictsCacheWorker_CacheSignal"><path codeLine="121" d="M2088,1185.21 C2088,1207.35 2088,1218.52 2088,1237.14 " fill="none" id="DistrictsCacheWorker-backto-CacheSignal" style="stroke:#181818;stroke-width:1.0;"/><polygon fill="none" points="2088,1173.21,2084,1179.21,2088,1185.21,2092,1179.21,2088,1173.21" style="stroke:#181818;stroke-width:1.0;"/></g><!--reverse link IMapPointProvider to VisicomMapPointProvider--><g id="link_IMapPointProvider_VisicomMapPointProvider"><path codeLine="141" d="M1114.01,615.5 C1380.46,615.5 2257,615.5 2257,615.5 C2257,615.5 2257,719.84 2257,788.73 " fill="none" id="IMapPointProvider-backto-VisicomMapPointProvider" style="stroke:#181818;stroke-width:1.0;stroke-dasharray:7.0,7.0;"/><polygon fill="none" points="1096.01,615.5,1114.01,621.5,1114.01,609.5,1096.01,615.5" style="stroke:#181818;stroke-width:1.0;"/></g><!--link IEquipmentCentreService to DistrictsController--><g id="link_IEquipmentCentreService_DistrictsController"><path codeLine="150" d="M1899.25,889.82 C1899.25,904.08 1899.25,916.5 1899.25,916.5 C1899.25,916.5 2297,916.5 2297,916.5 C2297,916.5 2297,979.97 2297,1033.04 " fill="none" id="IEquipmentCentreService-to-DistrictsController" style="stroke:#181818;stroke-width:1.0;"/><polygon fill="none" points="2297,1045.04,2301,1039.04,2297,1033.04,2293,1039.04,2297,1045.04" style="stroke:#181818;stroke-width:1.0;"/></g><!--link IEquipmentCentreService to DistrictsCacheWorker--><g id="link_IEquipmentCentreService_DistrictsCacheWorker"><path codeLine="151" d="M1851,889.59 C1851,941.49 1851,1023.5 1851,1023.5 C1851,1023.5 1931.17,1023.5 2003.35,1023.5 " fill="none" id="IEquipmentCentreService-to-DistrictsCacheWorker" style="stroke:#181818;stroke-width:1.0;"/><polygon fill="none" points="2015.35,1023.5,2009.35,1019.5,2003.35,1023.5,2009.35,1027.5,2015.35,1023.5" style="stroke:#181818;stroke-width:1.0;"/></g><!--reverse link IEquipmentCentreService to VisicomEquipmentCentreService--><g id="link_IEquipmentCentreService_VisicomEquipmentCentreService"><path d="M1736.37,848.5 C1668.03,848.5 1606.5,848.5 1606.5,848.5 C1606.5,848.5 1606.5,963.5 1606.5,1036.72 " fill="none" id="IEquipmentCentreService-backto-VisicomEquipmentCentreService" style="stroke:#181818;stroke-width:1.0;stroke-dasharray:7.0,7.0;"/><polygon fill="none" points="1754.37,848.5,1736.37,842.5,1736.37,854.5,1754.37,848.5" style="stroke:#181818;stroke-width:1.0;"/></g><!--reverse link IEquipmentCentreService to CachedEquipmentCentreService--><g id="link_IEquipmentCentreService_CachedEquipmentCentreService"><path d="M1802.75,907.51 C1802.75,945.15 1802.75,983.36 1802.75,1027.63 " fill="none" id="IEquipmentCentreService-backto-CachedEquipmentCentreService" style="stroke:#181818;stroke-width:1.0;stroke-dasharray:7.0,7.0;"/><polygon fill="none" points="1802.75,889.51,1796.75,907.51,1808.75,907.51,1802.75,889.51" style="stroke:#181818;stroke-width:1.0;"/></g><!--reverse link Abstractions to VisicomEquipmentCentreService--><g id="link_Abstractions_VisicomEquipmentCentreService"><path codeLine="167" d="M1126.5744,668.5 C1133.1578,668.5 1138.6735,668.5 1145.2376,668.5 C1158.3658,668.5 1171.4425,668.5 1184.4163,668.5 C1210.3638,668.5 1235.8994,668.5 1260.6113,668.5 C1310.0352,668.5 1356.1641,668.5 1395.7031,668.5 C1474.7813,668.5 1527.5,668.5 1527.5,668.5 C1527.5,668.5 1527.5,919.09 1527.5,1036.56 " fill="none" id="Abstractions-backto-VisicomEquipmentCentreService" style="stroke:#181818;stroke-width:1.0;"/><polygon fill="#181818" points="1120.5744,668.5,1129.5744,672.5,1125.5744,668.5,1129.5744,664.5,1120.5744,668.5" style="stroke:#181818;stroke-width:1.0;"/></g><!--link CachedEquipmentCentreService to CacheSignal--><g id="link_CachedEquipmentCentreService_CacheSignal"><path codeLine="170" d="M1840,1164.12 C1840,1214.9 1840,1275.5 1840,1275.5 C1840,1275.5 1946.93,1275.5 2020.38,1275.5 " fill="none" id="CachedEquipmentCentreService-to-CacheSignal" style="stroke:#181818;stroke-width:1.0;"/><polygon fill="#181818" points="2026.38,1275.5,2017.38,1271.5,2021.38,1275.5,2017.38,1279.5,2026.38,1275.5" style="stroke:#181818;stroke-width:1.0;"/></g><!--reverse link Response to GeoCentroid--><g id="link_Response_GeoCentroid"><path codeLine="212" d="M2803.25,876.27 C2803.25,921.32 2803.25,1035.26 2803.25,1079.99 " fill="none" id="Response-backto-GeoCentroid" style="stroke:#181818;stroke-width:1.0;"/><polygon fill="none" points="2803.25,864.27,2799.25,870.27,2803.25,876.27,2807.25,870.27,2803.25,864.27" style="stroke:#181818;stroke-width:1.0;"/></g><!--reverse link Response to Properties--><g id="link_Response_Properties"><path codeLine="213" d="M2737.75,876.27 C2737.75,921.32 2737.75,1035.26 2737.75,1079.99 " fill="none" id="Response-backto-Properties" style="stroke:#181818;stroke-width:1.0;"/><polygon fill="none" points="2737.75,864.27,2733.75,870.27,2737.75,876.27,2741.75,870.27,2737.75,864.27" style="stroke:#181818;stroke-width:1.0;"/></g><!--reverse link GeoCentroid to Coordinates--><g id="link_GeoCentroid_Coordinates"><path codeLine="214" d="M2840,1124.2 C2840,1158.28 2840,1225.03 2840,1258.96 " fill="none" id="GeoCentroid-backto-Coordinates" style="stroke:#181818;stroke-width:1.0;"/><polygon fill="none" points="2840,1112.2,2836,1118.2,2840,1124.2,2844,1118.2,2840,1112.2" style="stroke:#181818;stroke-width:1.0;"/></g><!--reverse link IGeocoder to BasicGeocoder--><g id="link_IGeocoder_BasicGeocoder"><path d="M2706.5,310.76 C2706.5,376.68 2706.5,473.98 2706.5,547.43 " fill="none" id="IGeocoder-backto-BasicGeocoder" style="stroke:#181818;stroke-width:1.0;stroke-dasharray:7.0,7.0;"/><polygon fill="none" points="2706.5,292.76,2700.5,310.76,2712.5,310.76,2706.5,292.76" style="stroke:#181818;stroke-width:1.0;"/></g><!--reverse link IRequestOptions to RequestOptions--><g id="link_IRequestOptions_RequestOptions"><path d="M2915.33,416.23 C2915.33,484.6 2915.33,540.57 2915.33,582.16 " fill="none" id="IRequestOptions-backto-RequestOptions" style="stroke:#181818;stroke-width:1.0;stroke-dasharray:7.0,7.0;"/><polygon fill="none" points="2915.33,398.23,2909.33,416.23,2921.33,416.23,2915.33,398.23" style="stroke:#181818;stroke-width:1.0;"/></g><!--reverse link RequestOptions to Enums--><g id="link_RequestOptions_Enums"><path codeLine="249" d="M2969,660.81 C2969,676.38 2969,684.0919 2969,705.0261 C2969,715.4932 2969,726.2659 2969,736.9792 C2969,742.3359 2969,747.6777 2969,752.9591 C2969,754.2795 2969,755.596 2969,756.9081 " fill="none" id="RequestOptions-backto-Enums" style="stroke:#181818;stroke-width:1.0;"/><polygon fill="none" points="2969,648.81,2965,654.81,2969,660.81,2973,654.81,2969,648.81" style="stroke:#181818;stroke-width:1.0;"/></g><!--link BasicGeocoder to Data--><g id="link_BasicGeocoder_Data"><path codeLine="250" d="M2627,683.69 C2627,716.38 2627,755.23 2627,786.9438 C2627,787.1915 2627,781.4388 2627,781.6857 " fill="none" id="BasicGeocoder-to-Data" style="stroke:#181818;stroke-width:1.0;"/><polygon fill="#181818" points="2627,787.6857,2631,778.6857,2627,782.6857,2623,778.6857,2627,787.6857" style="stroke:#181818;stroke-width:1.0;"/></g><!--link IRequestOptions to BasicGeocoder--><g id="link_IRequestOptions_BasicGeocoder"><path codeLine="251" d="M2868.67,398.06 C2868.67,480.79 2868.67,565.5 2868.67,565.5 C2868.67,565.5 2839.89,565.5 2798.32,565.5 " fill="none" id="IRequestOptions-to-BasicGeocoder" style="stroke:#181818;stroke-width:1.0;"/><polygon fill="none" points="2786.32,565.5,2792.32,569.5,2798.32,565.5,2792.32,561.5,2786.32,565.5" style="stroke:#181818;stroke-width:1.0;"/></g><!--reverse link BasicGeocoder to VisicomMapPointProvider--><g id="link_BasicGeocoder_VisicomMapPointProvider"><path codeLine="252" d="M2619,701.55 C2619,752.52 2619,795.5 2619,795.5 C2619,795.5 2460.3,795.5 2353.06,795.5 " fill="none" id="BasicGeocoder-backto-VisicomMapPointProvider" style="stroke:#181818;stroke-width:1.0;"/><polygon fill="none" points="2619,683.55,2613,701.55,2625,701.55,2619,683.55" style="stroke:#181818;stroke-width:1.0;"/></g><!--SRC=[jLXjRziu3FwUNs7WFcoxpEaVA0faMJ04rsr5qgs7-wRQR2BKjdoI73Heyz-FSc9RhxPpTmkmOHCfatpuaA8adcbH4axoAAC5o4C94UDonoObIPx95Y9HSYOF-voKazT9XBz6iDaH3cczT1BemlcZa9maah92jC9EJVrsD8NeYKAM2cET5XBu4qaWMdqcajnnjaTDRkYONrA_Bo2NVrUqpA6G2_p3OIuEHVB-WqzpdcMVAJf84obyQiUGGrz9USVm_-ETgjNxRHmTzEuupQcaU-Z5BWVCamKU1bKbCcgY6_1lkahTjMya1tVL0bVqu7NsmTenvCezbPd7xgfuOZmdYaYky9Ob0KaD-x2FJJw7dBj5Cx9AmUT2iNL5lkGsEOb-ZuFOMEiHYrqNzTAAulX6PykaCzcMwQb-LyKFiaauAS-axO9CCY94z02FkjZ58Tv9MIuo2XPQqrSX4PtakE1095WiHtn8gihOLm9JgnGzOfjsmogQHeUzqKcYwxUP5c_KQcbh9gmcL7_U4RdxLD4i3OBLOD8cNHLLlS-lPiNWb618KLN7A4LlfOIK5LZzuVI4eYVKLElIKRSl7KQdb-cfm5mua9iSH-rvMPvvxNJJ3V0zJOAzL6ll5WxZk_m5fyc9G_EI1en5D2ypKElYtpeKAjMcOaPwwpcNyAyGZEUu7bdLrqsFxZ5MRq42v8_0XUUJNmajXWB69ZbaHdt6ePdM8KBfk8xZpWM7TcTk1QQW1yQVzQ1yY2r8ieCDtHOakxw_6Jg87WYLeS5ckeOCY81U-jLOQ3QR2SpZMKkJMlqKor0YX8Q78KWwawuGay_ueJRZ2ZEstLg6wsWtal0W5hyjNo2f90pNeozAF7TZ7QIUabWmP0lBig4qTsRQ3KDOWid8JG1QLT7lFqHl4IdfLMl6gzQSaBRorUlnAgbb-AyBfjHJYVG7_fCAch3SdfoZ_z33OexGW93VI_D-CKYPSVDutGuSVt5ec0q7S_p_JXzVlYy_VCRVZIm0_DxWQSm6kHmegQgCHmLfy2RWHiyXEGwtE0tTBKyTgU-YD-eS3OodOmU46hhqbqMV-7jjRvVkgQfVWuHnqr7dS2ydZAtlx97_qjrk_L_qXTxquK3hFrpECyPn8a160jIxZ6GyAbW1xNlCsOTPVQagwUmBi8GfXfglCxQQyo3JaK9hGUt7_DJPGDDphRofiuKndj82hu3zGZljHvyVQt-3Dxt1iFw0Wx5qIufjXU5RkP2mPPnQZnRBboJ3Utj0UWylvi63RInr5hy1uSx2cgIqCh_sdTizPAM25L0dP8utPzDZxAiuSWf7y1TZkHcmkgDQUolasc71h2S9RHrljXYmF5WvC8VRzXBuEh5UdSn1_VoIiWPHOgh0NiVwmKkSrE4zIv1hTLamcjeYZIwjg35GpsQ-lOQ2nwosvpJVMKRCy9T5bGj__EOL0b3HHp6JgojvBlwFPbAmYoCF3kOgvaTW9BFPp5CbjRs6vo5pFvuvyeUImlpmijXcLEpCnNKb16g6J9dKDSse2yUU57PKwZHGgrv-dOwtJmJRKzDjZFFCQ46TkT3CvviJfzu-DGqsgMcuG-a-cqt9SDhJhphNCO_Op9sk5ZNvFTcmX8gX7GTDkDIBI5kUzbTnFZEqQwNGtAfcihSRQyDnyWy0]--></g></svg>