<?xml version="1.0" encoding="us-ascii" standalone="no"?><svg xmlns="http://www.w3.org/2000/svg" xmlns:xlink="http://www.w3.org/1999/xlink" contentStyleType="text/css" height="1198px" preserveAspectRatio="none" style="width:3099px;height:1198px;background:#FFFFFF;" version="1.1" viewBox="0 0 3099 1198" width="3099px" zoomAndPan="magnify"><defs/><g><!--cluster sprotyvmap--><g id="cluster_sprotyvmap"><path d="M8.5,63 L91.5,63 A3.75,3.75 0 0 1 94,65.5 L101,86.6094 L2352.5,86.6094 A2.5,2.5 0 0 1 2355,89.1094 L2355,1085 A2.5,2.5 0 0 1 2352.5,1087.5 L8.5,1087.5 A2.5,2.5 0 0 1 6,1085 L6,65.5 A2.5,2.5 0 0 1 8.5,63 " fill="none" style="stroke:#000000;stroke-width:1.5;"/><line style="stroke:#000000;stroke-width:1.5;" x1="6" x2="101" y1="86.6094" y2="86.6094"/><text fill="#000000" font-family="sans-serif" font-size="14" font-weight="bold" lengthAdjust="spacing" textLength="82" x="10" y="79.5332">sprotyvmap</text></g><!--cluster Shared--><g id="cluster_Shared"><path d="M1078.5,107 L1129.5,107 A3.75,3.75 0 0 1 1132,109.5 L1139,130.6094 L2034.5,130.6094 A2.5,2.5 0 0 1 2037,133.1094 L2037,334.5 A2.5,2.5 0 0 1 2034.5,337 L1078.5,337 A2.5,2.5 0 0 1 1076,334.5 L1076,109.5 A2.5,2.5 0 0 1 1078.5,107 " fill="none" style="stroke:#000000;stroke-width:1.5;"/><line style="stroke:#000000;stroke-width:1.5;" x1="1076" x2="1139" y1="130.6094" y2="130.6094"/><text fill="#000000" font-family="sans-serif" font-size="14" font-weight="bold" lengthAdjust="spacing" textLength="50" x="1080" y="123.5332">Shared</text></g><!--cluster Abstractions--><g id="cluster_Abstractions"><path d="M1606.5,168.5 L1695.5,168.5 A3.75,3.75 0 0 1 1698,171 L1705,192.1094 L2010.5,192.1094 A2.5,2.5 0 0 1 2013,194.6094 L2013,293 A2.5,2.5 0 0 1 2010.5,295.5 L1606.5,295.5 A2.5,2.5 0 0 1 1604,293 L1604,171 A2.5,2.5 0 0 1 1606.5,168.5 " fill="none" style="stroke:#000000;stroke-width:1.5;"/><line style="stroke:#000000;stroke-width:1.5;" x1="1604" x2="1705" y1="192.1094" y2="192.1094"/><text fill="#000000" font-family="sans-serif" font-size="14" font-weight="bold" lengthAdjust="spacing" textLength="88" x="1608" y="185.0332">Abstractions</text></g><!--cluster Primitives--><g id="cluster_Primitives"><path d="M1102.5,151 L1173.5,151 A3.75,3.75 0 0 1 1176,153.5 L1183,174.6094 L1577.5,174.6094 A2.5,2.5 0 0 1 1580,177.1094 L1580,310.5 A2.5,2.5 0 0 1 1577.5,313 L1102.5,313 A2.5,2.5 0 0 1 1100,310.5 L1100,153.5 A2.5,2.5 0 0 1 1102.5,151 " fill="none" style="stroke:#000000;stroke-width:1.5;"/><line style="stroke:#000000;stroke-width:1.5;" x1="1100" x2="1183" y1="174.6094" y2="174.6094"/><text fill="#000000" font-family="sans-serif" font-size="14" font-weight="bold" lengthAdjust="spacing" textLength="70" x="1104" y="167.5332">Primitives</text></g><!--cluster SprotyvInUaScraper--><g id="cluster_SprotyvInUaScraper"><path d="M575.5,129 L716.5,129 A3.75,3.75 0 0 1 719,131.5 L726,152.6094 L778.5,152.6094 A2.5,2.5 0 0 1 781,155.1094 L781,672 A2.5,2.5 0 0 1 778.5,674.5 L575.5,674.5 A2.5,2.5 0 0 1 573,672 L573,131.5 A2.5,2.5 0 0 1 575.5,129 " fill="none" style="stroke:#000000;stroke-width:1.5;"/><line style="stroke:#000000;stroke-width:1.5;" x1="573" x2="726" y1="152.6094" y2="152.6094"/><text fill="#000000" font-family="sans-serif" font-size="14" font-weight="bold" lengthAdjust="spacing" textLength="140" x="577" y="145.5332">SprotyvInUaScraper</text></g><!--cluster WebApp--><g id="cluster_WebApp"><path d="M32.5,129 L91.5,129 A3.75,3.75 0 0 1 94,131.5 L101,152.6094 L546.5,152.6094 A2.5,2.5 0 0 1 549,155.1094 L549,656 A2.5,2.5 0 0 1 546.5,658.5 L32.5,658.5 A2.5,2.5 0 0 1 30,656 L30,131.5 A2.5,2.5 0 0 1 32.5,129 " fill="none" style="stroke:#000000;stroke-width:1.5;"/><line style="stroke:#000000;stroke-width:1.5;" x1="30" x2="101" y1="152.6094" y2="152.6094"/><text fill="#000000" font-family="sans-serif" font-size="14" font-weight="bold" lengthAdjust="spacing" textLength="58" x="34" y="145.5332">WebApp</text></g><!--cluster Services--><g id="cluster_Services"><path d="M56.5,173 L119.5,173 A3.75,3.75 0 0 1 122,175.5 L129,196.6094 L299.5,196.6094 A2.5,2.5 0 0 1 302,199.1094 L302,632 A2.5,2.5 0 0 1 299.5,634.5 L56.5,634.5 A2.5,2.5 0 0 1 54,632 L54,175.5 A2.5,2.5 0 0 1 56.5,173 " fill="none" style="stroke:#000000;stroke-width:1.5;"/><line style="stroke:#000000;stroke-width:1.5;" x1="54" x2="129" y1="196.6094" y2="196.6094"/><text fill="#000000" font-family="sans-serif" font-size="14" font-weight="bold" lengthAdjust="spacing" textLength="62" x="58" y="189.5332">Services</text></g><!--cluster Pages--><g id="cluster_Pages"><path d="M328.5,512 L372.5,512 A3.75,3.75 0 0 1 375,514.5 L382,535.6094 L522.5,535.6094 A2.5,2.5 0 0 1 525,538.1094 L525,619.5 A2.5,2.5 0 0 1 522.5,622 L328.5,622 A2.5,2.5 0 0 1 326,619.5 L326,514.5 A2.5,2.5 0 0 1 328.5,512 " fill="none" style="stroke:#000000;stroke-width:1.5;"/><line style="stroke:#000000;stroke-width:1.5;" x1="326" x2="382" y1="535.6094" y2="535.6094"/><text fill="#000000" font-family="sans-serif" font-size="14" font-weight="bold" lengthAdjust="spacing" textLength="43" x="330" y="528.5332">Pages</text></g><!--cluster WebService--><g id="cluster_WebService"><path d="M807.5,438 L893.5,438 A3.75,3.75 0 0 1 896,440.5 L903,461.6094 L2328.5,461.6094 A2.5,2.5 0 0 1 2331,464.1094 L2331,1061 A2.5,2.5 0 0 1 2328.5,1063.5 L807.5,1063.5 A2.5,2.5 0 0 1 805,1061 L805,440.5 A2.5,2.5 0 0 1 807.5,438 " fill="none" style="stroke:#000000;stroke-width:1.5;"/><line style="stroke:#000000;stroke-width:1.5;" x1="805" x2="903" y1="461.6094" y2="461.6094"/><text fill="#000000" font-family="sans-serif" font-size="14" font-weight="bold" lengthAdjust="spacing" textLength="85" x="809" y="454.5332">WebService</text></g><!--cluster Providers--><g id="cluster_Providers"><path d="M2085.5,482 L2155.5,482 A3.75,3.75 0 0 1 2158,484.5 L2165,505.6094 L2304.5,505.6094 A2.5,2.5 0 0 1 2307,508.1094 L2307,649.5 A2.5,2.5 0 0 1 2304.5,652 L2085.5,652 A2.5,2.5 0 0 1 2083,649.5 L2083,484.5 A2.5,2.5 0 0 1 2085.5,482 " fill="none" style="stroke:#000000;stroke-width:1.5;"/><line style="stroke:#000000;stroke-width:1.5;" x1="2083" x2="2165" y1="505.6094" y2="505.6094"/><text fill="#000000" font-family="sans-serif" font-size="14" font-weight="bold" lengthAdjust="spacing" textLength="69" x="2087" y="498.5332">Providers</text></g><!--cluster Services--><g id="cluster_Services"><path d="M1371.5,499.5 L1434.5,499.5 A3.75,3.75 0 0 1 1437,502 L1444,523.1094 L2056.5,523.1094 A2.5,2.5 0 0 1 2059,525.6094 L2059,893 A2.5,2.5 0 0 1 2056.5,895.5 L1371.5,895.5 A2.5,2.5 0 0 1 1369,893 L1369,502 A2.5,2.5 0 0 1 1371.5,499.5 " fill="none" style="stroke:#000000;stroke-width:1.5;"/><line style="stroke:#000000;stroke-width:1.5;" x1="1369" x2="1444" y1="523.1094" y2="523.1094"/><text fill="#000000" font-family="sans-serif" font-size="14" font-weight="bold" lengthAdjust="spacing" textLength="62" x="1373" y="516.0332">Services</text></g><!--cluster Controllers--><g id="cluster_Controllers"><path d="M831.5,725 L911.5,725 A3.75,3.75 0 0 1 914,727.5 L921,748.6094 L1116.5,748.6094 A2.5,2.5 0 0 1 1119,751.1094 L1119,875.5 A2.5,2.5 0 0 1 1116.5,878 L831.5,878 A2.5,2.5 0 0 1 829,875.5 L829,727.5 A2.5,2.5 0 0 1 831.5,725 " fill="none" style="stroke:#000000;stroke-width:1.5;"/><line style="stroke:#000000;stroke-width:1.5;" x1="829" x2="921" y1="748.6094" y2="748.6094"/><text fill="#000000" font-family="sans-serif" font-size="14" font-weight="bold" lengthAdjust="spacing" textLength="79" x="833" y="741.5332">Controllers</text></g><!--cluster Workers--><g id="cluster_Workers"><path d="M1145.5,698.5 L1205.5,698.5 A3.75,3.75 0 0 1 1208,701 L1215,722.1094 L1342.5,722.1094 A2.5,2.5 0 0 1 1345,724.6094 L1345,1037 A2.5,2.5 0 0 1 1342.5,1039.5 L1145.5,1039.5 A2.5,2.5 0 0 1 1143,1037 L1143,701 A2.5,2.5 0 0 1 1145.5,698.5 " fill="none" style="stroke:#000000;stroke-width:1.5;"/><line style="stroke:#000000;stroke-width:1.5;" x1="1143" x2="1215" y1="722.1094" y2="722.1094"/><text fill="#000000" font-family="sans-serif" font-size="14" font-weight="bold" lengthAdjust="spacing" textLength="59" x="1147" y="715.0332">Workers</text></g><!--cluster Visicom.DataApi.Geocoder--><g id="cluster_Visicom.DataApi.Geocoder"><path d="M2381.5,6 L2567.5,6 A3.75,3.75 0 0 1 2570,8.5 L2577,29.6094 L3089.5,29.6094 A2.5,2.5 0 0 1 3092,32.1094 L3092,1189 A2.5,2.5 0 0 1 3089.5,1191.5 L2381.5,1191.5 A2.5,2.5 0 0 1 2379,1189 L2379,8.5 A2.5,2.5 0 0 1 2381.5,6 " fill="none" style="stroke:#000000;stroke-width:1.5;"/><line style="stroke:#000000;stroke-width:1.5;" x1="2379" x2="2577" y1="29.6094" y2="29.6094"/><text fill="#000000" font-family="sans-serif" font-size="14" font-weight="bold" lengthAdjust="spacing" textLength="185" x="2383" y="22.5332">Visicom.DataApi.Geocoder</text></g><!--cluster Visicom.DataApi.Abstractions--><g id="cluster_Visicom.DataApi.Abstractions"><path d="M2405.5,50 L2609.5,50 A3.75,3.75 0 0 1 2612,52.5 L2619,73.6094 L2767.5,73.6094 A2.5,2.5 0 0 1 2770,76.1094 L2770,411.5 A2.5,2.5 0 0 1 2767.5,414 L2405.5,414 A2.5,2.5 0 0 1 2403,411.5 L2403,52.5 A2.5,2.5 0 0 1 2405.5,50 " fill="none" style="stroke:#000000;stroke-width:1.5;"/><line style="stroke:#000000;stroke-width:1.5;" x1="2403" x2="2619" y1="73.6094" y2="73.6094"/><text fill="#000000" font-family="sans-serif" font-size="14" font-weight="bold" lengthAdjust="spacing" textLength="203" x="2407" y="66.5332">Visicom.DataApi.Abstractions</text></g><!--cluster Data--><g id="cluster_Data"><path d="M2413.5,751.5 L2445.5,751.5 A3.75,3.75 0 0 1 2448,754 L2455,775.1094 L2710.5,775.1094 A2.5,2.5 0 0 1 2713,777.6094 L2713,1157 A2.5,2.5 0 0 1 2710.5,1159.5 L2413.5,1159.5 A2.5,2.5 0 0 1 2411,1157 L2411,754 A2.5,2.5 0 0 1 2413.5,751.5 " fill="none" style="stroke:#000000;stroke-width:1.5;"/><line style="stroke:#000000;stroke-width:1.5;" x1="2411" x2="2455" y1="775.1094" y2="775.1094"/><text fill="#000000" font-family="sans-serif" font-size="14" font-weight="bold" lengthAdjust="spacing" textLength="31" x="2415" y="768.0332">Data</text></g><!--cluster Enums--><g id="cluster_Enums"><path d="M2755.5,721 L2803.5,721 A3.75,3.75 0 0 1 2806,723.5 L2813,744.6094 L3057.5,744.6094 A2.5,2.5 0 0 1 3060,747.1094 L3060,1045 A2.5,2.5 0 0 1 3057.5,1047.5 L2755.5,1047.5 A2.5,2.5 0 0 1 2753,1045 L2753,723.5 A2.5,2.5 0 0 1 2755.5,721 " fill="none" style="stroke:#000000;stroke-width:1.5;"/><line style="stroke:#000000;stroke-width:1.5;" x1="2753" x2="2813" y1="744.6094" y2="744.6094"/><text fill="#000000" font-family="sans-serif" font-size="14" font-weight="bold" lengthAdjust="spacing" textLength="47" x="2757" y="737.5332">Enums</text></g><!--class IDataProvider--><g id="elem_IDataProvider"><rect codeLine="9" fill="#F1F1F1" height="75.2188" id="IDataProvider" rx="2.5" ry="2.5" style="stroke:#181818;stroke-width:0.5;" width="193" x="1620.5" y="204.5"/><ellipse cx="1669.75" cy="220.5" fill="#B4A7E5" rx="11" ry="11" style="stroke:#181818;stroke-width:1.0;"/><path d="M1670.7031,217.1406 L1670.7031,223.7969 L1672.4219,223.7969 Q1673.0313,223.7969 1673.2969,224.0313 Q1673.5625,224.2656 1673.5625,224.6563 Q1673.5625,225.0313 1673.2969,225.2656 Q1673.0313,225.5 1672.4219,225.5 L1667.2813,225.5 Q1666.6719,225.5 1666.4063,225.2656 Q1666.1406,225.0313 1666.1406,224.6406 Q1666.1406,224.2656 1666.4063,224.0313 Q1666.6719,223.7969 1667.2813,223.7969 L1669,223.7969 L1669,217.1406 L1667.2813,217.1406 Q1666.6719,217.1406 1666.4063,216.9063 Q1666.1406,216.6719 1666.1406,216.2813 Q1666.1406,215.9063 1666.4063,215.6719 Q1666.6719,215.4375 1667.2813,215.4375 L1672.4219,215.4375 Q1673.0313,215.4375 1673.2969,215.6719 Q1673.5625,215.9063 1673.5625,216.2813 Q1673.5625,216.6719 1673.2969,216.9063 Q1673.0313,217.1406 1672.4219,217.1406 L1670.7031,217.1406 Z " fill="#000000"/><text fill="#000000" font-family="sans-serif" font-size="14" font-style="italic" lengthAdjust="spacing" textLength="86" x="1690.25" y="226.2285">IDataProvider</text><line style="stroke:#181818;stroke-width:0.5;" x1="1621.5" x2="1812.5" y1="236.5" y2="236.5"/><text fill="#000000" font-family="sans-serif" font-size="14" lengthAdjust="spacing" textLength="181" x="1626.5" y="255.0332">GetEquipmentCentreAsync()</text><text fill="#000000" font-family="sans-serif" font-size="14" lengthAdjust="spacing" textLength="136" x="1626.5" y="272.6426">GetAllDistrictsAsync()</text></g><!--class IMapPointProvider--><g id="elem_IMapPointProvider"><rect codeLine="14" fill="#F1F1F1" height="57.6094" id="IMapPointProvider" rx="2.5" ry="2.5" style="stroke:#181818;stroke-width:0.5;" width="148" x="1849" y="213"/><ellipse cx="1864" cy="229" fill="#B4A7E5" rx="11" ry="11" style="stroke:#181818;stroke-width:1.0;"/><path d="M1864.9531,225.6406 L1864.9531,232.2969 L1866.6719,232.2969 Q1867.2813,232.2969 1867.5469,232.5313 Q1867.8125,232.7656 1867.8125,233.1563 Q1867.8125,233.5313 1867.5469,233.7656 Q1867.2813,234 1866.6719,234 L1861.5313,234 Q1860.9219,234 1860.6563,233.7656 Q1860.3906,233.5313 1860.3906,233.1406 Q1860.3906,232.7656 1860.6563,232.5313 Q1860.9219,232.2969 1861.5313,232.2969 L1863.25,232.2969 L1863.25,225.6406 L1861.5313,225.6406 Q1860.9219,225.6406 1860.6563,225.4063 Q1860.3906,225.1719 1860.3906,224.7813 Q1860.3906,224.4063 1860.6563,224.1719 Q1860.9219,223.9375 1861.5313,223.9375 L1866.6719,223.9375 Q1867.2813,223.9375 1867.5469,224.1719 Q1867.8125,224.4063 1867.8125,224.7813 Q1867.8125,225.1719 1867.5469,225.4063 Q1867.2813,225.6406 1866.6719,225.6406 L1864.9531,225.6406 Z " fill="#000000"/><text fill="#000000" font-family="sans-serif" font-size="14" font-style="italic" lengthAdjust="spacing" textLength="116" x="1878" y="234.7285">IMapPointProvider</text><line style="stroke:#181818;stroke-width:0.5;" x1="1850" x2="1996" y1="245" y2="245"/><text fill="#000000" font-family="sans-serif" font-size="14" lengthAdjust="spacing" textLength="103" x="1855" y="263.5332">GetPointAsync()</text></g><!--class District--><g id="elem_District"><rect codeLine="22" fill="#F1F1F1" height="92.8281" id="District" rx="2.5" ry="2.5" style="stroke:#181818;stroke-width:0.5;" width="143" x="1116.5" y="195.5"/><ellipse cx="1162.25" cy="211.5" fill="#F1F1F1" rx="11" ry="11" style="stroke:#181818;stroke-width:1.0;"/><path d="M1160.3594,216.0625 Q1160.1406,216.3281 1160,216.4063 Q1159.8594,216.4844 1159.6719,216.4844 Q1159.2813,216.4844 1159.0313,216.2188 Q1158.7969,215.9531 1158.7969,215.3594 L1158.7969,214.2031 Q1158.7969,213.5938 1159.0313,213.3438 Q1159.2813,213.0781 1159.6719,213.0781 Q1159.9688,213.0781 1160.1719,213.2344 Q1160.375,213.3906 1160.4844,213.7656 Q1160.5938,214.125 1160.7031,214.2656 Q1160.9531,214.5156 1161.5625,214.7813 Q1162.1719,215.0469 1162.9063,215.0469 Q1164.0469,215.0469 1164.7656,214.5156 Q1165.2344,214.1875 1165.2344,213.7188 Q1165.2344,213.4063 1165.0156,213.125 Q1164.7969,212.8438 1164.2813,212.6719 Q1163.9531,212.5469 1162.7969,212.3281 Q1161.4063,212.0625 1160.6875,211.7031 Q1159.9688,211.3438 1159.5469,210.6875 Q1159.1406,210.0156 1159.1406,209.2344 Q1159.1406,208.0156 1160.1563,207.1094 Q1161.1875,206.1875 1162.8281,206.1875 Q1163.4844,206.1875 1164.0313,206.3281 Q1164.5938,206.4688 1165.0625,206.7656 Q1165.3906,206.4531 1165.7188,206.4531 Q1166.0938,206.4531 1166.3281,206.7188 Q1166.5625,206.9688 1166.5625,207.5781 L1166.5625,208.8594 Q1166.5625,209.4688 1166.3281,209.7344 Q1166.0938,209.9844 1165.7188,209.9844 Q1165.4063,209.9844 1165.1719,209.7969 Q1164.9844,209.6563 1164.8906,209.2344 Q1164.8125,208.8125 1164.6719,208.625 Q1164.4219,208.3125 1163.9375,208.1094 Q1163.4688,207.8906 1162.8281,207.8906 Q1161.9063,207.8906 1161.375,208.3125 Q1160.8438,208.7344 1160.8438,209.2031 Q1160.8438,209.5156 1161.0625,209.8125 Q1161.2813,210.1094 1161.7031,210.2813 Q1161.9844,210.3906 1163.2813,210.6563 Q1164.5938,210.9063 1165.2969,211.2188 Q1166,211.5156 1166.4688,212.1719 Q1166.9375,212.8281 1166.9375,213.7344 Q1166.9375,215 1166.0469,215.75 Q1164.8594,216.75 1163.0313,216.75 Q1162.3281,216.75 1161.6563,216.5781 Q1161,216.4063 1160.3594,216.0625 Z " fill="#000000"/><text fill="#000000" font-family="sans-serif" font-size="14" lengthAdjust="spacing" textLength="43" x="1182.75" y="217.2285">District</text><line style="stroke:#181818;stroke-width:0.5;" x1="1117.5" x2="1258.5" y1="227.5" y2="227.5"/><ellipse cx="1127.5" cy="241.8047" fill="none" rx="3" ry="3" style="stroke:#038048;stroke-width:1.0;"/><text fill="#000000" font-family="sans-serif" font-size="14" lengthAdjust="spacing" textLength="11" x="1136.5" y="246.0332">Id</text><ellipse cx="1127.5" cy="259.4141" fill="none" rx="3" ry="3" style="stroke:#038048;stroke-width:1.0;"/><text fill="#000000" font-family="sans-serif" font-size="14" lengthAdjust="spacing" textLength="36" x="1136.5" y="263.6426">Name</text><ellipse cx="1127.5" cy="277.0234" fill="none" rx="3" ry="3" style="stroke:#038048;stroke-width:1.0;"/><text fill="#000000" font-family="sans-serif" font-size="14" lengthAdjust="spacing" textLength="117" x="1136.5" y="281.252">EquipmentCentres</text></g><!--class EquipmentCentre--><g id="elem_EquipmentCentre"><rect codeLine="28" fill="#F1F1F1" height="110.4375" id="EquipmentCentre" rx="2.5" ry="2.5" style="stroke:#181818;stroke-width:0.5;" width="142" x="1295" y="187"/><ellipse cx="1310" cy="203" fill="#F1F1F1" rx="11" ry="11" style="stroke:#181818;stroke-width:1.0;"/><path d="M1308.1094,207.5625 Q1307.8906,207.8281 1307.75,207.9063 Q1307.6094,207.9844 1307.4219,207.9844 Q1307.0313,207.9844 1306.7813,207.7188 Q1306.5469,207.4531 1306.5469,206.8594 L1306.5469,205.7031 Q1306.5469,205.0938 1306.7813,204.8438 Q1307.0313,204.5781 1307.4219,204.5781 Q1307.7188,204.5781 1307.9219,204.7344 Q1308.125,204.8906 1308.2344,205.2656 Q1308.3438,205.625 1308.4531,205.7656 Q1308.7031,206.0156 1309.3125,206.2813 Q1309.9219,206.5469 1310.6563,206.5469 Q1311.7969,206.5469 1312.5156,206.0156 Q1312.9844,205.6875 1312.9844,205.2188 Q1312.9844,204.9063 1312.7656,204.625 Q1312.5469,204.3438 1312.0313,204.1719 Q1311.7031,204.0469 1310.5469,203.8281 Q1309.1563,203.5625 1308.4375,203.2031 Q1307.7188,202.8438 1307.2969,202.1875 Q1306.8906,201.5156 1306.8906,200.7344 Q1306.8906,199.5156 1307.9063,198.6094 Q1308.9375,197.6875 1310.5781,197.6875 Q1311.2344,197.6875 1311.7813,197.8281 Q1312.3438,197.9688 1312.8125,198.2656 Q1313.1406,197.9531 1313.4688,197.9531 Q1313.8438,197.9531 1314.0781,198.2188 Q1314.3125,198.4688 1314.3125,199.0781 L1314.3125,200.3594 Q1314.3125,200.9688 1314.0781,201.2344 Q1313.8438,201.4844 1313.4688,201.4844 Q1313.1563,201.4844 1312.9219,201.2969 Q1312.7344,201.1563 1312.6406,200.7344 Q1312.5625,200.3125 1312.4219,200.125 Q1312.1719,199.8125 1311.6875,199.6094 Q1311.2188,199.3906 1310.5781,199.3906 Q1309.6563,199.3906 1309.125,199.8125 Q1308.5938,200.2344 1308.5938,200.7031 Q1308.5938,201.0156 1308.8125,201.3125 Q1309.0313,201.6094 1309.4531,201.7813 Q1309.7344,201.8906 1311.0313,202.1563 Q1312.3438,202.4063 1313.0469,202.7188 Q1313.75,203.0156 1314.2188,203.6719 Q1314.6875,204.3281 1314.6875,205.2344 Q1314.6875,206.5 1313.7969,207.25 Q1312.6094,208.25 1310.7813,208.25 Q1310.0781,208.25 1309.4063,208.0781 Q1308.75,207.9063 1308.1094,207.5625 Z " fill="#000000"/><text fill="#000000" font-family="sans-serif" font-size="14" lengthAdjust="spacing" textLength="110" x="1324" y="208.7285">EquipmentCentre</text><line style="stroke:#181818;stroke-width:0.5;" x1="1296" x2="1436" y1="219" y2="219"/><ellipse cx="1306" cy="233.3047" fill="none" rx="3" ry="3" style="stroke:#038048;stroke-width:1.0;"/><text fill="#000000" font-family="sans-serif" font-size="14" lengthAdjust="spacing" textLength="27" x="1315" y="237.5332">Title</text><ellipse cx="1306" cy="250.9141" fill="none" rx="3" ry="3" style="stroke:#038048;stroke-width:1.0;"/><text fill="#000000" font-family="sans-serif" font-size="14" lengthAdjust="spacing" textLength="70" x="1315" y="255.1426">Information</text><ellipse cx="1306" cy="268.5234" fill="none" rx="3" ry="3" style="stroke:#038048;stroke-width:1.0;"/><text fill="#000000" font-family="sans-serif" font-size="14" lengthAdjust="spacing" textLength="54" x="1315" y="272.752">Location</text><ellipse cx="1306" cy="286.1328" fill="none" rx="3" ry="3" style="stroke:#038048;stroke-width:1.0;"/><text fill="#000000" font-family="sans-serif" font-size="14" lengthAdjust="spacing" textLength="32" x="1315" y="290.3613">Point</text></g><!--class MapPoint--><g id="elem_MapPoint"><rect codeLine="35" fill="#F1F1F1" height="75.2188" id="MapPoint" rx="2.5" ry="2.5" style="stroke:#181818;stroke-width:0.5;" width="91" x="1472.5" y="204.5"/><ellipse cx="1487.5" cy="220.5" fill="#F1F1F1" rx="11" ry="11" style="stroke:#181818;stroke-width:1.0;"/><path d="M1485.6094,225.0625 Q1485.3906,225.3281 1485.25,225.4063 Q1485.1094,225.4844 1484.9219,225.4844 Q1484.5313,225.4844 1484.2813,225.2188 Q1484.0469,224.9531 1484.0469,224.3594 L1484.0469,223.2031 Q1484.0469,222.5938 1484.2813,222.3438 Q1484.5313,222.0781 1484.9219,222.0781 Q1485.2188,222.0781 1485.4219,222.2344 Q1485.625,222.3906 1485.7344,222.7656 Q1485.8438,223.125 1485.9531,223.2656 Q1486.2031,223.5156 1486.8125,223.7813 Q1487.4219,224.0469 1488.1563,224.0469 Q1489.2969,224.0469 1490.0156,223.5156 Q1490.4844,223.1875 1490.4844,222.7188 Q1490.4844,222.4063 1490.2656,222.125 Q1490.0469,221.8438 1489.5313,221.6719 Q1489.2031,221.5469 1488.0469,221.3281 Q1486.6563,221.0625 1485.9375,220.7031 Q1485.2188,220.3438 1484.7969,219.6875 Q1484.3906,219.0156 1484.3906,218.2344 Q1484.3906,217.0156 1485.4063,216.1094 Q1486.4375,215.1875 1488.0781,215.1875 Q1488.7344,215.1875 1489.2813,215.3281 Q1489.8438,215.4688 1490.3125,215.7656 Q1490.6406,215.4531 1490.9688,215.4531 Q1491.3438,215.4531 1491.5781,215.7188 Q1491.8125,215.9688 1491.8125,216.5781 L1491.8125,217.8594 Q1491.8125,218.4688 1491.5781,218.7344 Q1491.3438,218.9844 1490.9688,218.9844 Q1490.6563,218.9844 1490.4219,218.7969 Q1490.2344,218.6563 1490.1406,218.2344 Q1490.0625,217.8125 1489.9219,217.625 Q1489.6719,217.3125 1489.1875,217.1094 Q1488.7188,216.8906 1488.0781,216.8906 Q1487.1563,216.8906 1486.625,217.3125 Q1486.0938,217.7344 1486.0938,218.2031 Q1486.0938,218.5156 1486.3125,218.8125 Q1486.5313,219.1094 1486.9531,219.2813 Q1487.2344,219.3906 1488.5313,219.6563 Q1489.8438,219.9063 1490.5469,220.2188 Q1491.25,220.5156 1491.7188,221.1719 Q1492.1875,221.8281 1492.1875,222.7344 Q1492.1875,224 1491.2969,224.75 Q1490.1094,225.75 1488.2813,225.75 Q1487.5781,225.75 1486.9063,225.5781 Q1486.25,225.4063 1485.6094,225.0625 Z " fill="#000000"/><text fill="#000000" font-family="sans-serif" font-size="14" lengthAdjust="spacing" textLength="59" x="1501.5" y="226.2285">MapPoint</text><line style="stroke:#181818;stroke-width:0.5;" x1="1473.5" x2="1562.5" y1="236.5" y2="236.5"/><ellipse cx="1483.5" cy="250.8047" fill="none" rx="3" ry="3" style="stroke:#038048;stroke-width:1.0;"/><text fill="#000000" font-family="sans-serif" font-size="14" lengthAdjust="spacing" textLength="51" x="1492.5" y="255.0332">Latitude</text><ellipse cx="1483.5" cy="268.4141" fill="none" rx="3" ry="3" style="stroke:#038048;stroke-width:1.0;"/><text fill="#000000" font-family="sans-serif" font-size="14" lengthAdjust="spacing" textLength="63" x="1492.5" y="272.6426">Longitude</text></g><!--class WebScraper--><g id="elem_WebScraper"><rect codeLine="47" fill="#F1F1F1" height="153.6563" id="WebScraper" rx="2.5" ry="2.5" style="stroke:#181818;stroke-width:0.5;" width="176" x="589" y="165"/><ellipse cx="633.25" cy="181" fill="#ADD1B2" rx="11" ry="11" style="stroke:#181818;stroke-width:1.0;"/><path d="M636.0156,176.875 Q636.1719,176.6563 636.3594,176.5469 Q636.5469,176.4375 636.7656,176.4375 Q637.1406,176.4375 637.375,176.7031 Q637.6094,176.9531 637.6094,177.5625 L637.6094,179.0156 Q637.6094,179.625 637.375,179.8906 Q637.1406,180.1563 636.7656,180.1563 Q636.4219,180.1563 636.2188,179.9531 Q636.0156,179.7656 635.9063,179.25 Q635.8594,178.8906 635.6719,178.7031 Q635.3438,178.3281 634.7344,178.1094 Q634.125,177.8906 633.5,177.8906 Q632.7344,177.8906 632.0938,178.2188 Q631.4688,178.5469 630.9688,179.2969 Q630.4844,180.0469 630.4844,181.0781 L630.4844,182.1719 Q630.4844,183.4063 631.375,184.2344 Q632.2656,185.0469 633.8594,185.0469 Q634.7969,185.0469 635.4531,184.7969 Q635.8438,184.6406 636.2656,184.2031 Q636.5313,183.9375 636.6719,183.8594 Q636.8281,183.7813 637.0313,183.7813 Q637.3594,183.7813 637.6094,184.0469 Q637.875,184.2969 637.875,184.6406 Q637.875,184.9844 637.5313,185.3906 Q637.0313,185.9688 636.2344,186.2969 Q635.1563,186.75 633.8594,186.75 Q632.3438,186.75 631.1406,186.125 Q630.1563,185.625 629.4688,184.5625 Q628.7813,183.4844 628.7813,182.2031 L628.7813,181.0469 Q628.7813,179.7188 629.3906,178.5781 Q630.0156,177.4219 631.1094,176.8125 Q632.2031,176.1875 633.4375,176.1875 Q634.1719,176.1875 634.8125,176.3594 Q635.4688,176.5156 636.0156,176.875 Z " fill="#000000"/><text fill="#000000" font-family="sans-serif" font-size="14" lengthAdjust="spacing" textLength="79" x="653.75" y="186.7285">WebScraper</text><line style="stroke:#181818;stroke-width:0.5;" x1="590" x2="764" y1="197" y2="197"/><rect fill="none" height="6" style="stroke:#C82930;stroke-width:1.0;" width="6" x="597" y="208.3047"/><text fill="#000000" font-family="sans-serif" font-size="14" lengthAdjust="spacing" textLength="60" x="609" y="215.5332">httpClient</text><line style="stroke:#181818;stroke-width:0.5;" x1="590" x2="764" y1="222.6094" y2="222.6094"/><ellipse cx="600" cy="236.9141" fill="#84BE84" rx="3" ry="3" style="stroke:#038048;stroke-width:1.0;"/><text fill="#000000" font-family="sans-serif" font-size="14" lengthAdjust="spacing" text-decoration="underline" textLength="53" x="609" y="241.1426">Create()</text><ellipse cx="600" cy="254.5234" fill="#84BE84" rx="3" ry="3" style="stroke:#038048;stroke-width:1.0;"/><text fill="#000000" font-family="sans-serif" font-size="14" lengthAdjust="spacing" textLength="110" x="609" y="258.752">LoadDataAsync()</text><ellipse cx="600" cy="272.1328" fill="#84BE84" rx="3" ry="3" style="stroke:#038048;stroke-width:1.0;"/><text fill="#000000" font-family="sans-serif" font-size="14" lengthAdjust="spacing" textLength="98" x="609" y="276.3613">GetAllDistricts()</text><ellipse cx="600" cy="289.7422" fill="#84BE84" rx="3" ry="3" style="stroke:#038048;stroke-width:1.0;"/><text fill="#000000" font-family="sans-serif" font-size="14" lengthAdjust="spacing" textLength="150" x="609" y="293.9707">GetEquipmentCentres()</text><ellipse cx="600" cy="307.3516" fill="#84BE84" rx="3" ry="3" style="stroke:#038048;stroke-width:1.0;"/><text fill="#000000" font-family="sans-serif" font-size="14" lengthAdjust="spacing" textLength="143" x="609" y="311.5801">GetEquipmentCentre()</text></g><!--class XPathBuilder--><g id="elem_XPathBuilder"><rect codeLine="57" fill="#F1F1F1" height="163.2656" id="XPathBuilder" rx="2.5" ry="2.5" style="stroke:#181818;stroke-width:0.5;" width="176" x="589" y="495.5"/><ellipse cx="632.35" cy="511.5" fill="#ADD1B2" rx="11" ry="11" style="stroke:#181818;stroke-width:1.0;"/><path d="M635.1156,507.375 Q635.2719,507.1563 635.4594,507.0469 Q635.6469,506.9375 635.8656,506.9375 Q636.2406,506.9375 636.475,507.2031 Q636.7094,507.4531 636.7094,508.0625 L636.7094,509.5156 Q636.7094,510.125 636.475,510.3906 Q636.2406,510.6563 635.8656,510.6563 Q635.5219,510.6563 635.3188,510.4531 Q635.1156,510.2656 635.0063,509.75 Q634.9594,509.3906 634.7719,509.2031 Q634.4438,508.8281 633.8344,508.6094 Q633.225,508.3906 632.6,508.3906 Q631.8344,508.3906 631.1938,508.7188 Q630.5688,509.0469 630.0688,509.7969 Q629.5844,510.5469 629.5844,511.5781 L629.5844,512.6719 Q629.5844,513.9063 630.475,514.7344 Q631.3656,515.5469 632.9594,515.5469 Q633.8969,515.5469 634.5531,515.2969 Q634.9438,515.1406 635.3656,514.7031 Q635.6313,514.4375 635.7719,514.3594 Q635.9281,514.2813 636.1313,514.2813 Q636.4594,514.2813 636.7094,514.5469 Q636.975,514.7969 636.975,515.1406 Q636.975,515.4844 636.6313,515.8906 Q636.1313,516.4688 635.3344,516.7969 Q634.2563,517.25 632.9594,517.25 Q631.4438,517.25 630.2406,516.625 Q629.2563,516.125 628.5688,515.0625 Q627.8813,513.9844 627.8813,512.7031 L627.8813,511.5469 Q627.8813,510.2188 628.4906,509.0781 Q629.1156,507.9219 630.2094,507.3125 Q631.3031,506.6875 632.5375,506.6875 Q633.2719,506.6875 633.9125,506.8594 Q634.5688,507.0156 635.1156,507.375 Z " fill="#000000"/><text fill="#000000" font-family="sans-serif" font-size="14" lengthAdjust="spacing" textLength="81" x="652.65" y="517.2285">XPathBuilder</text><line style="stroke:#181818;stroke-width:0.5;" x1="590" x2="764" y1="527.5" y2="527.5"/><text fill="#000000" font-family="sans-serif" font-size="14" lengthAdjust="spacing" text-decoration="underline" textLength="116" x="595" y="546.0332">DistrictNameXPath</text><text fill="#000000" font-family="sans-serif" font-size="14" lengthAdjust="spacing" text-decoration="underline" textLength="146" x="595" y="563.6426">EquipmentCentreName</text><text fill="#000000" font-family="sans-serif" font-size="14" lengthAdjust="spacing" text-decoration="underline" textLength="133" x="595" y="581.252">EquipmentCentreInfo</text><text fill="#000000" font-family="sans-serif" font-size="14" lengthAdjust="spacing" text-decoration="underline" textLength="164" x="595" y="598.8613">EquipmentCentreLocation</text><text fill="#000000" font-family="sans-serif" font-size="14" lengthAdjust="spacing" text-decoration="underline" textLength="140" x="595" y="616.4707">EquipmentCentreData</text><text fill="#000000" font-family="sans-serif" font-size="14" lengthAdjust="spacing" text-decoration="underline" textLength="80" x="595" y="634.0801">DistrictXPath</text><text fill="#000000" font-family="sans-serif" font-size="14" lengthAdjust="spacing" text-decoration="underline" textLength="102" x="595" y="651.6895">AllDistrictsXPath</text></g><!--class IEquipmentCentreProvider--><g id="elem_IEquipmentCentreProvider"><rect codeLine="75" fill="#F1F1F1" height="65.6094" id="IEquipmentCentreProvider" rx="2.5" ry="2.5" style="stroke:#181818;stroke-width:0.5;" width="198" x="83" y="209"/><ellipse cx="98" cy="225" fill="#B4A7E5" rx="11" ry="11" style="stroke:#181818;stroke-width:1.0;"/><path d="M98.9531,221.6406 L98.9531,228.2969 L100.6719,228.2969 Q101.2813,228.2969 101.5469,228.5313 Q101.8125,228.7656 101.8125,229.1563 Q101.8125,229.5313 101.5469,229.7656 Q101.2813,230 100.6719,230 L95.5313,230 Q94.9219,230 94.6563,229.7656 Q94.3906,229.5313 94.3906,229.1406 Q94.3906,228.7656 94.6563,228.5313 Q94.9219,228.2969 95.5313,228.2969 L97.25,228.2969 L97.25,221.6406 L95.5313,221.6406 Q94.9219,221.6406 94.6563,221.4063 Q94.3906,221.1719 94.3906,220.7813 Q94.3906,220.4063 94.6563,220.1719 Q94.9219,219.9375 95.5313,219.9375 L100.6719,219.9375 Q101.2813,219.9375 101.5469,220.1719 Q101.8125,220.4063 101.8125,220.7813 Q101.8125,221.1719 101.5469,221.4063 Q101.2813,221.6406 100.6719,221.6406 L98.9531,221.6406 Z " fill="#000000"/><text fill="#000000" font-family="sans-serif" font-size="14" font-style="italic" lengthAdjust="spacing" textLength="166" x="112" y="230.7285">IEquipmentCentreProvider</text><line style="stroke:#181818;stroke-width:0.5;" x1="84" x2="280" y1="241" y2="241"/><line style="stroke:#181818;stroke-width:0.5;" x1="84" x2="280" y1="249" y2="249"/><text fill="#000000" font-family="sans-serif" font-size="14" lengthAdjust="spacing" textLength="121" x="89" y="267.5332">GetDistrictsAsync()</text></g><!--class ApiEquipmentCentreProvider--><g id="elem_ApiEquipmentCentreProvider"><rect codeLine="79" fill="#F1F1F1" height="83.2188" id="ApiEquipmentCentreProvider" rx="2.5" ry="2.5" style="stroke:#181818;stroke-width:0.5;" width="215" x="70.5" y="535.5"/><ellipse cx="85.5" cy="551.5" fill="#ADD1B2" rx="11" ry="11" style="stroke:#181818;stroke-width:1.0;"/><path d="M88.2656,547.375 Q88.4219,547.1563 88.6094,547.0469 Q88.7969,546.9375 89.0156,546.9375 Q89.3906,546.9375 89.625,547.2031 Q89.8594,547.4531 89.8594,548.0625 L89.8594,549.5156 Q89.8594,550.125 89.625,550.3906 Q89.3906,550.6563 89.0156,550.6563 Q88.6719,550.6563 88.4688,550.4531 Q88.2656,550.2656 88.1563,549.75 Q88.1094,549.3906 87.9219,549.2031 Q87.5938,548.8281 86.9844,548.6094 Q86.375,548.3906 85.75,548.3906 Q84.9844,548.3906 84.3438,548.7188 Q83.7188,549.0469 83.2188,549.7969 Q82.7344,550.5469 82.7344,551.5781 L82.7344,552.6719 Q82.7344,553.9063 83.625,554.7344 Q84.5156,555.5469 86.1094,555.5469 Q87.0469,555.5469 87.7031,555.2969 Q88.0938,555.1406 88.5156,554.7031 Q88.7813,554.4375 88.9219,554.3594 Q89.0781,554.2813 89.2813,554.2813 Q89.6094,554.2813 89.8594,554.5469 Q90.125,554.7969 90.125,555.1406 Q90.125,555.4844 89.7813,555.8906 Q89.2813,556.4688 88.4844,556.7969 Q87.4063,557.25 86.1094,557.25 Q84.5938,557.25 83.3906,556.625 Q82.4063,556.125 81.7188,555.0625 Q81.0313,553.9844 81.0313,552.7031 L81.0313,551.5469 Q81.0313,550.2188 81.6406,549.0781 Q82.2656,547.9219 83.3594,547.3125 Q84.4531,546.6875 85.6875,546.6875 Q86.4219,546.6875 87.0625,546.8594 Q87.7188,547.0156 88.2656,547.375 Z " fill="#000000"/><text fill="#000000" font-family="sans-serif" font-size="14" lengthAdjust="spacing" textLength="183" x="99.5" y="557.2285">ApiEquipmentCentreProvider</text><line style="stroke:#181818;stroke-width:0.5;" x1="71.5" x2="284.5" y1="567.5" y2="567.5"/><rect fill="none" height="6" style="stroke:#C82930;stroke-width:1.0;" width="6" x="78.5" y="578.8047"/><text fill="#000000" font-family="sans-serif" font-size="14" lengthAdjust="spacing" textLength="60" x="90.5" y="586.0332">httpClient</text><line style="stroke:#181818;stroke-width:0.5;" x1="71.5" x2="284.5" y1="593.1094" y2="593.1094"/><ellipse cx="81.5" cy="607.4141" fill="#84BE84" rx="3" ry="3" style="stroke:#038048;stroke-width:1.0;"/><text fill="#000000" font-family="sans-serif" font-size="14" lengthAdjust="spacing" textLength="121" x="90.5" y="611.6426">GetDistrictsAsync()</text></g><!--class About--><g id="elem_About"><rect codeLine="87" fill="#F1F1F1" height="32" id="About" rx="2.5" ry="2.5" style="stroke:#181818;stroke-width:0.5;" width="69" x="439.5" y="561"/><ellipse cx="454.5" cy="577" fill="#ADD1B2" rx="11" ry="11" style="stroke:#181818;stroke-width:1.0;"/><path d="M457.2656,572.875 Q457.4219,572.6563 457.6094,572.5469 Q457.7969,572.4375 458.0156,572.4375 Q458.3906,572.4375 458.625,572.7031 Q458.8594,572.9531 458.8594,573.5625 L458.8594,575.0156 Q458.8594,575.625 458.625,575.8906 Q458.3906,576.1563 458.0156,576.1563 Q457.6719,576.1563 457.4688,575.9531 Q457.2656,575.7656 457.1563,575.25 Q457.1094,574.8906 456.9219,574.7031 Q456.5938,574.3281 455.9844,574.1094 Q455.375,573.8906 454.75,573.8906 Q453.9844,573.8906 453.3438,574.2188 Q452.7188,574.5469 452.2188,575.2969 Q451.7344,576.0469 451.7344,577.0781 L451.7344,578.1719 Q451.7344,579.4063 452.625,580.2344 Q453.5156,581.0469 455.1094,581.0469 Q456.0469,581.0469 456.7031,580.7969 Q457.0938,580.6406 457.5156,580.2031 Q457.7813,579.9375 457.9219,579.8594 Q458.0781,579.7813 458.2813,579.7813 Q458.6094,579.7813 458.8594,580.0469 Q459.125,580.2969 459.125,580.6406 Q459.125,580.9844 458.7813,581.3906 Q458.2813,581.9688 457.4844,582.2969 Q456.4063,582.75 455.1094,582.75 Q453.5938,582.75 452.3906,582.125 Q451.4063,581.625 450.7188,580.5625 Q450.0313,579.4844 450.0313,578.2031 L450.0313,577.0469 Q450.0313,575.7188 450.6406,574.5781 Q451.2656,573.4219 452.3594,572.8125 Q453.4531,572.1875 454.6875,572.1875 Q455.4219,572.1875 456.0625,572.3594 Q456.7188,572.5156 457.2656,572.875 Z " fill="#000000"/><text fill="#000000" font-family="sans-serif" font-size="14" lengthAdjust="spacing" textLength="37" x="468.5" y="582.7285">About</text></g><!--class Main--><g id="elem_Main"><rect codeLine="91" fill="#F1F1F1" height="57.6094" id="Main" rx="2.5" ry="2.5" style="stroke:#181818;stroke-width:0.5;" width="62" x="342" y="548"/><ellipse cx="357" cy="564" fill="#ADD1B2" rx="11" ry="11" style="stroke:#181818;stroke-width:1.0;"/><path d="M359.7656,559.875 Q359.9219,559.6563 360.1094,559.5469 Q360.2969,559.4375 360.5156,559.4375 Q360.8906,559.4375 361.125,559.7031 Q361.3594,559.9531 361.3594,560.5625 L361.3594,562.0156 Q361.3594,562.625 361.125,562.8906 Q360.8906,563.1563 360.5156,563.1563 Q360.1719,563.1563 359.9688,562.9531 Q359.7656,562.7656 359.6563,562.25 Q359.6094,561.8906 359.4219,561.7031 Q359.0938,561.3281 358.4844,561.1094 Q357.875,560.8906 357.25,560.8906 Q356.4844,560.8906 355.8438,561.2188 Q355.2188,561.5469 354.7188,562.2969 Q354.2344,563.0469 354.2344,564.0781 L354.2344,565.1719 Q354.2344,566.4063 355.125,567.2344 Q356.0156,568.0469 357.6094,568.0469 Q358.5469,568.0469 359.2031,567.7969 Q359.5938,567.6406 360.0156,567.2031 Q360.2813,566.9375 360.4219,566.8594 Q360.5781,566.7813 360.7813,566.7813 Q361.1094,566.7813 361.3594,567.0469 Q361.625,567.2969 361.625,567.6406 Q361.625,567.9844 361.2813,568.3906 Q360.7813,568.9688 359.9844,569.2969 Q358.9063,569.75 357.6094,569.75 Q356.0938,569.75 354.8906,569.125 Q353.9063,568.625 353.2188,567.5625 Q352.5313,566.4844 352.5313,565.2031 L352.5313,564.0469 Q352.5313,562.7188 353.1406,561.5781 Q353.7656,560.4219 354.8594,559.8125 Q355.9531,559.1875 357.1875,559.1875 Q357.9219,559.1875 358.5625,559.3594 Q359.2188,559.5156 359.7656,559.875 Z " fill="#000000"/><text fill="#000000" font-family="sans-serif" font-size="14" lengthAdjust="spacing" textLength="30" x="371" y="569.7285">Main</text><line style="stroke:#181818;stroke-width:0.5;" x1="343" x2="403" y1="580" y2="580"/><rect fill="none" height="6" style="stroke:#C82930;stroke-width:1.0;" width="6" x="350" y="591.3047"/><text fill="#000000" font-family="sans-serif" font-size="14" lengthAdjust="spacing" textLength="27" x="362" y="598.5332">Map</text></g><!--class VisicomMapPointProvider--><g id="elem_VisicomMapPointProvider"><rect codeLine="103" fill="#F1F1F1" height="118.4375" id="VisicomMapPointProvider" rx="2.5" ry="2.5" style="stroke:#181818;stroke-width:0.5;" width="192" x="2099" y="518"/><ellipse cx="2114" cy="534" fill="#ADD1B2" rx="11" ry="11" style="stroke:#181818;stroke-width:1.0;"/><path d="M2116.7656,529.875 Q2116.9219,529.6563 2117.1094,529.5469 Q2117.2969,529.4375 2117.5156,529.4375 Q2117.8906,529.4375 2118.125,529.7031 Q2118.3594,529.9531 2118.3594,530.5625 L2118.3594,532.0156 Q2118.3594,532.625 2118.125,532.8906 Q2117.8906,533.1563 2117.5156,533.1563 Q2117.1719,533.1563 2116.9688,532.9531 Q2116.7656,532.7656 2116.6563,532.25 Q2116.6094,531.8906 2116.4219,531.7031 Q2116.0938,531.3281 2115.4844,531.1094 Q2114.875,530.8906 2114.25,530.8906 Q2113.4844,530.8906 2112.8438,531.2188 Q2112.2188,531.5469 2111.7188,532.2969 Q2111.2344,533.0469 2111.2344,534.0781 L2111.2344,535.1719 Q2111.2344,536.4063 2112.125,537.2344 Q2113.0156,538.0469 2114.6094,538.0469 Q2115.5469,538.0469 2116.2031,537.7969 Q2116.5938,537.6406 2117.0156,537.2031 Q2117.2813,536.9375 2117.4219,536.8594 Q2117.5781,536.7813 2117.7813,536.7813 Q2118.1094,536.7813 2118.3594,537.0469 Q2118.625,537.2969 2118.625,537.6406 Q2118.625,537.9844 2118.2813,538.3906 Q2117.7813,538.9688 2116.9844,539.2969 Q2115.9063,539.75 2114.6094,539.75 Q2113.0938,539.75 2111.8906,539.125 Q2110.9063,538.625 2110.2188,537.5625 Q2109.5313,536.4844 2109.5313,535.2031 L2109.5313,534.0469 Q2109.5313,532.7188 2110.1406,531.5781 Q2110.7656,530.4219 2111.8594,529.8125 Q2112.9531,529.1875 2114.1875,529.1875 Q2114.9219,529.1875 2115.5625,529.3594 Q2116.2188,529.5156 2116.7656,529.875 Z " fill="#000000"/><text fill="#000000" font-family="sans-serif" font-size="14" lengthAdjust="spacing" textLength="160" x="2128" y="539.7285">VisicomMapPointProvider</text><line style="stroke:#181818;stroke-width:0.5;" x1="2100" x2="2290" y1="550" y2="550"/><rect fill="none" height="6" style="stroke:#C82930;stroke-width:1.0;" width="6" x="2107" y="561.3047"/><text fill="#000000" font-family="sans-serif" font-size="14" lengthAdjust="spacing" textLength="60" x="2119" y="568.5332">httpClient</text><rect fill="none" height="6" style="stroke:#C82930;stroke-width:1.0;" width="6" x="2107" y="578.9141"/><text fill="#000000" font-family="sans-serif" font-size="14" lengthAdjust="spacing" textLength="97" x="2119" y="586.1426">requestOptions</text><rect fill="none" height="6" style="stroke:#C82930;stroke-width:1.0;" width="6" x="2107" y="596.5234"/><text fill="#000000" font-family="sans-serif" font-size="14" lengthAdjust="spacing" textLength="40" x="2119" y="603.752">logger</text><line style="stroke:#181818;stroke-width:0.5;" x1="2100" x2="2290" y1="610.8281" y2="610.8281"/><ellipse cx="2110" cy="625.1328" fill="#84BE84" rx="3" ry="3" style="stroke:#038048;stroke-width:1.0;"/><text fill="#000000" font-family="sans-serif" font-size="14" lengthAdjust="spacing" textLength="103" x="2119" y="629.3613">GetPointAsync()</text></g><!--class IEquipmentCentreService--><g id="elem_IEquipmentCentreService"><rect codeLine="114" fill="#F1F1F1" height="83.2188" id="IEquipmentCentreService" rx="2.5" ry="2.5" style="stroke:#181818;stroke-width:0.5;" width="193" x="1473.5" y="535.5"/><ellipse cx="1488.95" cy="551.5" fill="#B4A7E5" rx="11" ry="11" style="stroke:#181818;stroke-width:1.0;"/><path d="M1489.9031,548.1406 L1489.9031,554.7969 L1491.6219,554.7969 Q1492.2313,554.7969 1492.4969,555.0313 Q1492.7625,555.2656 1492.7625,555.6563 Q1492.7625,556.0313 1492.4969,556.2656 Q1492.2313,556.5 1491.6219,556.5 L1486.4813,556.5 Q1485.8719,556.5 1485.6063,556.2656 Q1485.3406,556.0313 1485.3406,555.6406 Q1485.3406,555.2656 1485.6063,555.0313 Q1485.8719,554.7969 1486.4813,554.7969 L1488.2,554.7969 L1488.2,548.1406 L1486.4813,548.1406 Q1485.8719,548.1406 1485.6063,547.9063 Q1485.3406,547.6719 1485.3406,547.2813 Q1485.3406,546.9063 1485.6063,546.6719 Q1485.8719,546.4375 1486.4813,546.4375 L1491.6219,546.4375 Q1492.2313,546.4375 1492.4969,546.6719 Q1492.7625,546.9063 1492.7625,547.2813 Q1492.7625,547.6719 1492.4969,547.9063 Q1492.2313,548.1406 1491.6219,548.1406 L1489.9031,548.1406 Z " fill="#000000"/><text fill="#000000" font-family="sans-serif" font-size="14" font-style="italic" lengthAdjust="spacing" textLength="160" x="1503.05" y="557.2285">IEquipmentCentreService</text><line style="stroke:#181818;stroke-width:0.5;" x1="1474.5" x2="1665.5" y1="567.5" y2="567.5"/><line style="stroke:#181818;stroke-width:0.5;" x1="1474.5" x2="1665.5" y1="575.5" y2="575.5"/><text fill="#000000" font-family="sans-serif" font-size="14" lengthAdjust="spacing" textLength="121" x="1479.5" y="594.0332">GetDistrictsAsync()</text><text fill="#000000" font-family="sans-serif" font-size="14" lengthAdjust="spacing" textLength="181" x="1479.5" y="611.6426">GetEquipmentCentreAsync()</text></g><!--class VisicomEquipmentCentreService--><g id="elem_VisicomEquipmentCentreService"><rect codeLine="119" fill="#F1F1F1" height="118.4375" id="VisicomEquipmentCentreService" rx="2.5" ry="2.5" style="stroke:#181818;stroke-width:0.5;" width="237" x="1385.5" y="752.5"/><ellipse cx="1400.5" cy="768.5" fill="#ADD1B2" rx="11" ry="11" style="stroke:#181818;stroke-width:1.0;"/><path d="M1403.2656,764.375 Q1403.4219,764.1563 1403.6094,764.0469 Q1403.7969,763.9375 1404.0156,763.9375 Q1404.3906,763.9375 1404.625,764.2031 Q1404.8594,764.4531 1404.8594,765.0625 L1404.8594,766.5156 Q1404.8594,767.125 1404.625,767.3906 Q1404.3906,767.6563 1404.0156,767.6563 Q1403.6719,767.6563 1403.4688,767.4531 Q1403.2656,767.2656 1403.1563,766.75 Q1403.1094,766.3906 1402.9219,766.2031 Q1402.5938,765.8281 1401.9844,765.6094 Q1401.375,765.3906 1400.75,765.3906 Q1399.9844,765.3906 1399.3438,765.7188 Q1398.7188,766.0469 1398.2188,766.7969 Q1397.7344,767.5469 1397.7344,768.5781 L1397.7344,769.6719 Q1397.7344,770.9063 1398.625,771.7344 Q1399.5156,772.5469 1401.1094,772.5469 Q1402.0469,772.5469 1402.7031,772.2969 Q1403.0938,772.1406 1403.5156,771.7031 Q1403.7813,771.4375 1403.9219,771.3594 Q1404.0781,771.2813 1404.2813,771.2813 Q1404.6094,771.2813 1404.8594,771.5469 Q1405.125,771.7969 1405.125,772.1406 Q1405.125,772.4844 1404.7813,772.8906 Q1404.2813,773.4688 1403.4844,773.7969 Q1402.4063,774.25 1401.1094,774.25 Q1399.5938,774.25 1398.3906,773.625 Q1397.4063,773.125 1396.7188,772.0625 Q1396.0313,770.9844 1396.0313,769.7031 L1396.0313,768.5469 Q1396.0313,767.2188 1396.6406,766.0781 Q1397.2656,764.9219 1398.3594,764.3125 Q1399.4531,763.6875 1400.6875,763.6875 Q1401.4219,763.6875 1402.0625,763.8594 Q1402.7188,764.0156 1403.2656,764.375 Z " fill="#000000"/><text fill="#000000" font-family="sans-serif" font-size="14" lengthAdjust="spacing" textLength="205" x="1414.5" y="774.2285">VisicomEquipmentCentreService</text><line style="stroke:#181818;stroke-width:0.5;" x1="1386.5" x2="1621.5" y1="784.5" y2="784.5"/><rect fill="none" height="6" style="stroke:#C82930;stroke-width:1.0;" width="6" x="1393.5" y="795.8047"/><text fill="#000000" font-family="sans-serif" font-size="14" lengthAdjust="spacing" textLength="81" x="1405.5" y="803.0332">dataProvider</text><rect fill="none" height="6" style="stroke:#C82930;stroke-width:1.0;" width="6" x="1393.5" y="813.4141"/><text fill="#000000" font-family="sans-serif" font-size="14" lengthAdjust="spacing" textLength="112" x="1405.5" y="820.6426">mapPointProvider</text><line style="stroke:#181818;stroke-width:0.5;" x1="1386.5" x2="1621.5" y1="827.7188" y2="827.7188"/><ellipse cx="1396.5" cy="842.0234" fill="#84BE84" rx="3" ry="3" style="stroke:#038048;stroke-width:1.0;"/><text fill="#000000" font-family="sans-serif" font-size="14" lengthAdjust="spacing" textLength="121" x="1405.5" y="846.252">GetDistrictsAsync()</text><ellipse cx="1396.5" cy="859.6328" fill="#84BE84" rx="3" ry="3" style="stroke:#038048;stroke-width:1.0;"/><text fill="#000000" font-family="sans-serif" font-size="14" lengthAdjust="spacing" textLength="181" x="1405.5" y="863.8613">GetEquipmentCentreAsync()</text></g><!--class CachedEquipmentCentreService--><g id="elem_CachedEquipmentCentreService"><rect codeLine="126" fill="#F1F1F1" height="136.0469" id="CachedEquipmentCentreService" rx="2.5" ry="2.5" style="stroke:#181818;stroke-width:0.5;" width="238" x="1658" y="743.5"/><ellipse cx="1673" cy="759.5" fill="#ADD1B2" rx="11" ry="11" style="stroke:#181818;stroke-width:1.0;"/><path d="M1675.7656,755.375 Q1675.9219,755.1563 1676.1094,755.0469 Q1676.2969,754.9375 1676.5156,754.9375 Q1676.8906,754.9375 1677.125,755.2031 Q1677.3594,755.4531 1677.3594,756.0625 L1677.3594,757.5156 Q1677.3594,758.125 1677.125,758.3906 Q1676.8906,758.6563 1676.5156,758.6563 Q1676.1719,758.6563 1675.9688,758.4531 Q1675.7656,758.2656 1675.6563,757.75 Q1675.6094,757.3906 1675.4219,757.2031 Q1675.0938,756.8281 1674.4844,756.6094 Q1673.875,756.3906 1673.25,756.3906 Q1672.4844,756.3906 1671.8438,756.7188 Q1671.2188,757.0469 1670.7188,757.7969 Q1670.2344,758.5469 1670.2344,759.5781 L1670.2344,760.6719 Q1670.2344,761.9063 1671.125,762.7344 Q1672.0156,763.5469 1673.6094,763.5469 Q1674.5469,763.5469 1675.2031,763.2969 Q1675.5938,763.1406 1676.0156,762.7031 Q1676.2813,762.4375 1676.4219,762.3594 Q1676.5781,762.2813 1676.7813,762.2813 Q1677.1094,762.2813 1677.3594,762.5469 Q1677.625,762.7969 1677.625,763.1406 Q1677.625,763.4844 1677.2813,763.8906 Q1676.7813,764.4688 1675.9844,764.7969 Q1674.9063,765.25 1673.6094,765.25 Q1672.0938,765.25 1670.8906,764.625 Q1669.9063,764.125 1669.2188,763.0625 Q1668.5313,761.9844 1668.5313,760.7031 L1668.5313,759.5469 Q1668.5313,758.2188 1669.1406,757.0781 Q1669.7656,755.9219 1670.8594,755.3125 Q1671.9531,754.6875 1673.1875,754.6875 Q1673.9219,754.6875 1674.5625,754.8594 Q1675.2188,755.0156 1675.7656,755.375 Z " fill="#000000"/><text fill="#000000" font-family="sans-serif" font-size="14" lengthAdjust="spacing" textLength="206" x="1687" y="765.2285">CachedEquipmentCentreService</text><line style="stroke:#181818;stroke-width:0.5;" x1="1659" x2="1895" y1="775.5" y2="775.5"/><rect fill="none" height="6" style="stroke:#C82930;stroke-width:1.0;" width="6" x="1666" y="786.8047"/><text fill="#000000" font-family="sans-serif" font-size="14" lengthAdjust="spacing" textLength="38" x="1678" y="794.0332">cache</text><rect fill="none" height="6" style="stroke:#C82930;stroke-width:1.0;" width="6" x="1666" y="804.4141"/><text fill="#000000" font-family="sans-serif" font-size="14" lengthAdjust="spacing" textLength="77" x="1678" y="811.6426">cacheSignal</text><rect fill="none" height="6" style="stroke:#C82930;stroke-width:1.0;" width="6" x="1666" y="822.0234"/><text fill="#000000" font-family="sans-serif" font-size="14" lengthAdjust="spacing" textLength="40" x="1678" y="829.252">logger</text><line style="stroke:#181818;stroke-width:0.5;" x1="1659" x2="1895" y1="836.3281" y2="836.3281"/><ellipse cx="1669" cy="850.6328" fill="#84BE84" rx="3" ry="3" style="stroke:#038048;stroke-width:1.0;"/><text fill="#000000" font-family="sans-serif" font-size="14" lengthAdjust="spacing" textLength="121" x="1678" y="854.8613">GetDistrictsAsync()</text><ellipse cx="1669" cy="868.2422" fill="#84BE84" rx="3" ry="3" style="stroke:#038048;stroke-width:1.0;"/><text fill="#000000" font-family="sans-serif" font-size="14" lengthAdjust="spacing" textLength="181" x="1678" y="872.4707">GetEquipmentCentreAsync()</text></g><!--class CacheSignal--><g id="elem_CacheSignal"><rect fill="#F1F1F1" height="48" id="CacheSignal" rx="2.5" ry="2.5" style="stroke:#181818;stroke-width:0.5;" width="112" x="1931" y="787.5"/><ellipse cx="1946" cy="803.5" fill="#ADD1B2" rx="11" ry="11" style="stroke:#181818;stroke-width:1.0;"/><path d="M1948.7656,799.375 Q1948.9219,799.1563 1949.1094,799.0469 Q1949.2969,798.9375 1949.5156,798.9375 Q1949.8906,798.9375 1950.125,799.2031 Q1950.3594,799.4531 1950.3594,800.0625 L1950.3594,801.5156 Q1950.3594,802.125 1950.125,802.3906 Q1949.8906,802.6563 1949.5156,802.6563 Q1949.1719,802.6563 1948.9688,802.4531 Q1948.7656,802.2656 1948.6563,801.75 Q1948.6094,801.3906 1948.4219,801.2031 Q1948.0938,800.8281 1947.4844,800.6094 Q1946.875,800.3906 1946.25,800.3906 Q1945.4844,800.3906 1944.8438,800.7188 Q1944.2188,801.0469 1943.7188,801.7969 Q1943.2344,802.5469 1943.2344,803.5781 L1943.2344,804.6719 Q1943.2344,805.9063 1944.125,806.7344 Q1945.0156,807.5469 1946.6094,807.5469 Q1947.5469,807.5469 1948.2031,807.2969 Q1948.5938,807.1406 1949.0156,806.7031 Q1949.2813,806.4375 1949.4219,806.3594 Q1949.5781,806.2813 1949.7813,806.2813 Q1950.1094,806.2813 1950.3594,806.5469 Q1950.625,806.7969 1950.625,807.1406 Q1950.625,807.4844 1950.2813,807.8906 Q1949.7813,808.4688 1948.9844,808.7969 Q1947.9063,809.25 1946.6094,809.25 Q1945.0938,809.25 1943.8906,808.625 Q1942.9063,808.125 1942.2188,807.0625 Q1941.5313,805.9844 1941.5313,804.7031 L1941.5313,803.5469 Q1941.5313,802.2188 1942.1406,801.0781 Q1942.7656,799.9219 1943.8594,799.3125 Q1944.9531,798.6875 1946.1875,798.6875 Q1946.9219,798.6875 1947.5625,798.8594 Q1948.2188,799.0156 1948.7656,799.375 Z " fill="#000000"/><text fill="#000000" font-family="sans-serif" font-size="14" lengthAdjust="spacing" textLength="80" x="1960" y="809.2285">CacheSignal</text><line style="stroke:#181818;stroke-width:0.5;" x1="1932" x2="2042" y1="819.5" y2="819.5"/><line style="stroke:#181818;stroke-width:0.5;" x1="1932" x2="2042" y1="827.5" y2="827.5"/></g><!--class DistrictsController--><g id="elem_DistrictsController"><rect codeLine="140" fill="#F1F1F1" height="100.8281" id="DistrictsController" rx="2.5" ry="2.5" style="stroke:#181818;stroke-width:0.5;" width="258" x="845" y="761"/><ellipse cx="913.75" cy="777" fill="#ADD1B2" rx="11" ry="11" style="stroke:#181818;stroke-width:1.0;"/><path d="M916.5156,772.875 Q916.6719,772.6563 916.8594,772.5469 Q917.0469,772.4375 917.2656,772.4375 Q917.6406,772.4375 917.875,772.7031 Q918.1094,772.9531 918.1094,773.5625 L918.1094,775.0156 Q918.1094,775.625 917.875,775.8906 Q917.6406,776.1563 917.2656,776.1563 Q916.9219,776.1563 916.7188,775.9531 Q916.5156,775.7656 916.4063,775.25 Q916.3594,774.8906 916.1719,774.7031 Q915.8438,774.3281 915.2344,774.1094 Q914.625,773.8906 914,773.8906 Q913.2344,773.8906 912.5938,774.2188 Q911.9688,774.5469 911.4688,775.2969 Q910.9844,776.0469 910.9844,777.0781 L910.9844,778.1719 Q910.9844,779.4063 911.875,780.2344 Q912.7656,781.0469 914.3594,781.0469 Q915.2969,781.0469 915.9531,780.7969 Q916.3438,780.6406 916.7656,780.2031 Q917.0313,779.9375 917.1719,779.8594 Q917.3281,779.7813 917.5313,779.7813 Q917.8594,779.7813 918.1094,780.0469 Q918.375,780.2969 918.375,780.6406 Q918.375,780.9844 918.0313,781.3906 Q917.5313,781.9688 916.7344,782.2969 Q915.6563,782.75 914.3594,782.75 Q912.8438,782.75 911.6406,782.125 Q910.6563,781.625 909.9688,780.5625 Q909.2813,779.4844 909.2813,778.2031 L909.2813,777.0469 Q909.2813,775.7188 909.8906,774.5781 Q910.5156,773.4219 911.6094,772.8125 Q912.7031,772.1875 913.9375,772.1875 Q914.6719,772.1875 915.3125,772.3594 Q915.9688,772.5156 916.5156,772.875 Z " fill="#000000"/><text fill="#000000" font-family="sans-serif" font-size="14" lengthAdjust="spacing" textLength="112" x="934.25" y="782.7285">DistrictsController</text><line style="stroke:#181818;stroke-width:0.5;" x1="846" x2="1102" y1="793" y2="793"/><rect fill="none" height="6" style="stroke:#C82930;stroke-width:1.0;" width="6" x="853" y="804.3047"/><text fill="#000000" font-family="sans-serif" font-size="14" lengthAdjust="spacing" textLength="156" x="865" y="811.5332">equipmentCentreService</text><line style="stroke:#181818;stroke-width:0.5;" x1="846" x2="1102" y1="818.6094" y2="818.6094"/><ellipse cx="856" cy="832.9141" fill="#84BE84" rx="3" ry="3" style="stroke:#038048;stroke-width:1.0;"/><text fill="#000000" font-family="sans-serif" font-size="14" lengthAdjust="spacing" textLength="117" x="865" y="837.1426">Get() | api/Districts</text><ellipse cx="856" cy="850.5234" fill="#84BE84" rx="3" ry="3" style="stroke:#038048;stroke-width:1.0;"/><text fill="#000000" font-family="sans-serif" font-size="14" lengthAdjust="spacing" textLength="232" x="865" y="854.752">GetCentre() | api/Districts/{}/centre/{}</text></g><!--class CacheSignal--><g id="elem_CacheSignal"><rect codeLine="150" fill="#F1F1F1" height="75.2188" id="CacheSignal" rx="2.5" ry="2.5" style="stroke:#181818;stroke-width:0.5;" width="123" x="1182.5" y="948.5"/><ellipse cx="1197.5" cy="964.5" fill="#ADD1B2" rx="11" ry="11" style="stroke:#181818;stroke-width:1.0;"/><path d="M1200.2656,960.375 Q1200.4219,960.1563 1200.6094,960.0469 Q1200.7969,959.9375 1201.0156,959.9375 Q1201.3906,959.9375 1201.625,960.2031 Q1201.8594,960.4531 1201.8594,961.0625 L1201.8594,962.5156 Q1201.8594,963.125 1201.625,963.3906 Q1201.3906,963.6563 1201.0156,963.6563 Q1200.6719,963.6563 1200.4688,963.4531 Q1200.2656,963.2656 1200.1563,962.75 Q1200.1094,962.3906 1199.9219,962.2031 Q1199.5938,961.8281 1198.9844,961.6094 Q1198.375,961.3906 1197.75,961.3906 Q1196.9844,961.3906 1196.3438,961.7188 Q1195.7188,962.0469 1195.2188,962.7969 Q1194.7344,963.5469 1194.7344,964.5781 L1194.7344,965.6719 Q1194.7344,966.9063 1195.625,967.7344 Q1196.5156,968.5469 1198.1094,968.5469 Q1199.0469,968.5469 1199.7031,968.2969 Q1200.0938,968.1406 1200.5156,967.7031 Q1200.7813,967.4375 1200.9219,967.3594 Q1201.0781,967.2813 1201.2813,967.2813 Q1201.6094,967.2813 1201.8594,967.5469 Q1202.125,967.7969 1202.125,968.1406 Q1202.125,968.4844 1201.7813,968.8906 Q1201.2813,969.4688 1200.4844,969.7969 Q1199.4063,970.25 1198.1094,970.25 Q1196.5938,970.25 1195.3906,969.625 Q1194.4063,969.125 1193.7188,968.0625 Q1193.0313,966.9844 1193.0313,965.7031 L1193.0313,964.5469 Q1193.0313,963.2188 1193.6406,962.0781 Q1194.2656,960.9219 1195.3594,960.3125 Q1196.4531,959.6875 1197.6875,959.6875 Q1198.4219,959.6875 1199.0625,959.8594 Q1199.7188,960.0156 1200.2656,960.375 Z " fill="#000000"/><text fill="#000000" font-family="sans-serif" font-size="14" lengthAdjust="spacing" textLength="80" x="1211.5" y="970.2285">CacheSignal</text><rect fill="#FFFFFF" height="17.0938" style="stroke:#181818;stroke-width:1.0;stroke-dasharray:2.0,2.0;" width="9" x="1299.5" y="945.5"/><text fill="#000000" font-family="sans-serif" font-size="12" font-style="italic" lengthAdjust="spacing" textLength="7" x="1300.5" y="958.957">T</text><line style="stroke:#181818;stroke-width:0.5;" x1="1183.5" x2="1304.5" y1="980.5" y2="980.5"/><ellipse cx="1193.5" cy="994.8047" fill="#84BE84" rx="3" ry="3" style="stroke:#038048;stroke-width:1.0;"/><text fill="#000000" font-family="sans-serif" font-size="14" lengthAdjust="spacing" textLength="76" x="1202.5" y="999.0332">WaitAsync()</text><ellipse cx="1193.5" cy="1012.4141" fill="#84BE84" rx="3" ry="3" style="stroke:#038048;stroke-width:1.0;"/><text fill="#000000" font-family="sans-serif" font-size="14" lengthAdjust="spacing" textLength="62" x="1202.5" y="1016.6426">Release()</text></g><!--class DistrictsCacheWorker--><g id="elem_DistrictsCacheWorker"><rect codeLine="157" fill="#F1F1F1" height="153.6563" id="DistrictsCacheWorker" rx="2.5" ry="2.5" style="stroke:#181818;stroke-width:0.5;" width="169" x="1159.5" y="734.5"/><ellipse cx="1174.5" cy="750.5" fill="#ADD1B2" rx="11" ry="11" style="stroke:#181818;stroke-width:1.0;"/><path d="M1177.2656,746.375 Q1177.4219,746.1563 1177.6094,746.0469 Q1177.7969,745.9375 1178.0156,745.9375 Q1178.3906,745.9375 1178.625,746.2031 Q1178.8594,746.4531 1178.8594,747.0625 L1178.8594,748.5156 Q1178.8594,749.125 1178.625,749.3906 Q1178.3906,749.6563 1178.0156,749.6563 Q1177.6719,749.6563 1177.4688,749.4531 Q1177.2656,749.2656 1177.1563,748.75 Q1177.1094,748.3906 1176.9219,748.2031 Q1176.5938,747.8281 1175.9844,747.6094 Q1175.375,747.3906 1174.75,747.3906 Q1173.9844,747.3906 1173.3438,747.7188 Q1172.7188,748.0469 1172.2188,748.7969 Q1171.7344,749.5469 1171.7344,750.5781 L1171.7344,751.6719 Q1171.7344,752.9063 1172.625,753.7344 Q1173.5156,754.5469 1175.1094,754.5469 Q1176.0469,754.5469 1176.7031,754.2969 Q1177.0938,754.1406 1177.5156,753.7031 Q1177.7813,753.4375 1177.9219,753.3594 Q1178.0781,753.2813 1178.2813,753.2813 Q1178.6094,753.2813 1178.8594,753.5469 Q1179.125,753.7969 1179.125,754.1406 Q1179.125,754.4844 1178.7813,754.8906 Q1178.2813,755.4688 1177.4844,755.7969 Q1176.4063,756.25 1175.1094,756.25 Q1173.5938,756.25 1172.3906,755.625 Q1171.4063,755.125 1170.7188,754.0625 Q1170.0313,752.9844 1170.0313,751.7031 L1170.0313,750.5469 Q1170.0313,749.2188 1170.6406,748.0781 Q1171.2656,746.9219 1172.3594,746.3125 Q1173.4531,745.6875 1174.6875,745.6875 Q1175.4219,745.6875 1176.0625,745.8594 Q1176.7188,746.0156 1177.2656,746.375 Z " fill="#000000"/><text fill="#000000" font-family="sans-serif" font-size="14" lengthAdjust="spacing" textLength="137" x="1188.5" y="756.2285">DistrictsCacheWorker</text><line style="stroke:#181818;stroke-width:0.5;" x1="1160.5" x2="1327.5" y1="766.5" y2="766.5"/><rect fill="none" height="6" style="stroke:#C82930;stroke-width:1.0;" width="6" x="1167.5" y="777.8047"/><text fill="#000000" font-family="sans-serif" font-size="14" lengthAdjust="spacing" textLength="45" x="1179.5" y="785.0332">service</text><rect fill="none" height="6" style="stroke:#C82930;stroke-width:1.0;" width="6" x="1167.5" y="795.4141"/><text fill="#000000" font-family="sans-serif" font-size="14" lengthAdjust="spacing" textLength="77" x="1179.5" y="802.6426">cacheSignal</text><rect fill="none" height="6" style="stroke:#C82930;stroke-width:1.0;" width="6" x="1167.5" y="813.0234"/><text fill="#000000" font-family="sans-serif" font-size="14" lengthAdjust="spacing" textLength="91" x="1179.5" y="820.252">memoryCache</text><rect fill="none" height="6" style="stroke:#C82930;stroke-width:1.0;" width="6" x="1167.5" y="830.6328"/><text fill="#000000" font-family="sans-serif" font-size="14" lengthAdjust="spacing" textLength="40" x="1179.5" y="837.8613">logger</text><line style="stroke:#181818;stroke-width:0.5;" x1="1160.5" x2="1327.5" y1="844.9375" y2="844.9375"/><ellipse cx="1170.5" cy="859.2422" fill="#84BE84" rx="3" ry="3" style="stroke:#038048;stroke-width:1.0;"/><text fill="#000000" font-family="sans-serif" font-size="14" lengthAdjust="spacing" textLength="78" x="1179.5" y="863.4707">StartAsync()</text><polygon fill="#FFFF44" points="1170.5,871.8516,1174.5,875.8516,1170.5,879.8516,1166.5,875.8516" style="stroke:#B38D22;stroke-width:1.0;"/><text fill="#000000" font-family="sans-serif" font-size="14" lengthAdjust="spacing" textLength="98" x="1179.5" y="881.0801">ExecuteAsync()</text></g><!--class BasicGeocoder--><g id="elem_BasicGeocoder"><rect codeLine="235" fill="#F1F1F1" height="136.0469" id="BasicGeocoder" rx="2.5" ry="2.5" style="stroke:#181818;stroke-width:0.5;" width="174" x="2404" y="509"/><ellipse cx="2439.25" cy="525" fill="#ADD1B2" rx="11" ry="11" style="stroke:#181818;stroke-width:1.0;"/><path d="M2442.0156,520.875 Q2442.1719,520.6563 2442.3594,520.5469 Q2442.5469,520.4375 2442.7656,520.4375 Q2443.1406,520.4375 2443.375,520.7031 Q2443.6094,520.9531 2443.6094,521.5625 L2443.6094,523.0156 Q2443.6094,523.625 2443.375,523.8906 Q2443.1406,524.1563 2442.7656,524.1563 Q2442.4219,524.1563 2442.2188,523.9531 Q2442.0156,523.7656 2441.9063,523.25 Q2441.8594,522.8906 2441.6719,522.7031 Q2441.3438,522.3281 2440.7344,522.1094 Q2440.125,521.8906 2439.5,521.8906 Q2438.7344,521.8906 2438.0938,522.2188 Q2437.4688,522.5469 2436.9688,523.2969 Q2436.4844,524.0469 2436.4844,525.0781 L2436.4844,526.1719 Q2436.4844,527.4063 2437.375,528.2344 Q2438.2656,529.0469 2439.8594,529.0469 Q2440.7969,529.0469 2441.4531,528.7969 Q2441.8438,528.6406 2442.2656,528.2031 Q2442.5313,527.9375 2442.6719,527.8594 Q2442.8281,527.7813 2443.0313,527.7813 Q2443.3594,527.7813 2443.6094,528.0469 Q2443.875,528.2969 2443.875,528.6406 Q2443.875,528.9844 2443.5313,529.3906 Q2443.0313,529.9688 2442.2344,530.2969 Q2441.1563,530.75 2439.8594,530.75 Q2438.3438,530.75 2437.1406,530.125 Q2436.1563,529.625 2435.4688,528.5625 Q2434.7813,527.4844 2434.7813,526.2031 L2434.7813,525.0469 Q2434.7813,523.7188 2435.3906,522.5781 Q2436.0156,521.4219 2437.1094,520.8125 Q2438.2031,520.1875 2439.4375,520.1875 Q2440.1719,520.1875 2440.8125,520.3594 Q2441.4688,520.5156 2442.0156,520.875 Z " fill="#000000"/><text fill="#000000" font-family="sans-serif" font-size="14" lengthAdjust="spacing" textLength="97" x="2457.75" y="530.7285">BasicGeocoder</text><line style="stroke:#181818;stroke-width:0.5;" x1="2405" x2="2577" y1="541" y2="541"/><rect fill="none" height="6" style="stroke:#C82930;stroke-width:1.0;" width="6" x="2412" y="552.3047"/><text fill="#000000" font-family="sans-serif" font-size="14" lengthAdjust="spacing" textLength="97" x="2424" y="559.5332">requestOptions</text><rect fill="none" height="6" style="stroke:#C82930;stroke-width:1.0;" width="6" x="2412" y="569.9141"/><text fill="#000000" font-family="sans-serif" font-size="14" lengthAdjust="spacing" textLength="60" x="2424" y="577.1426">httpClient</text><line style="stroke:#181818;stroke-width:0.5;" x1="2405" x2="2577" y1="584.2188" y2="584.2188"/><ellipse cx="2415" cy="598.5234" fill="#84BE84" rx="3" ry="3" style="stroke:#038048;stroke-width:1.0;"/><text fill="#000000" font-family="sans-serif" font-size="14" lengthAdjust="spacing" textLength="80" x="2424" y="602.752">SetOptions()</text><ellipse cx="2415" cy="616.1328" fill="#84BE84" rx="3" ry="3" style="stroke:#038048;stroke-width:1.0;"/><text fill="#000000" font-family="sans-serif" font-size="14" lengthAdjust="spacing" textLength="110" x="2424" y="620.3613">GetCoordinates()</text><ellipse cx="2415" cy="633.7422" fill="#84BE84" rx="3" ry="3" style="stroke:#038048;stroke-width:1.0;"/><text fill="#000000" font-family="sans-serif" font-size="14" lengthAdjust="spacing" textLength="148" x="2424" y="637.9707">GetCoordinatesAsync()</text></g><!--class RequestOptions--><g id="elem_RequestOptions"><rect codeLine="243" fill="#F1F1F1" height="66.4141" id="RequestOptions" rx="2.5" ry="2.5" style="stroke:#181818;stroke-width:0.5;" width="156" x="2614" y="544"/><ellipse cx="2638.9" cy="560" fill="#ADD1B2" rx="11" ry="11" style="stroke:#181818;stroke-width:1.0;"/><path d="M2641.6656,555.875 Q2641.8219,555.6563 2642.0094,555.5469 Q2642.1969,555.4375 2642.4156,555.4375 Q2642.7906,555.4375 2643.025,555.7031 Q2643.2594,555.9531 2643.2594,556.5625 L2643.2594,558.0156 Q2643.2594,558.625 2643.025,558.8906 Q2642.7906,559.1563 2642.4156,559.1563 Q2642.0719,559.1563 2641.8688,558.9531 Q2641.6656,558.7656 2641.5563,558.25 Q2641.5094,557.8906 2641.3219,557.7031 Q2640.9938,557.3281 2640.3844,557.1094 Q2639.775,556.8906 2639.15,556.8906 Q2638.3844,556.8906 2637.7438,557.2188 Q2637.1188,557.5469 2636.6188,558.2969 Q2636.1344,559.0469 2636.1344,560.0781 L2636.1344,561.1719 Q2636.1344,562.4063 2637.025,563.2344 Q2637.9156,564.0469 2639.5094,564.0469 Q2640.4469,564.0469 2641.1031,563.7969 Q2641.4938,563.6406 2641.9156,563.2031 Q2642.1813,562.9375 2642.3219,562.8594 Q2642.4781,562.7813 2642.6813,562.7813 Q2643.0094,562.7813 2643.2594,563.0469 Q2643.525,563.2969 2643.525,563.6406 Q2643.525,563.9844 2643.1813,564.3906 Q2642.6813,564.9688 2641.8844,565.2969 Q2640.8063,565.75 2639.5094,565.75 Q2637.9938,565.75 2636.7906,565.125 Q2635.8063,564.625 2635.1188,563.5625 Q2634.4313,562.4844 2634.4313,561.2031 L2634.4313,560.0469 Q2634.4313,558.7188 2635.0406,557.5781 Q2635.6656,556.4219 2636.7594,555.8125 Q2637.8531,555.1875 2639.0875,555.1875 Q2639.8219,555.1875 2640.4625,555.3594 Q2641.1188,555.5156 2641.6656,555.875 Z " fill="#000000"/><text fill="#000000" font-family="sans-serif" font-size="14" lengthAdjust="spacing" textLength="102" x="2655.1" y="565.7285">RequestOptions</text><line style="stroke:#181818;stroke-width:0.5;" x1="2615" x2="2769" y1="576" y2="576"/><line style="stroke:#181818;stroke-width:1.0;stroke-dasharray:1.0,2.0;" x1="2615" x2="2618" y1="592.8047" y2="592.8047"/><text fill="#000000" font-family="sans-serif" font-size="14" lengthAdjust="spacing" textLength="148" x="2618" y="598.0332">. see IRequestOptions .</text><line style="stroke:#181818;stroke-width:1.0;stroke-dasharray:1.0,2.0;" x1="2766" x2="2769" y1="592.8047" y2="592.8047"/></g><!--class IGeocoder--><g id="elem_IGeocoder"><rect codeLine="178" fill="#F1F1F1" height="100.8281" id="IGeocoder" rx="2.5" ry="2.5" style="stroke:#181818;stroke-width:0.5;" width="160" x="2419" y="191.5"/><ellipse cx="2461.45" cy="207.5" fill="#B4A7E5" rx="11" ry="11" style="stroke:#181818;stroke-width:1.0;"/><path d="M2462.4031,204.1406 L2462.4031,210.7969 L2464.1219,210.7969 Q2464.7313,210.7969 2464.9969,211.0313 Q2465.2625,211.2656 2465.2625,211.6563 Q2465.2625,212.0313 2464.9969,212.2656 Q2464.7313,212.5 2464.1219,212.5 L2458.9813,212.5 Q2458.3719,212.5 2458.1063,212.2656 Q2457.8406,212.0313 2457.8406,211.6406 Q2457.8406,211.2656 2458.1063,211.0313 Q2458.3719,210.7969 2458.9813,210.7969 L2460.7,210.7969 L2460.7,204.1406 L2458.9813,204.1406 Q2458.3719,204.1406 2458.1063,203.9063 Q2457.8406,203.6719 2457.8406,203.2813 Q2457.8406,202.9063 2458.1063,202.6719 Q2458.3719,202.4375 2458.9813,202.4375 L2464.1219,202.4375 Q2464.7313,202.4375 2464.9969,202.6719 Q2465.2625,202.9063 2465.2625,203.2813 Q2465.2625,203.6719 2464.9969,203.9063 Q2464.7313,204.1406 2464.1219,204.1406 L2462.4031,204.1406 Z " fill="#000000"/><text fill="#000000" font-family="sans-serif" font-size="14" font-style="italic" lengthAdjust="spacing" textLength="67" x="2481.55" y="213.2285">IGeocoder</text><line style="stroke:#181818;stroke-width:0.5;" x1="2420" x2="2578" y1="223.5" y2="223.5"/><line style="stroke:#181818;stroke-width:0.5;" x1="2420" x2="2578" y1="231.5" y2="231.5"/><text fill="#000000" font-family="sans-serif" font-size="14" lengthAdjust="spacing" textLength="80" x="2425" y="250.0332">SetOptions()</text><text fill="#000000" font-family="sans-serif" font-size="14" lengthAdjust="spacing" textLength="110" x="2425" y="267.6426">GetCoordinates()</text><text fill="#000000" font-family="sans-serif" font-size="14" lengthAdjust="spacing" textLength="148" x="2425" y="285.252">GetCoordinatesAsync()</text></g><!--class IRequestOptions--><g id="elem_IRequestOptions"><rect codeLine="184" fill="#F1F1F1" height="312.1406" id="IRequestOptions" rx="2.5" ry="2.5" style="stroke:#181818;stroke-width:0.5;" width="140" x="2614" y="86"/><ellipse cx="2629.9" cy="102" fill="#B4A7E5" rx="11" ry="11" style="stroke:#181818;stroke-width:1.0;"/><path d="M2630.8531,98.6406 L2630.8531,105.2969 L2632.5719,105.2969 Q2633.1813,105.2969 2633.4469,105.5313 Q2633.7125,105.7656 2633.7125,106.1563 Q2633.7125,106.5313 2633.4469,106.7656 Q2633.1813,107 2632.5719,107 L2627.4313,107 Q2626.8219,107 2626.5563,106.7656 Q2626.2906,106.5313 2626.2906,106.1406 Q2626.2906,105.7656 2626.5563,105.5313 Q2626.8219,105.2969 2627.4313,105.2969 L2629.15,105.2969 L2629.15,98.6406 L2627.4313,98.6406 Q2626.8219,98.6406 2626.5563,98.4063 Q2626.2906,98.1719 2626.2906,97.7813 Q2626.2906,97.4063 2626.5563,97.1719 Q2626.8219,96.9375 2627.4313,96.9375 L2632.5719,96.9375 Q2633.1813,96.9375 2633.4469,97.1719 Q2633.7125,97.4063 2633.7125,97.7813 Q2633.7125,98.1719 2633.4469,98.4063 Q2633.1813,98.6406 2632.5719,98.6406 L2630.8531,98.6406 Z " fill="#000000"/><text fill="#000000" font-family="sans-serif" font-size="14" font-style="italic" lengthAdjust="spacing" textLength="106" x="2644.1" y="107.7285">IRequestOptions</text><line style="stroke:#181818;stroke-width:0.5;" x1="2615" x2="2753" y1="118" y2="118"/><text fill="#000000" font-family="sans-serif" font-size="14" lengthAdjust="spacing" textLength="44" x="2620" y="136.5332">ApiKey</text><text fill="#000000" font-family="sans-serif" font-size="14" lengthAdjust="spacing" textLength="64" x="2620" y="154.1426">Language</text><text fill="#000000" font-family="sans-serif" font-size="14" lengthAdjust="spacing" textLength="69" x="2620" y="171.752">Categories</text><text fill="#000000" font-family="sans-serif" font-size="14" lengthAdjust="spacing" textLength="118" x="2620" y="189.3613">ExcludeCategories</text><text fill="#000000" font-family="sans-serif" font-size="14" lengthAdjust="spacing" textLength="27" x="2620" y="206.9707">Text</text><text fill="#000000" font-family="sans-serif" font-size="14" lengthAdjust="spacing" textLength="61" x="2620" y="224.5801">WordText</text><text fill="#000000" font-family="sans-serif" font-size="14" lengthAdjust="spacing" textLength="30" x="2620" y="242.1895">Near</text><text fill="#000000" font-family="sans-serif" font-size="14" lengthAdjust="spacing" textLength="74" x="2620" y="259.7988">NearRadius</text><text fill="#000000" font-family="sans-serif" font-size="14" lengthAdjust="spacing" textLength="37" x="2620" y="277.4082">Order</text><text fill="#000000" font-family="sans-serif" font-size="14" lengthAdjust="spacing" textLength="103" x="2620" y="295.0176">IntersectionArea</text><text fill="#000000" font-family="sans-serif" font-size="14" lengthAdjust="spacing" textLength="86" x="2620" y="312.627">ContainsArea</text><text fill="#000000" font-family="sans-serif" font-size="14" lengthAdjust="spacing" textLength="35" x="2620" y="330.2363">Zoom</text><text fill="#000000" font-family="sans-serif" font-size="14" lengthAdjust="spacing" textLength="29" x="2620" y="347.8457">Limit</text><text fill="#000000" font-family="sans-serif" font-size="14" lengthAdjust="spacing" textLength="84" x="2620" y="365.4551">CountryCode</text><text fill="#000000" font-family="sans-serif" font-size="14" lengthAdjust="spacing" textLength="128" x="2620" y="383.0645">CountryCodePriority</text><line style="stroke:#181818;stroke-width:0.5;" x1="2615" x2="2753" y1="390.1406" y2="390.1406"/></g><!--class Response--><g id="elem_Response"><rect codeLine="206" fill="#F1F1F1" height="32" id="Response" rx="2.5" ry="2.5" style="stroke:#181818;stroke-width:0.5;" width="96" x="2519" y="795.5"/><ellipse cx="2534" cy="811.5" fill="#F1F1F1" rx="11" ry="11" style="stroke:#181818;stroke-width:1.0;"/><path d="M2532.1094,816.0625 Q2531.8906,816.3281 2531.75,816.4063 Q2531.6094,816.4844 2531.4219,816.4844 Q2531.0313,816.4844 2530.7813,816.2188 Q2530.5469,815.9531 2530.5469,815.3594 L2530.5469,814.2031 Q2530.5469,813.5938 2530.7813,813.3438 Q2531.0313,813.0781 2531.4219,813.0781 Q2531.7188,813.0781 2531.9219,813.2344 Q2532.125,813.3906 2532.2344,813.7656 Q2532.3438,814.125 2532.4531,814.2656 Q2532.7031,814.5156 2533.3125,814.7813 Q2533.9219,815.0469 2534.6563,815.0469 Q2535.7969,815.0469 2536.5156,814.5156 Q2536.9844,814.1875 2536.9844,813.7188 Q2536.9844,813.4063 2536.7656,813.125 Q2536.5469,812.8438 2536.0313,812.6719 Q2535.7031,812.5469 2534.5469,812.3281 Q2533.1563,812.0625 2532.4375,811.7031 Q2531.7188,811.3438 2531.2969,810.6875 Q2530.8906,810.0156 2530.8906,809.2344 Q2530.8906,808.0156 2531.9063,807.1094 Q2532.9375,806.1875 2534.5781,806.1875 Q2535.2344,806.1875 2535.7813,806.3281 Q2536.3438,806.4688 2536.8125,806.7656 Q2537.1406,806.4531 2537.4688,806.4531 Q2537.8438,806.4531 2538.0781,806.7188 Q2538.3125,806.9688 2538.3125,807.5781 L2538.3125,808.8594 Q2538.3125,809.4688 2538.0781,809.7344 Q2537.8438,809.9844 2537.4688,809.9844 Q2537.1563,809.9844 2536.9219,809.7969 Q2536.7344,809.6563 2536.6406,809.2344 Q2536.5625,808.8125 2536.4219,808.625 Q2536.1719,808.3125 2535.6875,808.1094 Q2535.2188,807.8906 2534.5781,807.8906 Q2533.6563,807.8906 2533.125,808.3125 Q2532.5938,808.7344 2532.5938,809.2031 Q2532.5938,809.5156 2532.8125,809.8125 Q2533.0313,810.1094 2533.4531,810.2813 Q2533.7344,810.3906 2535.0313,810.6563 Q2536.3438,810.9063 2537.0469,811.2188 Q2537.75,811.5156 2538.2188,812.1719 Q2538.6875,812.8281 2538.6875,813.7344 Q2538.6875,815 2537.7969,815.75 Q2536.6094,816.75 2534.7813,816.75 Q2534.0781,816.75 2533.4063,816.5781 Q2532.75,816.4063 2532.1094,816.0625 Z " fill="#000000"/><text fill="#000000" font-family="sans-serif" font-size="14" lengthAdjust="spacing" textLength="64" x="2548" y="817.2285">Response</text></g><!--class Properties--><g id="elem_Properties"><rect codeLine="207" fill="#F1F1F1" height="32" id="Properties" rx="2.5" ry="2.5" style="stroke:#181818;stroke-width:0.5;" width="97" x="2443.5" y="970"/><ellipse cx="2458.5" cy="986" fill="#F1F1F1" rx="11" ry="11" style="stroke:#181818;stroke-width:1.0;"/><path d="M2456.6094,990.5625 Q2456.3906,990.8281 2456.25,990.9063 Q2456.1094,990.9844 2455.9219,990.9844 Q2455.5313,990.9844 2455.2813,990.7188 Q2455.0469,990.4531 2455.0469,989.8594 L2455.0469,988.7031 Q2455.0469,988.0938 2455.2813,987.8438 Q2455.5313,987.5781 2455.9219,987.5781 Q2456.2188,987.5781 2456.4219,987.7344 Q2456.625,987.8906 2456.7344,988.2656 Q2456.8438,988.625 2456.9531,988.7656 Q2457.2031,989.0156 2457.8125,989.2813 Q2458.4219,989.5469 2459.1563,989.5469 Q2460.2969,989.5469 2461.0156,989.0156 Q2461.4844,988.6875 2461.4844,988.2188 Q2461.4844,987.9063 2461.2656,987.625 Q2461.0469,987.3438 2460.5313,987.1719 Q2460.2031,987.0469 2459.0469,986.8281 Q2457.6563,986.5625 2456.9375,986.2031 Q2456.2188,985.8438 2455.7969,985.1875 Q2455.3906,984.5156 2455.3906,983.7344 Q2455.3906,982.5156 2456.4063,981.6094 Q2457.4375,980.6875 2459.0781,980.6875 Q2459.7344,980.6875 2460.2813,980.8281 Q2460.8438,980.9688 2461.3125,981.2656 Q2461.6406,980.9531 2461.9688,980.9531 Q2462.3438,980.9531 2462.5781,981.2188 Q2462.8125,981.4688 2462.8125,982.0781 L2462.8125,983.3594 Q2462.8125,983.9688 2462.5781,984.2344 Q2462.3438,984.4844 2461.9688,984.4844 Q2461.6563,984.4844 2461.4219,984.2969 Q2461.2344,984.1563 2461.1406,983.7344 Q2461.0625,983.3125 2460.9219,983.125 Q2460.6719,982.8125 2460.1875,982.6094 Q2459.7188,982.3906 2459.0781,982.3906 Q2458.1563,982.3906 2457.625,982.8125 Q2457.0938,983.2344 2457.0938,983.7031 Q2457.0938,984.0156 2457.3125,984.3125 Q2457.5313,984.6094 2457.9531,984.7813 Q2458.2344,984.8906 2459.5313,985.1563 Q2460.8438,985.4063 2461.5469,985.7188 Q2462.25,986.0156 2462.7188,986.6719 Q2463.1875,987.3281 2463.1875,988.2344 Q2463.1875,989.5 2462.2969,990.25 Q2461.1094,991.25 2459.2813,991.25 Q2458.5781,991.25 2457.9063,991.0781 Q2457.25,990.9063 2456.6094,990.5625 Z " fill="#000000"/><text fill="#000000" font-family="sans-serif" font-size="14" lengthAdjust="spacing" textLength="65" x="2472.5" y="991.7285">Properties</text></g><!--class GeoCentroid--><g id="elem_GeoCentroid"><rect codeLine="208" fill="#F1F1F1" height="32" id="GeoCentroid" rx="2.5" ry="2.5" style="stroke:#181818;stroke-width:0.5;" width="113" x="2575.5" y="970"/><ellipse cx="2590.5" cy="986" fill="#F1F1F1" rx="11" ry="11" style="stroke:#181818;stroke-width:1.0;"/><path d="M2588.6094,990.5625 Q2588.3906,990.8281 2588.25,990.9063 Q2588.1094,990.9844 2587.9219,990.9844 Q2587.5313,990.9844 2587.2813,990.7188 Q2587.0469,990.4531 2587.0469,989.8594 L2587.0469,988.7031 Q2587.0469,988.0938 2587.2813,987.8438 Q2587.5313,987.5781 2587.9219,987.5781 Q2588.2188,987.5781 2588.4219,987.7344 Q2588.625,987.8906 2588.7344,988.2656 Q2588.8438,988.625 2588.9531,988.7656 Q2589.2031,989.0156 2589.8125,989.2813 Q2590.4219,989.5469 2591.1563,989.5469 Q2592.2969,989.5469 2593.0156,989.0156 Q2593.4844,988.6875 2593.4844,988.2188 Q2593.4844,987.9063 2593.2656,987.625 Q2593.0469,987.3438 2592.5313,987.1719 Q2592.2031,987.0469 2591.0469,986.8281 Q2589.6563,986.5625 2588.9375,986.2031 Q2588.2188,985.8438 2587.7969,985.1875 Q2587.3906,984.5156 2587.3906,983.7344 Q2587.3906,982.5156 2588.4063,981.6094 Q2589.4375,980.6875 2591.0781,980.6875 Q2591.7344,980.6875 2592.2813,980.8281 Q2592.8438,980.9688 2593.3125,981.2656 Q2593.6406,980.9531 2593.9688,980.9531 Q2594.3438,980.9531 2594.5781,981.2188 Q2594.8125,981.4688 2594.8125,982.0781 L2594.8125,983.3594 Q2594.8125,983.9688 2594.5781,984.2344 Q2594.3438,984.4844 2593.9688,984.4844 Q2593.6563,984.4844 2593.4219,984.2969 Q2593.2344,984.1563 2593.1406,983.7344 Q2593.0625,983.3125 2592.9219,983.125 Q2592.6719,982.8125 2592.1875,982.6094 Q2591.7188,982.3906 2591.0781,982.3906 Q2590.1563,982.3906 2589.625,982.8125 Q2589.0938,983.2344 2589.0938,983.7031 Q2589.0938,984.0156 2589.3125,984.3125 Q2589.5313,984.6094 2589.9531,984.7813 Q2590.2344,984.8906 2591.5313,985.1563 Q2592.8438,985.4063 2593.5469,985.7188 Q2594.25,986.0156 2594.7188,986.6719 Q2595.1875,987.3281 2595.1875,988.2344 Q2595.1875,989.5 2594.2969,990.25 Q2593.1094,991.25 2591.2813,991.25 Q2590.5781,991.25 2589.9063,991.0781 Q2589.25,990.9063 2588.6094,990.5625 Z " fill="#000000"/><text fill="#000000" font-family="sans-serif" font-size="14" lengthAdjust="spacing" textLength="81" x="2604.5" y="991.7285">GeoCentroid</text></g><!--class Coordinates--><g id="elem_Coordinates"><rect codeLine="209" fill="#F1F1F1" height="32" id="Coordinates" rx="2.5" ry="2.5" style="stroke:#181818;stroke-width:0.5;" width="109" x="2577.5" y="1103.5"/><ellipse cx="2592.5" cy="1119.5" fill="#F1F1F1" rx="11" ry="11" style="stroke:#181818;stroke-width:1.0;"/><path d="M2590.6094,1124.0625 Q2590.3906,1124.3281 2590.25,1124.4063 Q2590.1094,1124.4844 2589.9219,1124.4844 Q2589.5313,1124.4844 2589.2813,1124.2188 Q2589.0469,1123.9531 2589.0469,1123.3594 L2589.0469,1122.2031 Q2589.0469,1121.5938 2589.2813,1121.3438 Q2589.5313,1121.0781 2589.9219,1121.0781 Q2590.2188,1121.0781 2590.4219,1121.2344 Q2590.625,1121.3906 2590.7344,1121.7656 Q2590.8438,1122.125 2590.9531,1122.2656 Q2591.2031,1122.5156 2591.8125,1122.7813 Q2592.4219,1123.0469 2593.1563,1123.0469 Q2594.2969,1123.0469 2595.0156,1122.5156 Q2595.4844,1122.1875 2595.4844,1121.7188 Q2595.4844,1121.4063 2595.2656,1121.125 Q2595.0469,1120.8438 2594.5313,1120.6719 Q2594.2031,1120.5469 2593.0469,1120.3281 Q2591.6563,1120.0625 2590.9375,1119.7031 Q2590.2188,1119.3438 2589.7969,1118.6875 Q2589.3906,1118.0156 2589.3906,1117.2344 Q2589.3906,1116.0156 2590.4063,1115.1094 Q2591.4375,1114.1875 2593.0781,1114.1875 Q2593.7344,1114.1875 2594.2813,1114.3281 Q2594.8438,1114.4688 2595.3125,1114.7656 Q2595.6406,1114.4531 2595.9688,1114.4531 Q2596.3438,1114.4531 2596.5781,1114.7188 Q2596.8125,1114.9688 2596.8125,1115.5781 L2596.8125,1116.8594 Q2596.8125,1117.4688 2596.5781,1117.7344 Q2596.3438,1117.9844 2595.9688,1117.9844 Q2595.6563,1117.9844 2595.4219,1117.7969 Q2595.2344,1117.6563 2595.1406,1117.2344 Q2595.0625,1116.8125 2594.9219,1116.625 Q2594.6719,1116.3125 2594.1875,1116.1094 Q2593.7188,1115.8906 2593.0781,1115.8906 Q2592.1563,1115.8906 2591.625,1116.3125 Q2591.0938,1116.7344 2591.0938,1117.2031 Q2591.0938,1117.5156 2591.3125,1117.8125 Q2591.5313,1118.1094 2591.9531,1118.2813 Q2592.2344,1118.3906 2593.5313,1118.6563 Q2594.8438,1118.9063 2595.5469,1119.2188 Q2596.25,1119.5156 2596.7188,1120.1719 Q2597.1875,1120.8281 2597.1875,1121.7344 Q2597.1875,1123 2596.2969,1123.75 Q2595.1094,1124.75 2593.2813,1124.75 Q2592.5781,1124.75 2591.9063,1124.5781 Q2591.25,1124.4063 2590.6094,1124.0625 Z " fill="#000000"/><text fill="#000000" font-family="sans-serif" font-size="14" lengthAdjust="spacing" textLength="77" x="2606.5" y="1125.2285">Coordinates</text></g><!--class Categories--><g id="elem_Categories"><rect codeLine="217" fill="#F1F1F1" height="92.8281" id="Categories" rx="2.5" ry="2.5" style="stroke:#181818;stroke-width:0.5;" width="101" x="2796.5" y="765"/><ellipse cx="2811.5" cy="781" fill="#EB937F" rx="11" ry="11" style="stroke:#181818;stroke-width:1.0;"/><path d="M2810.3594,781.7969 L2810.3594,784.2969 L2814.6875,784.2969 L2814.6875,783.375 Q2814.6875,782.7656 2814.9219,782.5 Q2815.1719,782.2344 2815.5469,782.2344 Q2815.9219,782.2344 2816.1563,782.5 Q2816.3906,782.7656 2816.3906,783.375 L2816.3906,786 L2808.3906,786 Q2807.7656,786 2807.5,785.7656 Q2807.25,785.5313 2807.25,785.1406 Q2807.25,784.7656 2807.5156,784.5313 Q2807.7813,784.2969 2808.3906,784.2969 L2808.6563,784.2969 L2808.6563,777.6406 L2808.3906,777.6406 Q2807.7656,777.6406 2807.5,777.4063 Q2807.25,777.1719 2807.25,776.7813 Q2807.25,776.4063 2807.5,776.1719 Q2807.7656,775.9375 2808.3906,775.9375 L2816.0156,775.9375 L2816.0156,778.5313 Q2816.0156,779.1406 2815.7813,779.4063 Q2815.5625,779.6563 2815.1719,779.6563 Q2814.7969,779.6563 2814.5625,779.4063 Q2814.3281,779.1406 2814.3281,778.5313 L2814.3281,777.6406 L2810.3594,777.6406 L2810.3594,780.0938 L2811.8438,780.0938 Q2811.8438,779.4375 2811.9688,779.25 Q2812.2344,778.8438 2812.7031,778.8438 Q2813.0781,778.8438 2813.3125,779.1094 Q2813.5469,779.3594 2813.5469,779.9688 L2813.5469,781.9375 Q2813.5469,782.4844 2813.4219,782.6719 Q2813.1563,783.0625 2812.7031,783.0625 Q2812.2344,783.0625 2811.9688,782.6563 Q2811.8438,782.4688 2811.8438,781.7969 L2810.3594,781.7969 Z " fill="#000000"/><text fill="#000000" font-family="sans-serif" font-size="14" lengthAdjust="spacing" textLength="69" x="2825.5" y="786.7285">Categories</text><line style="stroke:#181818;stroke-width:0.5;" x1="2797.5" x2="2896.5" y1="797" y2="797"/><text fill="#000000" font-family="sans-serif" font-size="14" lengthAdjust="spacing" textLength="58" x="2802.5" y="815.5332">ItService,</text><text fill="#000000" font-family="sans-serif" font-size="14" lengthAdjust="spacing" textLength="65" x="2802.5" y="833.1426">Cemetery,</text><text fill="#000000" font-family="sans-serif" font-size="14" lengthAdjust="spacing" textLength="59" x="2802.5" y="850.752">Prisons...</text></g><!--class Languages--><g id="elem_Languages"><rect codeLine="223" fill="#F1F1F1" height="92.8281" id="Languages" rx="2.5" ry="2.5" style="stroke:#181818;stroke-width:0.5;" width="103" x="2932.5" y="765"/><ellipse cx="2947.5" cy="781" fill="#EB937F" rx="11" ry="11" style="stroke:#181818;stroke-width:1.0;"/><path d="M2946.3594,781.7969 L2946.3594,784.2969 L2950.6875,784.2969 L2950.6875,783.375 Q2950.6875,782.7656 2950.9219,782.5 Q2951.1719,782.2344 2951.5469,782.2344 Q2951.9219,782.2344 2952.1563,782.5 Q2952.3906,782.7656 2952.3906,783.375 L2952.3906,786 L2944.3906,786 Q2943.7656,786 2943.5,785.7656 Q2943.25,785.5313 2943.25,785.1406 Q2943.25,784.7656 2943.5156,784.5313 Q2943.7813,784.2969 2944.3906,784.2969 L2944.6563,784.2969 L2944.6563,777.6406 L2944.3906,777.6406 Q2943.7656,777.6406 2943.5,777.4063 Q2943.25,777.1719 2943.25,776.7813 Q2943.25,776.4063 2943.5,776.1719 Q2943.7656,775.9375 2944.3906,775.9375 L2952.0156,775.9375 L2952.0156,778.5313 Q2952.0156,779.1406 2951.7813,779.4063 Q2951.5625,779.6563 2951.1719,779.6563 Q2950.7969,779.6563 2950.5625,779.4063 Q2950.3281,779.1406 2950.3281,778.5313 L2950.3281,777.6406 L2946.3594,777.6406 L2946.3594,780.0938 L2947.8438,780.0938 Q2947.8438,779.4375 2947.9688,779.25 Q2948.2344,778.8438 2948.7031,778.8438 Q2949.0781,778.8438 2949.3125,779.1094 Q2949.5469,779.3594 2949.5469,779.9688 L2949.5469,781.9375 Q2949.5469,782.4844 2949.4219,782.6719 Q2949.1563,783.0625 2948.7031,783.0625 Q2948.2344,783.0625 2947.9688,782.6563 Q2947.8438,782.4688 2947.8438,781.7969 L2946.3594,781.7969 Z " fill="#000000"/><text fill="#000000" font-family="sans-serif" font-size="14" lengthAdjust="spacing" textLength="71" x="2961.5" y="786.7285">Languages</text><line style="stroke:#181818;stroke-width:0.5;" x1="2933.5" x2="3034.5" y1="797" y2="797"/><text fill="#000000" font-family="sans-serif" font-size="14" lengthAdjust="spacing" textLength="63" x="2938.5" y="815.5332">Ukrainian,</text><text fill="#000000" font-family="sans-serif" font-size="14" lengthAdjust="spacing" textLength="50" x="2938.5" y="833.1426">English,</text><text fill="#000000" font-family="sans-serif" font-size="14" lengthAdjust="spacing" textLength="51" x="2938.5" y="850.752">Russian</text></g><!--class Order--><g id="elem_Order"><rect codeLine="229" fill="#F1F1F1" height="75.2188" id="Order" rx="2.5" ry="2.5" style="stroke:#181818;stroke-width:0.5;" width="83" x="2805.5" y="948.5"/><ellipse cx="2826.8" cy="964.5" fill="#EB937F" rx="11" ry="11" style="stroke:#181818;stroke-width:1.0;"/><path d="M2825.6594,965.2969 L2825.6594,967.7969 L2829.9875,967.7969 L2829.9875,966.875 Q2829.9875,966.2656 2830.2219,966 Q2830.4719,965.7344 2830.8469,965.7344 Q2831.2219,965.7344 2831.4563,966 Q2831.6906,966.2656 2831.6906,966.875 L2831.6906,969.5 L2823.6906,969.5 Q2823.0656,969.5 2822.8,969.2656 Q2822.55,969.0313 2822.55,968.6406 Q2822.55,968.2656 2822.8156,968.0313 Q2823.0813,967.7969 2823.6906,967.7969 L2823.9563,967.7969 L2823.9563,961.1406 L2823.6906,961.1406 Q2823.0656,961.1406 2822.8,960.9063 Q2822.55,960.6719 2822.55,960.2813 Q2822.55,959.9063 2822.8,959.6719 Q2823.0656,959.4375 2823.6906,959.4375 L2831.3156,959.4375 L2831.3156,962.0313 Q2831.3156,962.6406 2831.0813,962.9063 Q2830.8625,963.1563 2830.4719,963.1563 Q2830.0969,963.1563 2829.8625,962.9063 Q2829.6281,962.6406 2829.6281,962.0313 L2829.6281,961.1406 L2825.6594,961.1406 L2825.6594,963.5938 L2827.1438,963.5938 Q2827.1438,962.9375 2827.2688,962.75 Q2827.5344,962.3438 2828.0031,962.3438 Q2828.3781,962.3438 2828.6125,962.6094 Q2828.8469,962.8594 2828.8469,963.4688 L2828.8469,965.4375 Q2828.8469,965.9844 2828.7219,966.1719 Q2828.4563,966.5625 2828.0031,966.5625 Q2827.5344,966.5625 2827.2688,966.1563 Q2827.1438,965.9688 2827.1438,965.2969 L2825.6594,965.2969 Z " fill="#000000"/><text fill="#000000" font-family="sans-serif" font-size="14" lengthAdjust="spacing" textLength="37" x="2842.2" y="970.2285">Order</text><line style="stroke:#181818;stroke-width:0.5;" x1="2806.5" x2="2887.5" y1="980.5" y2="980.5"/><text fill="#000000" font-family="sans-serif" font-size="14" lengthAdjust="spacing" textLength="71" x="2811.5" y="999.0332">Relevance,</text><text fill="#000000" font-family="sans-serif" font-size="14" lengthAdjust="spacing" textLength="55" x="2811.5" y="1016.6426">Distance</text></g><!--reverse link District to EquipmentCentre--><g id="link_District_EquipmentCentre"><path codeLine="41" d="M1271.63,242.5 C1283.22,242.5 1283.22,242.5 1294.81,242.5 " fill="none" id="District-backto-EquipmentCentre" style="stroke:#181818;stroke-width:1.0;"/><polygon fill="#181818" points="1259.63,242.5,1265.63,246.5,1271.63,242.5,1265.63,238.5,1259.63,242.5" style="stroke:#181818;stroke-width:1.0;"/></g><!--reverse link EquipmentCentre to MapPoint--><g id="link_EquipmentCentre_MapPoint"><path codeLine="42" d="M1449.1,242.5 C1461,242.5 1461.06,242.5 1472.11,242.5 " fill="none" id="EquipmentCentre-backto-MapPoint" style="stroke:#181818;stroke-width:1.0;"/><polygon fill="none" points="1437.1,242.5,1443.1,246.5,1449.1,242.5,1443.1,238.5,1437.1,242.5" style="stroke:#181818;stroke-width:1.0;"/></g><!--reverse link IDataProvider to WebScraper--><g id="link_IDataProvider_WebScraper"><path codeLine="56" d="M1651.17,297.53 C1651.17,312.61 1651.17,308.5 1651.17,308.5 C1651.17,308.5 1004.97,308.5 765.17,308.5 " fill="none" id="IDataProvider-backto-WebScraper" style="stroke:#181818;stroke-width:1.0;stroke-dasharray:7.0,7.0;"/><polygon fill="none" points="1651.17,279.53,1645.17,297.53,1657.17,297.53,1651.17,279.53" style="stroke:#181818;stroke-width:1.0;"/></g><!--link WebScraper to XPathBuilder--><g id="link_WebScraper_XPathBuilder"><path codeLine="68" d="M677,319.28 C677,372.03 677,435.8 677,489.44 " fill="none" id="WebScraper-to-XPathBuilder" style="stroke:#181818;stroke-width:1.0;"/><polygon fill="#181818" points="677,495.44,681,486.44,677,490.44,673,486.44,677,495.44" style="stroke:#181818;stroke-width:1.0;"/></g><!--reverse link IEquipmentCentreProvider to ApiEquipmentCentreProvider--><g id="link_IEquipmentCentreProvider_ApiEquipmentCentreProvider"><path d="M182,293.04 C182,354.44 182,468.02 182,535.39 " fill="none" id="IEquipmentCentreProvider-backto-ApiEquipmentCentreProvider" style="stroke:#181818;stroke-width:1.0;stroke-dasharray:7.0,7.0;"/><polygon fill="none" points="182,275.04,176,293.04,188,293.04,182,275.04" style="stroke:#181818;stroke-width:1.0;"/></g><!--reverse link IEquipmentCentreProvider to Main--><g id="link_IEquipmentCentreProvider_Main"><path codeLine="97" d="M287.14,242.5 C333.64,242.5 373,242.5 373,242.5 C373,242.5 373,466.52 373,547.9 " fill="none" id="IEquipmentCentreProvider-backto-Main" style="stroke:#181818;stroke-width:1.0;"/><polygon fill="#181818" points="281.14,242.5,290.14,246.5,286.14,242.5,290.14,238.5,281.14,242.5" style="stroke:#181818;stroke-width:1.0;"/></g><!--reverse link IMapPointProvider to VisicomMapPointProvider--><g id="link_IMapPointProvider_VisicomMapPointProvider"><path codeLine="110" d="M1964,289.21 C1964,361.98 1964,527.5 1964,527.5 C1964,527.5 2035.32,527.5 2098.71,527.5 " fill="none" id="IMapPointProvider-backto-VisicomMapPointProvider" style="stroke:#181818;stroke-width:1.0;stroke-dasharray:7.0,7.0;"/><polygon fill="none" points="1964,271.21,1958,289.21,1970,289.21,1964,271.21" style="stroke:#181818;stroke-width:1.0;"/></g><!--reverse link IEquipmentCentreService to VisicomEquipmentCentreService--><g id="link_IEquipmentCentreService_VisicomEquipmentCentreService"><path d="M1523.17,636.65 C1523.17,673.77 1523.17,710.5 1523.17,752.18 " fill="none" id="IEquipmentCentreService-backto-VisicomEquipmentCentreService" style="stroke:#181818;stroke-width:1.0;stroke-dasharray:7.0,7.0;"/><polygon fill="none" points="1523.17,618.65,1517.17,636.65,1529.17,636.65,1523.17,618.65" style="stroke:#181818;stroke-width:1.0;"/></g><!--reverse link IEquipmentCentreService to CachedEquipmentCentreService--><g id="link_IEquipmentCentreService_CachedEquipmentCentreService"><path d="M1662.25,636.65 C1662.25,671.14 1662.25,702.83 1662.25,743.13 " fill="none" id="IEquipmentCentreService-backto-CachedEquipmentCentreService" style="stroke:#181818;stroke-width:1.0;stroke-dasharray:7.0,7.0;"/><polygon fill="none" points="1662.25,618.65,1656.25,636.65,1668.25,636.65,1662.25,618.65" style="stroke:#181818;stroke-width:1.0;"/></g><!--reverse link IDataProvider to VisicomEquipmentCentreService--><g id="link_IDataProvider_VisicomEquipmentCentreService"><path codeLine="134" d="M1635.83,285.55 C1635.83,289.72 1635.83,286.5 1635.83,286.5 C1635.83,286.5 1454.75,286.5 1454.75,286.5 C1454.75,286.5 1454.75,615 1454.75,752.3 " fill="none" id="IDataProvider-backto-VisicomEquipmentCentreService" style="stroke:#181818;stroke-width:1.0;"/><polygon fill="#181818" points="1635.83,279.55,1631.83,288.55,1635.83,284.55,1639.83,288.55,1635.83,279.55" style="stroke:#181818;stroke-width:1.0;"/></g><!--reverse link IMapPointProvider to VisicomEquipmentCentreService--><g id="link_IMapPointProvider_VisicomEquipmentCentreService"><path codeLine="135" d="M1872.5,277.12 C1872.5,377.44 1872.5,696.5 1872.5,696.5 C1872.5,696.5 1572.83,696.5 1572.83,696.5 C1572.83,696.5 1572.83,724.14 1572.83,752.32 " fill="none" id="IMapPointProvider-backto-VisicomEquipmentCentreService" style="stroke:#181818;stroke-width:1.0;"/><polygon fill="#181818" points="1872.5,271.12,1868.5,280.12,1872.5,276.12,1876.5,280.12,1872.5,271.12" style="stroke:#181818;stroke-width:1.0;"/></g><!--link CachedEquipmentCentreService to CacheSignal--><g id="link_CachedEquipmentCentreService_CacheSignal"><path codeLine="136" d="M1896.11,811.5 C1908.15,811.5 1913.93,811.5 1924.81,811.5 " fill="none" id="CachedEquipmentCentreService-to-CacheSignal" style="stroke:#181818;stroke-width:1.0;"/><polygon fill="#181818" points="1930.81,811.5,1921.81,807.5,1925.81,811.5,1921.81,815.5,1930.81,811.5" style="stroke:#181818;stroke-width:1.0;"/></g><!--link IEquipmentCentreService to DistrictsController--><g id="link_IEquipmentCentreService_DistrictsController"><path codeLine="146" d="M1473.25,563.5 C1304.47,563.5 974,563.5 974,563.5 C974,563.5 974,676.16 974,748.72 " fill="none" id="IEquipmentCentreService-to-DistrictsController" style="stroke:#181818;stroke-width:1.0;"/><polygon fill="none" points="974,760.72,978,754.72,974,748.72,970,754.72,974,760.72" style="stroke:#181818;stroke-width:1.0;"/></g><!--link IEquipmentCentreService to DistrictsCacheWorker--><g id="link_IEquipmentCentreService_DistrictsCacheWorker"><path codeLine="167" d="M1473.47,591.5 C1400.12,591.5 1311.75,591.5 1311.75,591.5 C1311.75,591.5 1311.75,658.85 1311.75,722.25 " fill="none" id="IEquipmentCentreService-to-DistrictsCacheWorker" style="stroke:#181818;stroke-width:1.0;"/><polygon fill="none" points="1311.75,734.25,1315.75,728.25,1311.75,722.25,1307.75,728.25,1311.75,734.25" style="stroke:#181818;stroke-width:1.0;"/></g><!--reverse link DistrictsCacheWorker to CacheSignal--><g id="link_DistrictsCacheWorker_CacheSignal"><path codeLine="168" d="M1244,900.55 C1244,921.18 1244,930.59 1244,948.06 " fill="none" id="DistrictsCacheWorker-backto-CacheSignal" style="stroke:#181818;stroke-width:1.0;"/><polygon fill="none" points="1244,888.55,1240,894.55,1244,900.55,1248,894.55,1244,888.55" style="stroke:#181818;stroke-width:1.0;"/></g><!--reverse link Response to GeoCentroid--><g id="link_Response_GeoCentroid"><path codeLine="210" d="M2595.25,839.6 C2595.25,872.85 2595.25,936.73 2595.25,969.94 " fill="none" id="Response-backto-GeoCentroid" style="stroke:#181818;stroke-width:1.0;"/><polygon fill="none" points="2595.25,827.6,2591.25,833.6,2595.25,839.6,2599.25,833.6,2595.25,827.6" style="stroke:#181818;stroke-width:1.0;"/></g><!--reverse link Response to Properties--><g id="link_Response_Properties"><path codeLine="211" d="M2529.75,839.6 C2529.75,872.85 2529.75,936.73 2529.75,969.94 " fill="none" id="Response-backto-Properties" style="stroke:#181818;stroke-width:1.0;"/><polygon fill="none" points="2529.75,827.6,2525.75,833.6,2529.75,839.6,2533.75,833.6,2529.75,827.6" style="stroke:#181818;stroke-width:1.0;"/></g><!--reverse link GeoCentroid to Coordinates--><g id="link_GeoCentroid_Coordinates"><path codeLine="212" d="M2632,1014.1 C2632,1039.76 2632,1077.64 2632,1103.34 " fill="none" id="GeoCentroid-backto-Coordinates" style="stroke:#181818;stroke-width:1.0;"/><polygon fill="none" points="2632,1002.1,2628,1008.1,2632,1014.1,2636,1008.1,2632,1002.1" style="stroke:#181818;stroke-width:1.0;"/></g><!--reverse link IGeocoder to BasicGeocoder--><g id="link_IGeocoder_BasicGeocoder"><path d="M2498.5,310.52 C2498.5,368.18 2498.5,444.8 2498.5,508.94 " fill="none" id="IGeocoder-backto-BasicGeocoder" style="stroke:#181818;stroke-width:1.0;stroke-dasharray:7.0,7.0;"/><polygon fill="none" points="2498.5,292.52,2492.5,310.52,2504.5,310.52,2498.5,292.52" style="stroke:#181818;stroke-width:1.0;"/></g><!--reverse link IRequestOptions to RequestOptions--><g id="link_IRequestOptions_RequestOptions"><path d="M2707.33,416.22 C2707.33,470.98 2707.33,509.35 2707.33,543.78 " fill="none" id="IRequestOptions-backto-RequestOptions" style="stroke:#181818;stroke-width:1.0;stroke-dasharray:7.0,7.0;"/><polygon fill="none" points="2707.33,398.22,2701.33,416.22,2713.33,416.22,2707.33,398.22" style="stroke:#181818;stroke-width:1.0;"/></g><!--reverse link RequestOptions to Enums--><g id="link_RequestOptions_Enums"><path codeLine="247" d="M2761,622.1 C2761,637.755 2761,645.64 2761,666.788 C2761,677.362 2761,688.2517 2761,699.0863 C2761,704.5036 2761,709.9071 2761,715.2504 C2761,716.5863 2761,717.9184 2761,719.246 C2761,719.5779 2761,719.9095 2761,720.2408 " fill="none" id="RequestOptions-backto-Enums" style="stroke:#181818;stroke-width:1.0;"/><polygon fill="none" points="2761,610.1,2757,616.1,2761,622.1,2765,616.1,2761,610.1" style="stroke:#181818;stroke-width:1.0;"/></g><!--link BasicGeocoder to Data--><g id="link_BasicGeocoder_Data"><path codeLine="248" d="M2419,645.14 C2419,678.135 2419,717.465 2419,749.5975 C2419,750.0996 2419,744.5999 2419,745.0984 " fill="none" id="BasicGeocoder-to-Data" style="stroke:#181818;stroke-width:1.0;"/><polygon fill="#181818" points="2419,751.0984,2423,742.0984,2419,746.0984,2415,742.0984,2419,751.0984" style="stroke:#181818;stroke-width:1.0;"/></g><!--link IRequestOptions to BasicGeocoder--><g id="link_IRequestOptions_BasicGeocoder"><path codeLine="249" d="M2660.67,398.4 C2660.67,464.51 2660.67,526.5 2660.67,526.5 C2660.67,526.5 2631.89,526.5 2590.32,526.5 " fill="none" id="IRequestOptions-to-BasicGeocoder" style="stroke:#181818;stroke-width:1.0;"/><polygon fill="none" points="2578.32,526.5,2584.32,530.5,2590.32,526.5,2584.32,522.5,2578.32,526.5" style="stroke:#181818;stroke-width:1.0;"/></g><!--link VisicomMapPointProvider to BasicGeocoder--><g id="link_VisicomMapPointProvider_BasicGeocoder"><path codeLine="250" d="M2291.1,577.5 C2327.4,577.5 2350.46,577.5 2385.88,577.5 " fill="none" id="VisicomMapPointProvider-to-BasicGeocoder" style="stroke:#181818;stroke-width:1.0;"/><polygon fill="none" points="2403.88,577.5,2385.88,571.5,2385.88,583.5,2403.88,577.5" style="stroke:#181818;stroke-width:1.0;"/></g><!--SRC=[jLZRRjiu47ttLmZOXstNA-S7WW2kQnJ6fgrXfyrYtnXfOXEHH9MaZ1Y9_ds7icwyIKftAo11mXcICsVE38SKJpJB2ITfaD0Cv3c7W75vPBESH4_a0878EPFdKqhosSiimAyHx8-4GrmDNGHzuV91I4uYILacMc6dfhuZZI5uf934GXkdcGJ-I288DX-995lEJgZ9DHrz9VLz0hd-KT0yXKoky8V3KfopwDrxb-OoIJvID916KhZKIfz1dqc-PVZ_TACgzU4zIWkzBQSfbVG4WzYbW74om4EdYaW6ZNSZziqtiJtsXQHWZnhWYW6yQXkC6MEct56PEFRTP8-CfqGHoHRUiiWZgM0Vjx69vvXnjxYDB69mcP0TR94hk4rCWZz2BpR6UC32piHPjroRWfVSt6JVo3xY9Ay9sJaG9KI8u1uU-cBRn_0ePRvAA1X8p5-4HC-ZSiM1I30OZBwJMAMeYzvp8yqSOfDIuoezZGvNhKe4rw-Bdh-1WSJVMoAF7mgQn5ui6fVRUAbygEQvrGmJhUpnAIfYJr9qajodhB0OTcV0bNwyTBKExQhoz66qob0F_J2yiI7NAOpQopolQMiLmZtm4usyPR1NcGqSfXVeDnm45mujS-hPBA1fde0Q5pzha2yJcuIOQAtZIC5VFXXhlnvOCLG8I_i4ggOW0T87uCAnv6T2ip67iRwDRQEMiMZMAm2-S5o7OMU2HRkQMvu6fbba6BFlLD28fMPR4Fo7A8SSVXGWvDTSRvvQUS8E1uD73JicD1iLO9QzM3KNuywK_rz-zi7_-VIStlYL_k2vBHlAvMd6Xx6lUwsawL0hEIdTFOVaLFTN93f2_CkyZzJodk4zFMGaUHErVmqIHk-0zMAG56DPzARvW_ZZmRbo86Ldu8hXD9OaOvMgnQ-RC1P16FUX0VxT- -0r83czQhTngZLTdAbyzL9UHPKC_neAbm-ja0qwQCDsp_ZJ66Iz05pVtOnT4Uu9bLvkxY018c2GYzLHrzkpkHiF1bEfNtmPYwRmX6yu8_5iP_oySkUoBrttad0l5h-jdo4gv8Ja_7rYl3qOk1JmGbNauQIIvfaUUlAoxZ7AcG0P251FAfBn86CPj4yfTMrOL7Ucd2u-0OkOAltwmugfPhsbTD7j7R3jOcuExA7fA0pCLLeoncEQuGrlM6Y6h7JPiNEtBxerwDPVSDQ6RabsAD1zeqPAE31EZVU6zNEKu9NR8xs3Pxsjmk35rk0N8DmQs96O5lfgNxbvE6-KimAgW2pnOgnRZDK7MqvX2VvXBDKTLcyynjm2sNXUCUCreJU-vHGTbcSZ1dfpsru2NsR6Wv7UgDUF83iGEOOAp74yr_0I9_lmrXBaMfKuZCQcg4UNLjHiKAMFQwwcuDYsD-UIWiOckllhh4Y5st_z2W6ewAAOpjMDhCl3dtfGi3r27fprKOoFG4yMYuKZIwhz6fxxjllsn94_b6Jwmklia51nr0TtXH2ewTjAfww-ZJgHJYGplL9LJuqw-NKvV3uGB4zDjT4QHQq4TTlvRZIkMz3SMQVctY8rzrUelirwKTACTjIhpdIC8nPpgwe5JNmlUnX2nT2EWpfSwaMaJKzpLJpLDErAoNSh2rzl3ErozYy0]--></g></svg>