<?xml version="1.0" encoding="us-ascii" standalone="no"?><svg xmlns="http://www.w3.org/2000/svg" xmlns:xlink="http://www.w3.org/1999/xlink" contentStyleType="text/css" height="1858px" preserveAspectRatio="none" style="width:1565px;height:1858px;background:#FFFFFF;" version="1.1" viewBox="0 0 1565 1858" width="1565px" zoomAndPan="magnify"><defs/><g><!--cluster sprotyvmap--><g id="cluster_sprotyvmap"><path d="M8.5,6 L91.5,6 A3.75,3.75 0 0 1 94,8.5 L101,29.6094 L1555.5,29.6094 A2.5,2.5 0 0 1 1558,32.1094 L1558,802.5 A2.5,2.5 0 0 1 1555.5,805 L8.5,805 A2.5,2.5 0 0 1 6,802.5 L6,8.5 A2.5,2.5 0 0 1 8.5,6 " fill="none" style="stroke:#000000;stroke-width:1.5;"/><line style="stroke:#000000;stroke-width:1.5;" x1="6" x2="101" y1="29.6094" y2="29.6094"/><text fill="#000000" font-family="sans-serif" font-size="14" font-weight="bold" lengthAdjust="spacing" textLength="82" x="10" y="22.5332">sprotyvmap</text></g><!--cluster Shared--><g id="cluster_Shared"><path d="M575.5,289 L626.5,289 A3.75,3.75 0 0 1 629,291.5 L636,312.6094 L1531.5,312.6094 A2.5,2.5 0 0 1 1534,315.1094 L1534,516.5 A2.5,2.5 0 0 1 1531.5,519 L575.5,519 A2.5,2.5 0 0 1 573,516.5 L573,291.5 A2.5,2.5 0 0 1 575.5,289 " fill="none" style="stroke:#000000;stroke-width:1.5;"/><line style="stroke:#000000;stroke-width:1.5;" x1="573" x2="636" y1="312.6094" y2="312.6094"/><text fill="#000000" font-family="sans-serif" font-size="14" font-weight="bold" lengthAdjust="spacing" textLength="50" x="577" y="305.5332">Shared</text></g><!--cluster Abstractions--><g id="cluster_Abstractions"><path d="M1103.5,350.5 L1192.5,350.5 A3.75,3.75 0 0 1 1195,353 L1202,374.1094 L1507.5,374.1094 A2.5,2.5 0 0 1 1510,376.6094 L1510,475 A2.5,2.5 0 0 1 1507.5,477.5 L1103.5,477.5 A2.5,2.5 0 0 1 1101,475 L1101,353 A2.5,2.5 0 0 1 1103.5,350.5 " fill="none" style="stroke:#000000;stroke-width:1.5;"/><line style="stroke:#000000;stroke-width:1.5;" x1="1101" x2="1202" y1="374.1094" y2="374.1094"/><text fill="#000000" font-family="sans-serif" font-size="14" font-weight="bold" lengthAdjust="spacing" textLength="88" x="1105" y="367.0332">Abstractions</text></g><!--cluster Primitives--><g id="cluster_Primitives"><path d="M599.5,333 L670.5,333 A3.75,3.75 0 0 1 673,335.5 L680,356.6094 L1074.5,356.6094 A2.5,2.5 0 0 1 1077,359.1094 L1077,492.5 A2.5,2.5 0 0 1 1074.5,495 L599.5,495 A2.5,2.5 0 0 1 597,492.5 L597,335.5 A2.5,2.5 0 0 1 599.5,333 " fill="none" style="stroke:#000000;stroke-width:1.5;"/><line style="stroke:#000000;stroke-width:1.5;" x1="597" x2="680" y1="356.6094" y2="356.6094"/><text fill="#000000" font-family="sans-serif" font-size="14" font-weight="bold" lengthAdjust="spacing" textLength="70" x="601" y="349.5332">Primitives</text></g><!--cluster EquipmentCentreService--><g id="cluster_EquipmentCentreService"><path d="M950.5,543 L1128.5,543 A3.75,3.75 0 0 1 1131,545.5 L1138,566.6094 L1531.5,566.6094 A2.5,2.5 0 0 1 1534,569.1094 L1534,778.5 A2.5,2.5 0 0 1 1531.5,781 L950.5,781 A2.5,2.5 0 0 1 948,778.5 L948,545.5 A2.5,2.5 0 0 1 950.5,543 " fill="none" style="stroke:#000000;stroke-width:1.5;"/><line style="stroke:#000000;stroke-width:1.5;" x1="948" x2="1138" y1="566.6094" y2="566.6094"/><text fill="#000000" font-family="sans-serif" font-size="14" font-weight="bold" lengthAdjust="spacing" textLength="177" x="952" y="559.5332">EquipmentCentreService</text></g><!--cluster Controllers--><g id="cluster_Controllers"><path d="M1222.5,587 L1302.5,587 A3.75,3.75 0 0 1 1305,589.5 L1312,610.6094 L1507.5,610.6094 A2.5,2.5 0 0 1 1510,613.1094 L1510,754.5 A2.5,2.5 0 0 1 1507.5,757 L1222.5,757 A2.5,2.5 0 0 1 1220,754.5 L1220,589.5 A2.5,2.5 0 0 1 1222.5,587 " fill="none" style="stroke:#000000;stroke-width:1.5;"/><line style="stroke:#000000;stroke-width:1.5;" x1="1220" x2="1312" y1="610.6094" y2="610.6094"/><text fill="#000000" font-family="sans-serif" font-size="14" font-weight="bold" lengthAdjust="spacing" textLength="79" x="1224" y="603.5332">Controllers</text></g><!--cluster Providers--><g id="cluster_Providers"><path d="M974.5,604.5 L1044.5,604.5 A3.75,3.75 0 0 1 1047,607 L1054,628.1094 L1193.5,628.1094 A2.5,2.5 0 0 1 1196,630.6094 L1196,737 A2.5,2.5 0 0 1 1193.5,739.5 L974.5,739.5 A2.5,2.5 0 0 1 972,737 L972,607 A2.5,2.5 0 0 1 974.5,604.5 " fill="none" style="stroke:#000000;stroke-width:1.5;"/><line style="stroke:#000000;stroke-width:1.5;" x1="972" x2="1054" y1="628.1094" y2="628.1094"/><text fill="#000000" font-family="sans-serif" font-size="14" font-weight="bold" lengthAdjust="spacing" textLength="69" x="976" y="621.0332">Providers</text></g><!--cluster SprotyvInUaScraper--><g id="cluster_SprotyvInUaScraper"><path d="M1084.5,50 L1225.5,50 A3.75,3.75 0 0 1 1228,52.5 L1235,73.6094 L1498.5,73.6094 A2.5,2.5 0 0 1 1501,76.1094 L1501,262.5 A2.5,2.5 0 0 1 1498.5,265 L1084.5,265 A2.5,2.5 0 0 1 1082,262.5 L1082,52.5 A2.5,2.5 0 0 1 1084.5,50 " fill="none" style="stroke:#000000;stroke-width:1.5;"/><line style="stroke:#000000;stroke-width:1.5;" x1="1082" x2="1235" y1="73.6094" y2="73.6094"/><text fill="#000000" font-family="sans-serif" font-size="14" font-weight="bold" lengthAdjust="spacing" textLength="140" x="1086" y="66.5332">SprotyvInUaScraper</text></g><!--cluster WebApp--><g id="cluster_WebApp"><path d="M32.5,54.5 L91.5,54.5 A3.75,3.75 0 0 1 94,57 L101,78.1094 L546.5,78.1094 A2.5,2.5 0 0 1 549,80.6094 L549,503 A2.5,2.5 0 0 1 546.5,505.5 L32.5,505.5 A2.5,2.5 0 0 1 30,503 L30,57 A2.5,2.5 0 0 1 32.5,54.5 " fill="none" style="stroke:#000000;stroke-width:1.5;"/><line style="stroke:#000000;stroke-width:1.5;" x1="30" x2="101" y1="78.1094" y2="78.1094"/><text fill="#000000" font-family="sans-serif" font-size="14" font-weight="bold" lengthAdjust="spacing" textLength="58" x="34" y="71.0332">WebApp</text></g><!--cluster Services--><g id="cluster_Services"><path d="M279.5,98.5 L342.5,98.5 A3.75,3.75 0 0 1 345,101 L352,122.1094 L522.5,122.1094 A2.5,2.5 0 0 1 525,124.6094 L525,479 A2.5,2.5 0 0 1 522.5,481.5 L279.5,481.5 A2.5,2.5 0 0 1 277,479 L277,101 A2.5,2.5 0 0 1 279.5,98.5 " fill="none" style="stroke:#000000;stroke-width:1.5;"/><line style="stroke:#000000;stroke-width:1.5;" x1="277" x2="352" y1="122.1094" y2="122.1094"/><text fill="#000000" font-family="sans-serif" font-size="14" font-weight="bold" lengthAdjust="spacing" textLength="62" x="281" y="115.0332">Services</text></g><!--cluster Pages--><g id="cluster_Pages"><path d="M56.5,102.5 L100.5,102.5 A3.75,3.75 0 0 1 103,105 L110,126.1094 L250.5,126.1094 A2.5,2.5 0 0 1 253,128.6094 L253,210 A2.5,2.5 0 0 1 250.5,212.5 L56.5,212.5 A2.5,2.5 0 0 1 54,210 L54,105 A2.5,2.5 0 0 1 56.5,102.5 " fill="none" style="stroke:#000000;stroke-width:1.5;"/><line style="stroke:#000000;stroke-width:1.5;" x1="54" x2="110" y1="126.1094" y2="126.1094"/><text fill="#000000" font-family="sans-serif" font-size="14" font-weight="bold" lengthAdjust="spacing" textLength="43" x="58" y="119.0332">Pages</text></g><!--cluster Visicom.DataApi.Geocoder--><g id="cluster_Visicom.DataApi.Geocoder"><path d="M791.5,829 L977.5,829 A3.75,3.75 0 0 1 980,831.5 L987,852.6094 L1543.5,852.6094 A2.5,2.5 0 0 1 1546,855.1094 L1546,1848.5 A2.5,2.5 0 0 1 1543.5,1851 L791.5,1851 A2.5,2.5 0 0 1 789,1848.5 L789,831.5 A2.5,2.5 0 0 1 791.5,829 " fill="none" style="stroke:#000000;stroke-width:1.5;"/><line style="stroke:#000000;stroke-width:1.5;" x1="789" x2="987" y1="852.6094" y2="852.6094"/><text fill="#000000" font-family="sans-serif" font-size="14" font-weight="bold" lengthAdjust="spacing" textLength="185" x="793" y="845.5332">Visicom.DataApi.Geocoder</text></g><!--cluster Visicom.DataApi.Abstractions--><g id="cluster_Visicom.DataApi.Abstractions"><path d="M815.5,1025 L1019.5,1025 A3.75,3.75 0 0 1 1022,1027.5 L1029,1048.6094 L1177.5,1048.6094 A2.5,2.5 0 0 1 1180,1051.1094 L1180,1386.5 A2.5,2.5 0 0 1 1177.5,1389 L815.5,1389 A2.5,2.5 0 0 1 813,1386.5 L813,1027.5 A2.5,2.5 0 0 1 815.5,1025 " fill="none" style="stroke:#000000;stroke-width:1.5;"/><line style="stroke:#000000;stroke-width:1.5;" x1="813" x2="1029" y1="1048.6094" y2="1048.6094"/><text fill="#000000" font-family="sans-serif" font-size="14" font-weight="bold" lengthAdjust="spacing" textLength="203" x="817" y="1041.5332">Visicom.DataApi.Abstractions</text></g><!--cluster Data--><g id="cluster_Data"><path d="M1214.5,1157 L1246.5,1157 A3.75,3.75 0 0 1 1249,1159.5 L1256,1180.6094 L1511.5,1180.6094 A2.5,2.5 0 0 1 1514,1183.1094 L1514,1651 A2.5,2.5 0 0 1 1511.5,1653.5 L1214.5,1653.5 A2.5,2.5 0 0 1 1212,1651 L1212,1159.5 A2.5,2.5 0 0 1 1214.5,1157 " fill="none" style="stroke:#000000;stroke-width:1.5;"/><line style="stroke:#000000;stroke-width:1.5;" x1="1212" x2="1256" y1="1180.6094" y2="1180.6094"/><text fill="#000000" font-family="sans-serif" font-size="14" font-weight="bold" lengthAdjust="spacing" textLength="31" x="1216" y="1173.5332">Data</text></g><!--cluster Enums--><g id="cluster_Enums"><path d="M867.5,1523 L915.5,1523 A3.75,3.75 0 0 1 918,1525.5 L925,1546.6094 L1169.5,1546.6094 A2.5,2.5 0 0 1 1172,1549.1094 L1172,1816.5 A2.5,2.5 0 0 1 1169.5,1819 L867.5,1819 A2.5,2.5 0 0 1 865,1816.5 L865,1525.5 A2.5,2.5 0 0 1 867.5,1523 " fill="none" style="stroke:#000000;stroke-width:1.5;"/><line style="stroke:#000000;stroke-width:1.5;" x1="865" x2="925" y1="1546.6094" y2="1546.6094"/><text fill="#000000" font-family="sans-serif" font-size="14" font-weight="bold" lengthAdjust="spacing" textLength="47" x="869" y="1539.5332">Enums</text></g><!--class IDataProvider--><g id="elem_IDataProvider"><rect codeLine="9" fill="#F1F1F1" height="75.2188" id="IDataProvider" rx="2.5" ry="2.5" style="stroke:#181818;stroke-width:0.5;" width="193" x="1300.5" y="386.5"/><ellipse cx="1349.75" cy="402.5" fill="#B4A7E5" rx="11" ry="11" style="stroke:#181818;stroke-width:1.0;"/><path d="M1350.7031,399.1406 L1350.7031,405.7969 L1352.4219,405.7969 Q1353.0313,405.7969 1353.2969,406.0313 Q1353.5625,406.2656 1353.5625,406.6563 Q1353.5625,407.0313 1353.2969,407.2656 Q1353.0313,407.5 1352.4219,407.5 L1347.2813,407.5 Q1346.6719,407.5 1346.4063,407.2656 Q1346.1406,407.0313 1346.1406,406.6406 Q1346.1406,406.2656 1346.4063,406.0313 Q1346.6719,405.7969 1347.2813,405.7969 L1349,405.7969 L1349,399.1406 L1347.2813,399.1406 Q1346.6719,399.1406 1346.4063,398.9063 Q1346.1406,398.6719 1346.1406,398.2813 Q1346.1406,397.9063 1346.4063,397.6719 Q1346.6719,397.4375 1347.2813,397.4375 L1352.4219,397.4375 Q1353.0313,397.4375 1353.2969,397.6719 Q1353.5625,397.9063 1353.5625,398.2813 Q1353.5625,398.6719 1353.2969,398.9063 Q1353.0313,399.1406 1352.4219,399.1406 L1350.7031,399.1406 Z " fill="#000000"/><text fill="#000000" font-family="sans-serif" font-size="14" font-style="italic" lengthAdjust="spacing" textLength="86" x="1370.25" y="408.2285">IDataProvider</text><line style="stroke:#181818;stroke-width:0.5;" x1="1301.5" x2="1492.5" y1="418.5" y2="418.5"/><text fill="#000000" font-family="sans-serif" font-size="14" lengthAdjust="spacing" textLength="181" x="1306.5" y="437.0332">GetEquipmentCentreAsync()</text><text fill="#000000" font-family="sans-serif" font-size="14" lengthAdjust="spacing" textLength="136" x="1306.5" y="454.6426">GetAllDistrictsAsync()</text></g><!--class IMapPointProvider--><g id="elem_IMapPointProvider"><rect codeLine="14" fill="#F1F1F1" height="57.6094" id="IMapPointProvider" rx="2.5" ry="2.5" style="stroke:#181818;stroke-width:0.5;" width="148" x="1117" y="395"/><ellipse cx="1132" cy="411" fill="#B4A7E5" rx="11" ry="11" style="stroke:#181818;stroke-width:1.0;"/><path d="M1132.9531,407.6406 L1132.9531,414.2969 L1134.6719,414.2969 Q1135.2813,414.2969 1135.5469,414.5313 Q1135.8125,414.7656 1135.8125,415.1563 Q1135.8125,415.5313 1135.5469,415.7656 Q1135.2813,416 1134.6719,416 L1129.5313,416 Q1128.9219,416 1128.6563,415.7656 Q1128.3906,415.5313 1128.3906,415.1406 Q1128.3906,414.7656 1128.6563,414.5313 Q1128.9219,414.2969 1129.5313,414.2969 L1131.25,414.2969 L1131.25,407.6406 L1129.5313,407.6406 Q1128.9219,407.6406 1128.6563,407.4063 Q1128.3906,407.1719 1128.3906,406.7813 Q1128.3906,406.4063 1128.6563,406.1719 Q1128.9219,405.9375 1129.5313,405.9375 L1134.6719,405.9375 Q1135.2813,405.9375 1135.5469,406.1719 Q1135.8125,406.4063 1135.8125,406.7813 Q1135.8125,407.1719 1135.5469,407.4063 Q1135.2813,407.6406 1134.6719,407.6406 L1132.9531,407.6406 Z " fill="#000000"/><text fill="#000000" font-family="sans-serif" font-size="14" font-style="italic" lengthAdjust="spacing" textLength="116" x="1146" y="416.7285">IMapPointProvider</text><line style="stroke:#181818;stroke-width:0.5;" x1="1118" x2="1264" y1="427" y2="427"/><text fill="#000000" font-family="sans-serif" font-size="14" lengthAdjust="spacing" textLength="103" x="1123" y="445.5332">GetPointAsync()</text></g><!--class District--><g id="elem_District"><rect codeLine="22" fill="#F1F1F1" height="92.8281" id="District" rx="2.5" ry="2.5" style="stroke:#181818;stroke-width:0.5;" width="143" x="613.5" y="377.5"/><ellipse cx="659.25" cy="393.5" fill="#F1F1F1" rx="11" ry="11" style="stroke:#181818;stroke-width:1.0;"/><path d="M657.3594,398.0625 Q657.1406,398.3281 657,398.4063 Q656.8594,398.4844 656.6719,398.4844 Q656.2813,398.4844 656.0313,398.2188 Q655.7969,397.9531 655.7969,397.3594 L655.7969,396.2031 Q655.7969,395.5938 656.0313,395.3438 Q656.2813,395.0781 656.6719,395.0781 Q656.9688,395.0781 657.1719,395.2344 Q657.375,395.3906 657.4844,395.7656 Q657.5938,396.125 657.7031,396.2656 Q657.9531,396.5156 658.5625,396.7813 Q659.1719,397.0469 659.9063,397.0469 Q661.0469,397.0469 661.7656,396.5156 Q662.2344,396.1875 662.2344,395.7188 Q662.2344,395.4063 662.0156,395.125 Q661.7969,394.8438 661.2813,394.6719 Q660.9531,394.5469 659.7969,394.3281 Q658.4063,394.0625 657.6875,393.7031 Q656.9688,393.3438 656.5469,392.6875 Q656.1406,392.0156 656.1406,391.2344 Q656.1406,390.0156 657.1563,389.1094 Q658.1875,388.1875 659.8281,388.1875 Q660.4844,388.1875 661.0313,388.3281 Q661.5938,388.4688 662.0625,388.7656 Q662.3906,388.4531 662.7188,388.4531 Q663.0938,388.4531 663.3281,388.7188 Q663.5625,388.9688 663.5625,389.5781 L663.5625,390.8594 Q663.5625,391.4688 663.3281,391.7344 Q663.0938,391.9844 662.7188,391.9844 Q662.4063,391.9844 662.1719,391.7969 Q661.9844,391.6563 661.8906,391.2344 Q661.8125,390.8125 661.6719,390.625 Q661.4219,390.3125 660.9375,390.1094 Q660.4688,389.8906 659.8281,389.8906 Q658.9063,389.8906 658.375,390.3125 Q657.8438,390.7344 657.8438,391.2031 Q657.8438,391.5156 658.0625,391.8125 Q658.2813,392.1094 658.7031,392.2813 Q658.9844,392.3906 660.2813,392.6563 Q661.5938,392.9063 662.2969,393.2188 Q663,393.5156 663.4688,394.1719 Q663.9375,394.8281 663.9375,395.7344 Q663.9375,397 663.0469,397.75 Q661.8594,398.75 660.0313,398.75 Q659.3281,398.75 658.6563,398.5781 Q658,398.4063 657.3594,398.0625 Z " fill="#000000"/><text fill="#000000" font-family="sans-serif" font-size="14" lengthAdjust="spacing" textLength="43" x="679.75" y="399.2285">District</text><line style="stroke:#181818;stroke-width:0.5;" x1="614.5" x2="755.5" y1="409.5" y2="409.5"/><ellipse cx="624.5" cy="423.8047" fill="none" rx="3" ry="3" style="stroke:#038048;stroke-width:1.0;"/><text fill="#000000" font-family="sans-serif" font-size="14" lengthAdjust="spacing" textLength="11" x="633.5" y="428.0332">Id</text><ellipse cx="624.5" cy="441.4141" fill="none" rx="3" ry="3" style="stroke:#038048;stroke-width:1.0;"/><text fill="#000000" font-family="sans-serif" font-size="14" lengthAdjust="spacing" textLength="36" x="633.5" y="445.6426">Name</text><ellipse cx="624.5" cy="459.0234" fill="none" rx="3" ry="3" style="stroke:#038048;stroke-width:1.0;"/><text fill="#000000" font-family="sans-serif" font-size="14" lengthAdjust="spacing" textLength="117" x="633.5" y="463.252">EquipmentCentres</text></g><!--class EquipmentCentre--><g id="elem_EquipmentCentre"><rect codeLine="28" fill="#F1F1F1" height="110.4375" id="EquipmentCentre" rx="2.5" ry="2.5" style="stroke:#181818;stroke-width:0.5;" width="142" x="792" y="369"/><ellipse cx="807" cy="385" fill="#F1F1F1" rx="11" ry="11" style="stroke:#181818;stroke-width:1.0;"/><path d="M805.1094,389.5625 Q804.8906,389.8281 804.75,389.9063 Q804.6094,389.9844 804.4219,389.9844 Q804.0313,389.9844 803.7813,389.7188 Q803.5469,389.4531 803.5469,388.8594 L803.5469,387.7031 Q803.5469,387.0938 803.7813,386.8438 Q804.0313,386.5781 804.4219,386.5781 Q804.7188,386.5781 804.9219,386.7344 Q805.125,386.8906 805.2344,387.2656 Q805.3438,387.625 805.4531,387.7656 Q805.7031,388.0156 806.3125,388.2813 Q806.9219,388.5469 807.6563,388.5469 Q808.7969,388.5469 809.5156,388.0156 Q809.9844,387.6875 809.9844,387.2188 Q809.9844,386.9063 809.7656,386.625 Q809.5469,386.3438 809.0313,386.1719 Q808.7031,386.0469 807.5469,385.8281 Q806.1563,385.5625 805.4375,385.2031 Q804.7188,384.8438 804.2969,384.1875 Q803.8906,383.5156 803.8906,382.7344 Q803.8906,381.5156 804.9063,380.6094 Q805.9375,379.6875 807.5781,379.6875 Q808.2344,379.6875 808.7813,379.8281 Q809.3438,379.9688 809.8125,380.2656 Q810.1406,379.9531 810.4688,379.9531 Q810.8438,379.9531 811.0781,380.2188 Q811.3125,380.4688 811.3125,381.0781 L811.3125,382.3594 Q811.3125,382.9688 811.0781,383.2344 Q810.8438,383.4844 810.4688,383.4844 Q810.1563,383.4844 809.9219,383.2969 Q809.7344,383.1563 809.6406,382.7344 Q809.5625,382.3125 809.4219,382.125 Q809.1719,381.8125 808.6875,381.6094 Q808.2188,381.3906 807.5781,381.3906 Q806.6563,381.3906 806.125,381.8125 Q805.5938,382.2344 805.5938,382.7031 Q805.5938,383.0156 805.8125,383.3125 Q806.0313,383.6094 806.4531,383.7813 Q806.7344,383.8906 808.0313,384.1563 Q809.3438,384.4063 810.0469,384.7188 Q810.75,385.0156 811.2188,385.6719 Q811.6875,386.3281 811.6875,387.2344 Q811.6875,388.5 810.7969,389.25 Q809.6094,390.25 807.7813,390.25 Q807.0781,390.25 806.4063,390.0781 Q805.75,389.9063 805.1094,389.5625 Z " fill="#000000"/><text fill="#000000" font-family="sans-serif" font-size="14" lengthAdjust="spacing" textLength="110" x="821" y="390.7285">EquipmentCentre</text><line style="stroke:#181818;stroke-width:0.5;" x1="793" x2="933" y1="401" y2="401"/><ellipse cx="803" cy="415.3047" fill="none" rx="3" ry="3" style="stroke:#038048;stroke-width:1.0;"/><text fill="#000000" font-family="sans-serif" font-size="14" lengthAdjust="spacing" textLength="27" x="812" y="419.5332">Title</text><ellipse cx="803" cy="432.9141" fill="none" rx="3" ry="3" style="stroke:#038048;stroke-width:1.0;"/><text fill="#000000" font-family="sans-serif" font-size="14" lengthAdjust="spacing" textLength="70" x="812" y="437.1426">Information</text><ellipse cx="803" cy="450.5234" fill="none" rx="3" ry="3" style="stroke:#038048;stroke-width:1.0;"/><text fill="#000000" font-family="sans-serif" font-size="14" lengthAdjust="spacing" textLength="54" x="812" y="454.752">Location</text><ellipse cx="803" cy="468.1328" fill="none" rx="3" ry="3" style="stroke:#038048;stroke-width:1.0;"/><text fill="#000000" font-family="sans-serif" font-size="14" lengthAdjust="spacing" textLength="32" x="812" y="472.3613">Point</text></g><!--class MapPoint--><g id="elem_MapPoint"><rect codeLine="35" fill="#F1F1F1" height="75.2188" id="MapPoint" rx="2.5" ry="2.5" style="stroke:#181818;stroke-width:0.5;" width="91" x="969.5" y="386.5"/><ellipse cx="984.5" cy="402.5" fill="#F1F1F1" rx="11" ry="11" style="stroke:#181818;stroke-width:1.0;"/><path d="M982.6094,407.0625 Q982.3906,407.3281 982.25,407.4063 Q982.1094,407.4844 981.9219,407.4844 Q981.5313,407.4844 981.2813,407.2188 Q981.0469,406.9531 981.0469,406.3594 L981.0469,405.2031 Q981.0469,404.5938 981.2813,404.3438 Q981.5313,404.0781 981.9219,404.0781 Q982.2188,404.0781 982.4219,404.2344 Q982.625,404.3906 982.7344,404.7656 Q982.8438,405.125 982.9531,405.2656 Q983.2031,405.5156 983.8125,405.7813 Q984.4219,406.0469 985.1563,406.0469 Q986.2969,406.0469 987.0156,405.5156 Q987.4844,405.1875 987.4844,404.7188 Q987.4844,404.4063 987.2656,404.125 Q987.0469,403.8438 986.5313,403.6719 Q986.2031,403.5469 985.0469,403.3281 Q983.6563,403.0625 982.9375,402.7031 Q982.2188,402.3438 981.7969,401.6875 Q981.3906,401.0156 981.3906,400.2344 Q981.3906,399.0156 982.4063,398.1094 Q983.4375,397.1875 985.0781,397.1875 Q985.7344,397.1875 986.2813,397.3281 Q986.8438,397.4688 987.3125,397.7656 Q987.6406,397.4531 987.9688,397.4531 Q988.3438,397.4531 988.5781,397.7188 Q988.8125,397.9688 988.8125,398.5781 L988.8125,399.8594 Q988.8125,400.4688 988.5781,400.7344 Q988.3438,400.9844 987.9688,400.9844 Q987.6563,400.9844 987.4219,400.7969 Q987.2344,400.6563 987.1406,400.2344 Q987.0625,399.8125 986.9219,399.625 Q986.6719,399.3125 986.1875,399.1094 Q985.7188,398.8906 985.0781,398.8906 Q984.1563,398.8906 983.625,399.3125 Q983.0938,399.7344 983.0938,400.2031 Q983.0938,400.5156 983.3125,400.8125 Q983.5313,401.1094 983.9531,401.2813 Q984.2344,401.3906 985.5313,401.6563 Q986.8438,401.9063 987.5469,402.2188 Q988.25,402.5156 988.7188,403.1719 Q989.1875,403.8281 989.1875,404.7344 Q989.1875,406 988.2969,406.75 Q987.1094,407.75 985.2813,407.75 Q984.5781,407.75 983.9063,407.5781 Q983.25,407.4063 982.6094,407.0625 Z " fill="#000000"/><text fill="#000000" font-family="sans-serif" font-size="14" lengthAdjust="spacing" textLength="59" x="998.5" y="408.2285">MapPoint</text><line style="stroke:#181818;stroke-width:0.5;" x1="970.5" x2="1059.5" y1="418.5" y2="418.5"/><ellipse cx="980.5" cy="432.8047" fill="none" rx="3" ry="3" style="stroke:#038048;stroke-width:1.0;"/><text fill="#000000" font-family="sans-serif" font-size="14" lengthAdjust="spacing" textLength="51" x="989.5" y="437.0332">Latitude</text><ellipse cx="980.5" cy="450.4141" fill="none" rx="3" ry="3" style="stroke:#038048;stroke-width:1.0;"/><text fill="#000000" font-family="sans-serif" font-size="14" lengthAdjust="spacing" textLength="63" x="989.5" y="454.6426">Longitude</text></g><!--class DistrictsController--><g id="elem_DistrictsController"><rect codeLine="49" fill="#F1F1F1" height="118.4375" id="DistrictsController" rx="2.5" ry="2.5" style="stroke:#181818;stroke-width:0.5;" width="258" x="1236" y="623"/><ellipse cx="1304.75" cy="639" fill="#ADD1B2" rx="11" ry="11" style="stroke:#181818;stroke-width:1.0;"/><path d="M1307.5156,634.875 Q1307.6719,634.6563 1307.8594,634.5469 Q1308.0469,634.4375 1308.2656,634.4375 Q1308.6406,634.4375 1308.875,634.7031 Q1309.1094,634.9531 1309.1094,635.5625 L1309.1094,637.0156 Q1309.1094,637.625 1308.875,637.8906 Q1308.6406,638.1563 1308.2656,638.1563 Q1307.9219,638.1563 1307.7188,637.9531 Q1307.5156,637.7656 1307.4063,637.25 Q1307.3594,636.8906 1307.1719,636.7031 Q1306.8438,636.3281 1306.2344,636.1094 Q1305.625,635.8906 1305,635.8906 Q1304.2344,635.8906 1303.5938,636.2188 Q1302.9688,636.5469 1302.4688,637.2969 Q1301.9844,638.0469 1301.9844,639.0781 L1301.9844,640.1719 Q1301.9844,641.4063 1302.875,642.2344 Q1303.7656,643.0469 1305.3594,643.0469 Q1306.2969,643.0469 1306.9531,642.7969 Q1307.3438,642.6406 1307.7656,642.2031 Q1308.0313,641.9375 1308.1719,641.8594 Q1308.3281,641.7813 1308.5313,641.7813 Q1308.8594,641.7813 1309.1094,642.0469 Q1309.375,642.2969 1309.375,642.6406 Q1309.375,642.9844 1309.0313,643.3906 Q1308.5313,643.9688 1307.7344,644.2969 Q1306.6563,644.75 1305.3594,644.75 Q1303.8438,644.75 1302.6406,644.125 Q1301.6563,643.625 1300.9688,642.5625 Q1300.2813,641.4844 1300.2813,640.2031 L1300.2813,639.0469 Q1300.2813,637.7188 1300.8906,636.5781 Q1301.5156,635.4219 1302.6094,634.8125 Q1303.7031,634.1875 1304.9375,634.1875 Q1305.6719,634.1875 1306.3125,634.3594 Q1306.9688,634.5156 1307.5156,634.875 Z " fill="#000000"/><text fill="#000000" font-family="sans-serif" font-size="14" lengthAdjust="spacing" textLength="112" x="1325.25" y="644.7285">DistrictsController</text><line style="stroke:#181818;stroke-width:0.5;" x1="1237" x2="1493" y1="655" y2="655"/><rect fill="none" height="6" style="stroke:#C82930;stroke-width:1.0;" width="6" x="1244" y="666.3047"/><text fill="#000000" font-family="sans-serif" font-size="14" lengthAdjust="spacing" textLength="81" x="1256" y="673.5332">dataProvider</text><rect fill="none" height="6" style="stroke:#C82930;stroke-width:1.0;" width="6" x="1244" y="683.9141"/><text fill="#000000" font-family="sans-serif" font-size="14" lengthAdjust="spacing" textLength="112" x="1256" y="691.1426">mapPointProvider</text><line style="stroke:#181818;stroke-width:0.5;" x1="1237" x2="1493" y1="698.2188" y2="698.2188"/><ellipse cx="1247" cy="712.5234" fill="#84BE84" rx="3" ry="3" style="stroke:#038048;stroke-width:1.0;"/><text fill="#000000" font-family="sans-serif" font-size="14" lengthAdjust="spacing" textLength="117" x="1256" y="716.752">Get() | api/Districts</text><ellipse cx="1247" cy="730.1328" fill="#84BE84" rx="3" ry="3" style="stroke:#038048;stroke-width:1.0;"/><text fill="#000000" font-family="sans-serif" font-size="14" lengthAdjust="spacing" textLength="232" x="1256" y="734.3613">GetCentre() | api/Districts/{}/centre/{}</text></g><!--class VisicomMapPointProvider--><g id="elem_VisicomMapPointProvider"><rect codeLine="61" fill="#F1F1F1" height="83.2188" id="VisicomMapPointProvider" rx="2.5" ry="2.5" style="stroke:#181818;stroke-width:0.5;" width="192" x="988" y="640.5"/><ellipse cx="1003" cy="656.5" fill="#ADD1B2" rx="11" ry="11" style="stroke:#181818;stroke-width:1.0;"/><path d="M1005.7656,652.375 Q1005.9219,652.1563 1006.1094,652.0469 Q1006.2969,651.9375 1006.5156,651.9375 Q1006.8906,651.9375 1007.125,652.2031 Q1007.3594,652.4531 1007.3594,653.0625 L1007.3594,654.5156 Q1007.3594,655.125 1007.125,655.3906 Q1006.8906,655.6563 1006.5156,655.6563 Q1006.1719,655.6563 1005.9688,655.4531 Q1005.7656,655.2656 1005.6563,654.75 Q1005.6094,654.3906 1005.4219,654.2031 Q1005.0938,653.8281 1004.4844,653.6094 Q1003.875,653.3906 1003.25,653.3906 Q1002.4844,653.3906 1001.8438,653.7188 Q1001.2188,654.0469 1000.7188,654.7969 Q1000.2344,655.5469 1000.2344,656.5781 L1000.2344,657.6719 Q1000.2344,658.9063 1001.125,659.7344 Q1002.0156,660.5469 1003.6094,660.5469 Q1004.5469,660.5469 1005.2031,660.2969 Q1005.5938,660.1406 1006.0156,659.7031 Q1006.2813,659.4375 1006.4219,659.3594 Q1006.5781,659.2813 1006.7813,659.2813 Q1007.1094,659.2813 1007.3594,659.5469 Q1007.625,659.7969 1007.625,660.1406 Q1007.625,660.4844 1007.2813,660.8906 Q1006.7813,661.4688 1005.9844,661.7969 Q1004.9063,662.25 1003.6094,662.25 Q1002.0938,662.25 1000.8906,661.625 Q999.9063,661.125 999.2188,660.0625 Q998.5313,658.9844 998.5313,657.7031 L998.5313,656.5469 Q998.5313,655.2188 999.1406,654.0781 Q999.7656,652.9219 1000.8594,652.3125 Q1001.9531,651.6875 1003.1875,651.6875 Q1003.9219,651.6875 1004.5625,651.8594 Q1005.2188,652.0156 1005.7656,652.375 Z " fill="#000000"/><text fill="#000000" font-family="sans-serif" font-size="14" lengthAdjust="spacing" textLength="160" x="1017" y="662.2285">VisicomMapPointProvider</text><line style="stroke:#181818;stroke-width:0.5;" x1="989" x2="1179" y1="672.5" y2="672.5"/><rect fill="none" height="6" style="stroke:#C82930;stroke-width:1.0;" width="6" x="996" y="683.8047"/><text fill="#000000" font-family="sans-serif" font-size="14" lengthAdjust="spacing" textLength="60" x="1008" y="691.0332">httpClient</text><line style="stroke:#181818;stroke-width:0.5;" x1="989" x2="1179" y1="698.1094" y2="698.1094"/><ellipse cx="999" cy="712.4141" fill="#84BE84" rx="3" ry="3" style="stroke:#038048;stroke-width:1.0;"/><text fill="#000000" font-family="sans-serif" font-size="14" lengthAdjust="spacing" textLength="103" x="1008" y="716.6426">GetPointAsync()</text></g><!--class WebScraper--><g id="elem_WebScraper"><rect codeLine="72" fill="#F1F1F1" height="153.6563" id="WebScraper" rx="2.5" ry="2.5" style="stroke:#181818;stroke-width:0.5;" width="176" x="1309" y="90.5"/><ellipse cx="1353.25" cy="106.5" fill="#ADD1B2" rx="11" ry="11" style="stroke:#181818;stroke-width:1.0;"/><path d="M1356.0156,102.375 Q1356.1719,102.1563 1356.3594,102.0469 Q1356.5469,101.9375 1356.7656,101.9375 Q1357.1406,101.9375 1357.375,102.2031 Q1357.6094,102.4531 1357.6094,103.0625 L1357.6094,104.5156 Q1357.6094,105.125 1357.375,105.3906 Q1357.1406,105.6563 1356.7656,105.6563 Q1356.4219,105.6563 1356.2188,105.4531 Q1356.0156,105.2656 1355.9063,104.75 Q1355.8594,104.3906 1355.6719,104.2031 Q1355.3438,103.8281 1354.7344,103.6094 Q1354.125,103.3906 1353.5,103.3906 Q1352.7344,103.3906 1352.0938,103.7188 Q1351.4688,104.0469 1350.9688,104.7969 Q1350.4844,105.5469 1350.4844,106.5781 L1350.4844,107.6719 Q1350.4844,108.9063 1351.375,109.7344 Q1352.2656,110.5469 1353.8594,110.5469 Q1354.7969,110.5469 1355.4531,110.2969 Q1355.8438,110.1406 1356.2656,109.7031 Q1356.5313,109.4375 1356.6719,109.3594 Q1356.8281,109.2813 1357.0313,109.2813 Q1357.3594,109.2813 1357.6094,109.5469 Q1357.875,109.7969 1357.875,110.1406 Q1357.875,110.4844 1357.5313,110.8906 Q1357.0313,111.4688 1356.2344,111.7969 Q1355.1563,112.25 1353.8594,112.25 Q1352.3438,112.25 1351.1406,111.625 Q1350.1563,111.125 1349.4688,110.0625 Q1348.7813,108.9844 1348.7813,107.7031 L1348.7813,106.5469 Q1348.7813,105.2188 1349.3906,104.0781 Q1350.0156,102.9219 1351.1094,102.3125 Q1352.2031,101.6875 1353.4375,101.6875 Q1354.1719,101.6875 1354.8125,101.8594 Q1355.4688,102.0156 1356.0156,102.375 Z " fill="#000000"/><text fill="#000000" font-family="sans-serif" font-size="14" lengthAdjust="spacing" textLength="79" x="1373.75" y="112.2285">WebScraper</text><line style="stroke:#181818;stroke-width:0.5;" x1="1310" x2="1484" y1="122.5" y2="122.5"/><rect fill="none" height="6" style="stroke:#C82930;stroke-width:1.0;" width="6" x="1317" y="133.8047"/><text fill="#000000" font-family="sans-serif" font-size="14" lengthAdjust="spacing" textLength="60" x="1329" y="141.0332">httpClient</text><line style="stroke:#181818;stroke-width:0.5;" x1="1310" x2="1484" y1="148.1094" y2="148.1094"/><ellipse cx="1320" cy="162.4141" fill="#84BE84" rx="3" ry="3" style="stroke:#038048;stroke-width:1.0;"/><text fill="#000000" font-family="sans-serif" font-size="14" lengthAdjust="spacing" text-decoration="underline" textLength="53" x="1329" y="166.6426">Create()</text><ellipse cx="1320" cy="180.0234" fill="#84BE84" rx="3" ry="3" style="stroke:#038048;stroke-width:1.0;"/><text fill="#000000" font-family="sans-serif" font-size="14" lengthAdjust="spacing" textLength="110" x="1329" y="184.252">LoadDataAsync()</text><ellipse cx="1320" cy="197.6328" fill="#84BE84" rx="3" ry="3" style="stroke:#038048;stroke-width:1.0;"/><text fill="#000000" font-family="sans-serif" font-size="14" lengthAdjust="spacing" textLength="98" x="1329" y="201.8613">GetAllDistricts()</text><ellipse cx="1320" cy="215.2422" fill="#84BE84" rx="3" ry="3" style="stroke:#038048;stroke-width:1.0;"/><text fill="#000000" font-family="sans-serif" font-size="14" lengthAdjust="spacing" textLength="150" x="1329" y="219.4707">GetEquipmentCentres()</text><ellipse cx="1320" cy="232.8516" fill="#84BE84" rx="3" ry="3" style="stroke:#038048;stroke-width:1.0;"/><text fill="#000000" font-family="sans-serif" font-size="14" lengthAdjust="spacing" textLength="143" x="1329" y="237.0801">GetEquipmentCentre()</text></g><!--class XPathBuilder--><g id="elem_XPathBuilder"><rect codeLine="82" fill="#F1F1F1" height="163.2656" id="XPathBuilder" rx="2.5" ry="2.5" style="stroke:#181818;stroke-width:0.5;" width="176" x="1098" y="86"/><ellipse cx="1141.35" cy="102" fill="#ADD1B2" rx="11" ry="11" style="stroke:#181818;stroke-width:1.0;"/><path d="M1144.1156,97.875 Q1144.2719,97.6563 1144.4594,97.5469 Q1144.6469,97.4375 1144.8656,97.4375 Q1145.2406,97.4375 1145.475,97.7031 Q1145.7094,97.9531 1145.7094,98.5625 L1145.7094,100.0156 Q1145.7094,100.625 1145.475,100.8906 Q1145.2406,101.1563 1144.8656,101.1563 Q1144.5219,101.1563 1144.3188,100.9531 Q1144.1156,100.7656 1144.0063,100.25 Q1143.9594,99.8906 1143.7719,99.7031 Q1143.4438,99.3281 1142.8344,99.1094 Q1142.225,98.8906 1141.6,98.8906 Q1140.8344,98.8906 1140.1938,99.2188 Q1139.5688,99.5469 1139.0688,100.2969 Q1138.5844,101.0469 1138.5844,102.0781 L1138.5844,103.1719 Q1138.5844,104.4063 1139.475,105.2344 Q1140.3656,106.0469 1141.9594,106.0469 Q1142.8969,106.0469 1143.5531,105.7969 Q1143.9438,105.6406 1144.3656,105.2031 Q1144.6313,104.9375 1144.7719,104.8594 Q1144.9281,104.7813 1145.1313,104.7813 Q1145.4594,104.7813 1145.7094,105.0469 Q1145.975,105.2969 1145.975,105.6406 Q1145.975,105.9844 1145.6313,106.3906 Q1145.1313,106.9688 1144.3344,107.2969 Q1143.2563,107.75 1141.9594,107.75 Q1140.4438,107.75 1139.2406,107.125 Q1138.2563,106.625 1137.5688,105.5625 Q1136.8813,104.4844 1136.8813,103.2031 L1136.8813,102.0469 Q1136.8813,100.7188 1137.4906,99.5781 Q1138.1156,98.4219 1139.2094,97.8125 Q1140.3031,97.1875 1141.5375,97.1875 Q1142.2719,97.1875 1142.9125,97.3594 Q1143.5688,97.5156 1144.1156,97.875 Z " fill="#000000"/><text fill="#000000" font-family="sans-serif" font-size="14" lengthAdjust="spacing" textLength="81" x="1161.65" y="107.7285">XPathBuilder</text><line style="stroke:#181818;stroke-width:0.5;" x1="1099" x2="1273" y1="118" y2="118"/><text fill="#000000" font-family="sans-serif" font-size="14" lengthAdjust="spacing" text-decoration="underline" textLength="116" x="1104" y="136.5332">DistrictNameXPath</text><text fill="#000000" font-family="sans-serif" font-size="14" lengthAdjust="spacing" text-decoration="underline" textLength="146" x="1104" y="154.1426">EquipmentCentreName</text><text fill="#000000" font-family="sans-serif" font-size="14" lengthAdjust="spacing" text-decoration="underline" textLength="133" x="1104" y="171.752">EquipmentCentreInfo</text><text fill="#000000" font-family="sans-serif" font-size="14" lengthAdjust="spacing" text-decoration="underline" textLength="164" x="1104" y="189.3613">EquipmentCentreLocation</text><text fill="#000000" font-family="sans-serif" font-size="14" lengthAdjust="spacing" text-decoration="underline" textLength="140" x="1104" y="206.9707">EquipmentCentreData</text><text fill="#000000" font-family="sans-serif" font-size="14" lengthAdjust="spacing" text-decoration="underline" textLength="80" x="1104" y="224.5801">DistrictXPath</text><text fill="#000000" font-family="sans-serif" font-size="14" lengthAdjust="spacing" text-decoration="underline" textLength="102" x="1104" y="242.1895">AllDistrictsXPath</text></g><!--class IEquipmentCentreProvider--><g id="elem_IEquipmentCentreProvider"><rect codeLine="100" fill="#F1F1F1" height="65.6094" id="IEquipmentCentreProvider" rx="2.5" ry="2.5" style="stroke:#181818;stroke-width:0.5;" width="198" x="297" y="134.5"/><ellipse cx="312" cy="150.5" fill="#B4A7E5" rx="11" ry="11" style="stroke:#181818;stroke-width:1.0;"/><path d="M312.9531,147.1406 L312.9531,153.7969 L314.6719,153.7969 Q315.2813,153.7969 315.5469,154.0313 Q315.8125,154.2656 315.8125,154.6563 Q315.8125,155.0313 315.5469,155.2656 Q315.2813,155.5 314.6719,155.5 L309.5313,155.5 Q308.9219,155.5 308.6563,155.2656 Q308.3906,155.0313 308.3906,154.6406 Q308.3906,154.2656 308.6563,154.0313 Q308.9219,153.7969 309.5313,153.7969 L311.25,153.7969 L311.25,147.1406 L309.5313,147.1406 Q308.9219,147.1406 308.6563,146.9063 Q308.3906,146.6719 308.3906,146.2813 Q308.3906,145.9063 308.6563,145.6719 Q308.9219,145.4375 309.5313,145.4375 L314.6719,145.4375 Q315.2813,145.4375 315.5469,145.6719 Q315.8125,145.9063 315.8125,146.2813 Q315.8125,146.6719 315.5469,146.9063 Q315.2813,147.1406 314.6719,147.1406 L312.9531,147.1406 Z " fill="#000000"/><text fill="#000000" font-family="sans-serif" font-size="14" font-style="italic" lengthAdjust="spacing" textLength="166" x="326" y="156.2285">IEquipmentCentreProvider</text><line style="stroke:#181818;stroke-width:0.5;" x1="298" x2="494" y1="166.5" y2="166.5"/><line style="stroke:#181818;stroke-width:0.5;" x1="298" x2="494" y1="174.5" y2="174.5"/><text fill="#000000" font-family="sans-serif" font-size="14" lengthAdjust="spacing" textLength="121" x="303" y="193.0332">GetDistrictsAsync()</text></g><!--class ApiEquipmentCentreProvider--><g id="elem_ApiEquipmentCentreProvider"><rect codeLine="104" fill="#F1F1F1" height="83.2188" id="ApiEquipmentCentreProvider" rx="2.5" ry="2.5" style="stroke:#181818;stroke-width:0.5;" width="215" x="293.5" y="382.5"/><ellipse cx="308.5" cy="398.5" fill="#ADD1B2" rx="11" ry="11" style="stroke:#181818;stroke-width:1.0;"/><path d="M311.2656,394.375 Q311.4219,394.1563 311.6094,394.0469 Q311.7969,393.9375 312.0156,393.9375 Q312.3906,393.9375 312.625,394.2031 Q312.8594,394.4531 312.8594,395.0625 L312.8594,396.5156 Q312.8594,397.125 312.625,397.3906 Q312.3906,397.6563 312.0156,397.6563 Q311.6719,397.6563 311.4688,397.4531 Q311.2656,397.2656 311.1563,396.75 Q311.1094,396.3906 310.9219,396.2031 Q310.5938,395.8281 309.9844,395.6094 Q309.375,395.3906 308.75,395.3906 Q307.9844,395.3906 307.3438,395.7188 Q306.7188,396.0469 306.2188,396.7969 Q305.7344,397.5469 305.7344,398.5781 L305.7344,399.6719 Q305.7344,400.9063 306.625,401.7344 Q307.5156,402.5469 309.1094,402.5469 Q310.0469,402.5469 310.7031,402.2969 Q311.0938,402.1406 311.5156,401.7031 Q311.7813,401.4375 311.9219,401.3594 Q312.0781,401.2813 312.2813,401.2813 Q312.6094,401.2813 312.8594,401.5469 Q313.125,401.7969 313.125,402.1406 Q313.125,402.4844 312.7813,402.8906 Q312.2813,403.4688 311.4844,403.7969 Q310.4063,404.25 309.1094,404.25 Q307.5938,404.25 306.3906,403.625 Q305.4063,403.125 304.7188,402.0625 Q304.0313,400.9844 304.0313,399.7031 L304.0313,398.5469 Q304.0313,397.2188 304.6406,396.0781 Q305.2656,394.9219 306.3594,394.3125 Q307.4531,393.6875 308.6875,393.6875 Q309.4219,393.6875 310.0625,393.8594 Q310.7188,394.0156 311.2656,394.375 Z " fill="#000000"/><text fill="#000000" font-family="sans-serif" font-size="14" lengthAdjust="spacing" textLength="183" x="322.5" y="404.2285">ApiEquipmentCentreProvider</text><line style="stroke:#181818;stroke-width:0.5;" x1="294.5" x2="507.5" y1="414.5" y2="414.5"/><rect fill="none" height="6" style="stroke:#C82930;stroke-width:1.0;" width="6" x="301.5" y="425.8047"/><text fill="#000000" font-family="sans-serif" font-size="14" lengthAdjust="spacing" textLength="60" x="313.5" y="433.0332">httpClient</text><line style="stroke:#181818;stroke-width:0.5;" x1="294.5" x2="507.5" y1="440.1094" y2="440.1094"/><ellipse cx="304.5" cy="454.4141" fill="#84BE84" rx="3" ry="3" style="stroke:#038048;stroke-width:1.0;"/><text fill="#000000" font-family="sans-serif" font-size="14" lengthAdjust="spacing" textLength="121" x="313.5" y="458.6426">GetDistrictsAsync()</text></g><!--class About--><g id="elem_About"><rect codeLine="112" fill="#F1F1F1" height="32" id="About" rx="2.5" ry="2.5" style="stroke:#181818;stroke-width:0.5;" width="69" x="70.5" y="151.5"/><ellipse cx="85.5" cy="167.5" fill="#ADD1B2" rx="11" ry="11" style="stroke:#181818;stroke-width:1.0;"/><path d="M88.2656,163.375 Q88.4219,163.1563 88.6094,163.0469 Q88.7969,162.9375 89.0156,162.9375 Q89.3906,162.9375 89.625,163.2031 Q89.8594,163.4531 89.8594,164.0625 L89.8594,165.5156 Q89.8594,166.125 89.625,166.3906 Q89.3906,166.6563 89.0156,166.6563 Q88.6719,166.6563 88.4688,166.4531 Q88.2656,166.2656 88.1563,165.75 Q88.1094,165.3906 87.9219,165.2031 Q87.5938,164.8281 86.9844,164.6094 Q86.375,164.3906 85.75,164.3906 Q84.9844,164.3906 84.3438,164.7188 Q83.7188,165.0469 83.2188,165.7969 Q82.7344,166.5469 82.7344,167.5781 L82.7344,168.6719 Q82.7344,169.9063 83.625,170.7344 Q84.5156,171.5469 86.1094,171.5469 Q87.0469,171.5469 87.7031,171.2969 Q88.0938,171.1406 88.5156,170.7031 Q88.7813,170.4375 88.9219,170.3594 Q89.0781,170.2813 89.2813,170.2813 Q89.6094,170.2813 89.8594,170.5469 Q90.125,170.7969 90.125,171.1406 Q90.125,171.4844 89.7813,171.8906 Q89.2813,172.4688 88.4844,172.7969 Q87.4063,173.25 86.1094,173.25 Q84.5938,173.25 83.3906,172.625 Q82.4063,172.125 81.7188,171.0625 Q81.0313,169.9844 81.0313,168.7031 L81.0313,167.5469 Q81.0313,166.2188 81.6406,165.0781 Q82.2656,163.9219 83.3594,163.3125 Q84.4531,162.6875 85.6875,162.6875 Q86.4219,162.6875 87.0625,162.8594 Q87.7188,163.0156 88.2656,163.375 Z " fill="#000000"/><text fill="#000000" font-family="sans-serif" font-size="14" lengthAdjust="spacing" textLength="37" x="99.5" y="173.2285">About</text></g><!--class Main--><g id="elem_Main"><rect codeLine="116" fill="#F1F1F1" height="57.6094" id="Main" rx="2.5" ry="2.5" style="stroke:#181818;stroke-width:0.5;" width="62" x="175" y="138.5"/><ellipse cx="190" cy="154.5" fill="#ADD1B2" rx="11" ry="11" style="stroke:#181818;stroke-width:1.0;"/><path d="M192.7656,150.375 Q192.9219,150.1563 193.1094,150.0469 Q193.2969,149.9375 193.5156,149.9375 Q193.8906,149.9375 194.125,150.2031 Q194.3594,150.4531 194.3594,151.0625 L194.3594,152.5156 Q194.3594,153.125 194.125,153.3906 Q193.8906,153.6563 193.5156,153.6563 Q193.1719,153.6563 192.9688,153.4531 Q192.7656,153.2656 192.6563,152.75 Q192.6094,152.3906 192.4219,152.2031 Q192.0938,151.8281 191.4844,151.6094 Q190.875,151.3906 190.25,151.3906 Q189.4844,151.3906 188.8438,151.7188 Q188.2188,152.0469 187.7188,152.7969 Q187.2344,153.5469 187.2344,154.5781 L187.2344,155.6719 Q187.2344,156.9063 188.125,157.7344 Q189.0156,158.5469 190.6094,158.5469 Q191.5469,158.5469 192.2031,158.2969 Q192.5938,158.1406 193.0156,157.7031 Q193.2813,157.4375 193.4219,157.3594 Q193.5781,157.2813 193.7813,157.2813 Q194.1094,157.2813 194.3594,157.5469 Q194.625,157.7969 194.625,158.1406 Q194.625,158.4844 194.2813,158.8906 Q193.7813,159.4688 192.9844,159.7969 Q191.9063,160.25 190.6094,160.25 Q189.0938,160.25 187.8906,159.625 Q186.9063,159.125 186.2188,158.0625 Q185.5313,156.9844 185.5313,155.7031 L185.5313,154.5469 Q185.5313,153.2188 186.1406,152.0781 Q186.7656,150.9219 187.8594,150.3125 Q188.9531,149.6875 190.1875,149.6875 Q190.9219,149.6875 191.5625,149.8594 Q192.2188,150.0156 192.7656,150.375 Z " fill="#000000"/><text fill="#000000" font-family="sans-serif" font-size="14" lengthAdjust="spacing" textLength="30" x="204" y="160.2285">Main</text><line style="stroke:#181818;stroke-width:0.5;" x1="176" x2="236" y1="170.5" y2="170.5"/><rect fill="none" height="6" style="stroke:#C82930;stroke-width:1.0;" width="6" x="183" y="181.8047"/><text fill="#000000" font-family="sans-serif" font-size="14" lengthAdjust="spacing" textLength="27" x="195" y="189.0332">Map</text></g><!--class BasicGeocoder--><g id="elem_BasicGeocoder"><rect codeLine="187" fill="#F1F1F1" height="136.0469" id="BasicGeocoder" rx="2.5" ry="2.5" style="stroke:#181818;stroke-width:0.5;" width="174" x="997" y="865"/><ellipse cx="1032.25" cy="881" fill="#ADD1B2" rx="11" ry="11" style="stroke:#181818;stroke-width:1.0;"/><path d="M1035.0156,876.875 Q1035.1719,876.6563 1035.3594,876.5469 Q1035.5469,876.4375 1035.7656,876.4375 Q1036.1406,876.4375 1036.375,876.7031 Q1036.6094,876.9531 1036.6094,877.5625 L1036.6094,879.0156 Q1036.6094,879.625 1036.375,879.8906 Q1036.1406,880.1563 1035.7656,880.1563 Q1035.4219,880.1563 1035.2188,879.9531 Q1035.0156,879.7656 1034.9063,879.25 Q1034.8594,878.8906 1034.6719,878.7031 Q1034.3438,878.3281 1033.7344,878.1094 Q1033.125,877.8906 1032.5,877.8906 Q1031.7344,877.8906 1031.0938,878.2188 Q1030.4688,878.5469 1029.9688,879.2969 Q1029.4844,880.0469 1029.4844,881.0781 L1029.4844,882.1719 Q1029.4844,883.4063 1030.375,884.2344 Q1031.2656,885.0469 1032.8594,885.0469 Q1033.7969,885.0469 1034.4531,884.7969 Q1034.8438,884.6406 1035.2656,884.2031 Q1035.5313,883.9375 1035.6719,883.8594 Q1035.8281,883.7813 1036.0313,883.7813 Q1036.3594,883.7813 1036.6094,884.0469 Q1036.875,884.2969 1036.875,884.6406 Q1036.875,884.9844 1036.5313,885.3906 Q1036.0313,885.9688 1035.2344,886.2969 Q1034.1563,886.75 1032.8594,886.75 Q1031.3438,886.75 1030.1406,886.125 Q1029.1563,885.625 1028.4688,884.5625 Q1027.7813,883.4844 1027.7813,882.2031 L1027.7813,881.0469 Q1027.7813,879.7188 1028.3906,878.5781 Q1029.0156,877.4219 1030.1094,876.8125 Q1031.2031,876.1875 1032.4375,876.1875 Q1033.1719,876.1875 1033.8125,876.3594 Q1034.4688,876.5156 1035.0156,876.875 Z " fill="#000000"/><text fill="#000000" font-family="sans-serif" font-size="14" lengthAdjust="spacing" textLength="97" x="1050.75" y="886.7285">BasicGeocoder</text><line style="stroke:#181818;stroke-width:0.5;" x1="998" x2="1170" y1="897" y2="897"/><rect fill="none" height="6" style="stroke:#C82930;stroke-width:1.0;" width="6" x="1005" y="908.3047"/><text fill="#000000" font-family="sans-serif" font-size="14" lengthAdjust="spacing" textLength="97" x="1017" y="915.5332">requestOptions</text><rect fill="none" height="6" style="stroke:#C82930;stroke-width:1.0;" width="6" x="1005" y="925.9141"/><text fill="#000000" font-family="sans-serif" font-size="14" lengthAdjust="spacing" textLength="60" x="1017" y="933.1426">httpClient</text><line style="stroke:#181818;stroke-width:0.5;" x1="998" x2="1170" y1="940.2188" y2="940.2188"/><ellipse cx="1008" cy="954.5234" fill="#84BE84" rx="3" ry="3" style="stroke:#038048;stroke-width:1.0;"/><text fill="#000000" font-family="sans-serif" font-size="14" lengthAdjust="spacing" textLength="80" x="1017" y="958.752">SetOptions()</text><ellipse cx="1008" cy="972.1328" fill="#84BE84" rx="3" ry="3" style="stroke:#038048;stroke-width:1.0;"/><text fill="#000000" font-family="sans-serif" font-size="14" lengthAdjust="spacing" textLength="110" x="1017" y="976.3613">GetCoordinates()</text><ellipse cx="1008" cy="989.7422" fill="#84BE84" rx="3" ry="3" style="stroke:#038048;stroke-width:1.0;"/><text fill="#000000" font-family="sans-serif" font-size="14" lengthAdjust="spacing" textLength="148" x="1017" y="993.9707">GetCoordinatesAsync()</text></g><!--class RequestOptions--><g id="elem_RequestOptions"><rect codeLine="195" fill="#F1F1F1" height="66.4141" id="RequestOptions" rx="2.5" ry="2.5" style="stroke:#181818;stroke-width:0.5;" width="156" x="813" y="1433"/><ellipse cx="837.9" cy="1449" fill="#ADD1B2" rx="11" ry="11" style="stroke:#181818;stroke-width:1.0;"/><path d="M840.6656,1444.875 Q840.8219,1444.6563 841.0094,1444.5469 Q841.1969,1444.4375 841.4156,1444.4375 Q841.7906,1444.4375 842.025,1444.7031 Q842.2594,1444.9531 842.2594,1445.5625 L842.2594,1447.0156 Q842.2594,1447.625 842.025,1447.8906 Q841.7906,1448.1563 841.4156,1448.1563 Q841.0719,1448.1563 840.8688,1447.9531 Q840.6656,1447.7656 840.5563,1447.25 Q840.5094,1446.8906 840.3219,1446.7031 Q839.9938,1446.3281 839.3844,1446.1094 Q838.775,1445.8906 838.15,1445.8906 Q837.3844,1445.8906 836.7438,1446.2188 Q836.1188,1446.5469 835.6188,1447.2969 Q835.1344,1448.0469 835.1344,1449.0781 L835.1344,1450.1719 Q835.1344,1451.4063 836.025,1452.2344 Q836.9156,1453.0469 838.5094,1453.0469 Q839.4469,1453.0469 840.1031,1452.7969 Q840.4938,1452.6406 840.9156,1452.2031 Q841.1813,1451.9375 841.3219,1451.8594 Q841.4781,1451.7813 841.6813,1451.7813 Q842.0094,1451.7813 842.2594,1452.0469 Q842.525,1452.2969 842.525,1452.6406 Q842.525,1452.9844 842.1813,1453.3906 Q841.6813,1453.9688 840.8844,1454.2969 Q839.8063,1454.75 838.5094,1454.75 Q836.9938,1454.75 835.7906,1454.125 Q834.8063,1453.625 834.1188,1452.5625 Q833.4313,1451.4844 833.4313,1450.2031 L833.4313,1449.0469 Q833.4313,1447.7188 834.0406,1446.5781 Q834.6656,1445.4219 835.7594,1444.8125 Q836.8531,1444.1875 838.0875,1444.1875 Q838.8219,1444.1875 839.4625,1444.3594 Q840.1188,1444.5156 840.6656,1444.875 Z " fill="#000000"/><text fill="#000000" font-family="sans-serif" font-size="14" lengthAdjust="spacing" textLength="102" x="854.1" y="1454.7285">RequestOptions</text><line style="stroke:#181818;stroke-width:0.5;" x1="814" x2="968" y1="1465" y2="1465"/><line style="stroke:#181818;stroke-width:1.0;stroke-dasharray:1.0,2.0;" x1="814" x2="817" y1="1481.8047" y2="1481.8047"/><text fill="#000000" font-family="sans-serif" font-size="14" lengthAdjust="spacing" textLength="148" x="817" y="1487.0332">. see IRequestOptions .</text><line style="stroke:#181818;stroke-width:1.0;stroke-dasharray:1.0,2.0;" x1="965" x2="968" y1="1481.8047" y2="1481.8047"/></g><!--class IGeocoder--><g id="elem_IGeocoder"><rect codeLine="130" fill="#F1F1F1" height="100.8281" id="IGeocoder" rx="2.5" ry="2.5" style="stroke:#181818;stroke-width:0.5;" width="160" x="1004" y="1166.5"/><ellipse cx="1046.45" cy="1182.5" fill="#B4A7E5" rx="11" ry="11" style="stroke:#181818;stroke-width:1.0;"/><path d="M1047.4031,1179.1406 L1047.4031,1185.7969 L1049.1219,1185.7969 Q1049.7313,1185.7969 1049.9969,1186.0313 Q1050.2625,1186.2656 1050.2625,1186.6563 Q1050.2625,1187.0313 1049.9969,1187.2656 Q1049.7313,1187.5 1049.1219,1187.5 L1043.9813,1187.5 Q1043.3719,1187.5 1043.1063,1187.2656 Q1042.8406,1187.0313 1042.8406,1186.6406 Q1042.8406,1186.2656 1043.1063,1186.0313 Q1043.3719,1185.7969 1043.9813,1185.7969 L1045.7,1185.7969 L1045.7,1179.1406 L1043.9813,1179.1406 Q1043.3719,1179.1406 1043.1063,1178.9063 Q1042.8406,1178.6719 1042.8406,1178.2813 Q1042.8406,1177.9063 1043.1063,1177.6719 Q1043.3719,1177.4375 1043.9813,1177.4375 L1049.1219,1177.4375 Q1049.7313,1177.4375 1049.9969,1177.6719 Q1050.2625,1177.9063 1050.2625,1178.2813 Q1050.2625,1178.6719 1049.9969,1178.9063 Q1049.7313,1179.1406 1049.1219,1179.1406 L1047.4031,1179.1406 Z " fill="#000000"/><text fill="#000000" font-family="sans-serif" font-size="14" font-style="italic" lengthAdjust="spacing" textLength="67" x="1066.55" y="1188.2285">IGeocoder</text><line style="stroke:#181818;stroke-width:0.5;" x1="1005" x2="1163" y1="1198.5" y2="1198.5"/><line style="stroke:#181818;stroke-width:0.5;" x1="1005" x2="1163" y1="1206.5" y2="1206.5"/><text fill="#000000" font-family="sans-serif" font-size="14" lengthAdjust="spacing" textLength="80" x="1010" y="1225.0332">SetOptions()</text><text fill="#000000" font-family="sans-serif" font-size="14" lengthAdjust="spacing" textLength="110" x="1010" y="1242.6426">GetCoordinates()</text><text fill="#000000" font-family="sans-serif" font-size="14" lengthAdjust="spacing" textLength="148" x="1010" y="1260.252">GetCoordinatesAsync()</text></g><!--class IRequestOptions--><g id="elem_IRequestOptions"><rect codeLine="136" fill="#F1F1F1" height="312.1406" id="IRequestOptions" rx="2.5" ry="2.5" style="stroke:#181818;stroke-width:0.5;" width="140" x="829" y="1061"/><ellipse cx="844.9" cy="1077" fill="#B4A7E5" rx="11" ry="11" style="stroke:#181818;stroke-width:1.0;"/><path d="M845.8531,1073.6406 L845.8531,1080.2969 L847.5719,1080.2969 Q848.1813,1080.2969 848.4469,1080.5313 Q848.7125,1080.7656 848.7125,1081.1563 Q848.7125,1081.5313 848.4469,1081.7656 Q848.1813,1082 847.5719,1082 L842.4313,1082 Q841.8219,1082 841.5563,1081.7656 Q841.2906,1081.5313 841.2906,1081.1406 Q841.2906,1080.7656 841.5563,1080.5313 Q841.8219,1080.2969 842.4313,1080.2969 L844.15,1080.2969 L844.15,1073.6406 L842.4313,1073.6406 Q841.8219,1073.6406 841.5563,1073.4063 Q841.2906,1073.1719 841.2906,1072.7813 Q841.2906,1072.4063 841.5563,1072.1719 Q841.8219,1071.9375 842.4313,1071.9375 L847.5719,1071.9375 Q848.1813,1071.9375 848.4469,1072.1719 Q848.7125,1072.4063 848.7125,1072.7813 Q848.7125,1073.1719 848.4469,1073.4063 Q848.1813,1073.6406 847.5719,1073.6406 L845.8531,1073.6406 Z " fill="#000000"/><text fill="#000000" font-family="sans-serif" font-size="14" font-style="italic" lengthAdjust="spacing" textLength="106" x="859.1" y="1082.7285">IRequestOptions</text><line style="stroke:#181818;stroke-width:0.5;" x1="830" x2="968" y1="1093" y2="1093"/><text fill="#000000" font-family="sans-serif" font-size="14" lengthAdjust="spacing" textLength="44" x="835" y="1111.5332">ApiKey</text><text fill="#000000" font-family="sans-serif" font-size="14" lengthAdjust="spacing" textLength="64" x="835" y="1129.1426">Language</text><text fill="#000000" font-family="sans-serif" font-size="14" lengthAdjust="spacing" textLength="69" x="835" y="1146.752">Categories</text><text fill="#000000" font-family="sans-serif" font-size="14" lengthAdjust="spacing" textLength="118" x="835" y="1164.3613">ExcludeCategories</text><text fill="#000000" font-family="sans-serif" font-size="14" lengthAdjust="spacing" textLength="27" x="835" y="1181.9707">Text</text><text fill="#000000" font-family="sans-serif" font-size="14" lengthAdjust="spacing" textLength="61" x="835" y="1199.5801">WordText</text><text fill="#000000" font-family="sans-serif" font-size="14" lengthAdjust="spacing" textLength="30" x="835" y="1217.1895">Near</text><text fill="#000000" font-family="sans-serif" font-size="14" lengthAdjust="spacing" textLength="74" x="835" y="1234.7988">NearRadius</text><text fill="#000000" font-family="sans-serif" font-size="14" lengthAdjust="spacing" textLength="37" x="835" y="1252.4082">Order</text><text fill="#000000" font-family="sans-serif" font-size="14" lengthAdjust="spacing" textLength="103" x="835" y="1270.0176">IntersectionArea</text><text fill="#000000" font-family="sans-serif" font-size="14" lengthAdjust="spacing" textLength="86" x="835" y="1287.627">ContainsArea</text><text fill="#000000" font-family="sans-serif" font-size="14" lengthAdjust="spacing" textLength="35" x="835" y="1305.2363">Zoom</text><text fill="#000000" font-family="sans-serif" font-size="14" lengthAdjust="spacing" textLength="29" x="835" y="1322.8457">Limit</text><text fill="#000000" font-family="sans-serif" font-size="14" lengthAdjust="spacing" textLength="84" x="835" y="1340.4551">CountryCode</text><text fill="#000000" font-family="sans-serif" font-size="14" lengthAdjust="spacing" textLength="128" x="835" y="1358.0645">CountryCodePriority</text><line style="stroke:#181818;stroke-width:0.5;" x1="830" x2="968" y1="1365.1406" y2="1365.1406"/></g><!--class Response--><g id="elem_Response"><rect codeLine="158" fill="#F1F1F1" height="32" id="Response" rx="2.5" ry="2.5" style="stroke:#181818;stroke-width:0.5;" width="96" x="1320" y="1201"/><ellipse cx="1335" cy="1217" fill="#F1F1F1" rx="11" ry="11" style="stroke:#181818;stroke-width:1.0;"/><path d="M1333.1094,1221.5625 Q1332.8906,1221.8281 1332.75,1221.9063 Q1332.6094,1221.9844 1332.4219,1221.9844 Q1332.0313,1221.9844 1331.7813,1221.7188 Q1331.5469,1221.4531 1331.5469,1220.8594 L1331.5469,1219.7031 Q1331.5469,1219.0938 1331.7813,1218.8438 Q1332.0313,1218.5781 1332.4219,1218.5781 Q1332.7188,1218.5781 1332.9219,1218.7344 Q1333.125,1218.8906 1333.2344,1219.2656 Q1333.3438,1219.625 1333.4531,1219.7656 Q1333.7031,1220.0156 1334.3125,1220.2813 Q1334.9219,1220.5469 1335.6563,1220.5469 Q1336.7969,1220.5469 1337.5156,1220.0156 Q1337.9844,1219.6875 1337.9844,1219.2188 Q1337.9844,1218.9063 1337.7656,1218.625 Q1337.5469,1218.3438 1337.0313,1218.1719 Q1336.7031,1218.0469 1335.5469,1217.8281 Q1334.1563,1217.5625 1333.4375,1217.2031 Q1332.7188,1216.8438 1332.2969,1216.1875 Q1331.8906,1215.5156 1331.8906,1214.7344 Q1331.8906,1213.5156 1332.9063,1212.6094 Q1333.9375,1211.6875 1335.5781,1211.6875 Q1336.2344,1211.6875 1336.7813,1211.8281 Q1337.3438,1211.9688 1337.8125,1212.2656 Q1338.1406,1211.9531 1338.4688,1211.9531 Q1338.8438,1211.9531 1339.0781,1212.2188 Q1339.3125,1212.4688 1339.3125,1213.0781 L1339.3125,1214.3594 Q1339.3125,1214.9688 1339.0781,1215.2344 Q1338.8438,1215.4844 1338.4688,1215.4844 Q1338.1563,1215.4844 1337.9219,1215.2969 Q1337.7344,1215.1563 1337.6406,1214.7344 Q1337.5625,1214.3125 1337.4219,1214.125 Q1337.1719,1213.8125 1336.6875,1213.6094 Q1336.2188,1213.3906 1335.5781,1213.3906 Q1334.6563,1213.3906 1334.125,1213.8125 Q1333.5938,1214.2344 1333.5938,1214.7031 Q1333.5938,1215.0156 1333.8125,1215.3125 Q1334.0313,1215.6094 1334.4531,1215.7813 Q1334.7344,1215.8906 1336.0313,1216.1563 Q1337.3438,1216.4063 1338.0469,1216.7188 Q1338.75,1217.0156 1339.2188,1217.6719 Q1339.6875,1218.3281 1339.6875,1219.2344 Q1339.6875,1220.5 1338.7969,1221.25 Q1337.6094,1222.25 1335.7813,1222.25 Q1335.0781,1222.25 1334.4063,1222.0781 Q1333.75,1221.9063 1333.1094,1221.5625 Z " fill="#000000"/><text fill="#000000" font-family="sans-serif" font-size="14" lengthAdjust="spacing" textLength="64" x="1349" y="1222.7285">Response</text></g><!--class Properties--><g id="elem_Properties"><rect codeLine="159" fill="#F1F1F1" height="32" id="Properties" rx="2.5" ry="2.5" style="stroke:#181818;stroke-width:0.5;" width="97" x="1244.5" y="1450"/><ellipse cx="1259.5" cy="1466" fill="#F1F1F1" rx="11" ry="11" style="stroke:#181818;stroke-width:1.0;"/><path d="M1257.6094,1470.5625 Q1257.3906,1470.8281 1257.25,1470.9063 Q1257.1094,1470.9844 1256.9219,1470.9844 Q1256.5313,1470.9844 1256.2813,1470.7188 Q1256.0469,1470.4531 1256.0469,1469.8594 L1256.0469,1468.7031 Q1256.0469,1468.0938 1256.2813,1467.8438 Q1256.5313,1467.5781 1256.9219,1467.5781 Q1257.2188,1467.5781 1257.4219,1467.7344 Q1257.625,1467.8906 1257.7344,1468.2656 Q1257.8438,1468.625 1257.9531,1468.7656 Q1258.2031,1469.0156 1258.8125,1469.2813 Q1259.4219,1469.5469 1260.1563,1469.5469 Q1261.2969,1469.5469 1262.0156,1469.0156 Q1262.4844,1468.6875 1262.4844,1468.2188 Q1262.4844,1467.9063 1262.2656,1467.625 Q1262.0469,1467.3438 1261.5313,1467.1719 Q1261.2031,1467.0469 1260.0469,1466.8281 Q1258.6563,1466.5625 1257.9375,1466.2031 Q1257.2188,1465.8438 1256.7969,1465.1875 Q1256.3906,1464.5156 1256.3906,1463.7344 Q1256.3906,1462.5156 1257.4063,1461.6094 Q1258.4375,1460.6875 1260.0781,1460.6875 Q1260.7344,1460.6875 1261.2813,1460.8281 Q1261.8438,1460.9688 1262.3125,1461.2656 Q1262.6406,1460.9531 1262.9688,1460.9531 Q1263.3438,1460.9531 1263.5781,1461.2188 Q1263.8125,1461.4688 1263.8125,1462.0781 L1263.8125,1463.3594 Q1263.8125,1463.9688 1263.5781,1464.2344 Q1263.3438,1464.4844 1262.9688,1464.4844 Q1262.6563,1464.4844 1262.4219,1464.2969 Q1262.2344,1464.1563 1262.1406,1463.7344 Q1262.0625,1463.3125 1261.9219,1463.125 Q1261.6719,1462.8125 1261.1875,1462.6094 Q1260.7188,1462.3906 1260.0781,1462.3906 Q1259.1563,1462.3906 1258.625,1462.8125 Q1258.0938,1463.2344 1258.0938,1463.7031 Q1258.0938,1464.0156 1258.3125,1464.3125 Q1258.5313,1464.6094 1258.9531,1464.7813 Q1259.2344,1464.8906 1260.5313,1465.1563 Q1261.8438,1465.4063 1262.5469,1465.7188 Q1263.25,1466.0156 1263.7188,1466.6719 Q1264.1875,1467.3281 1264.1875,1468.2344 Q1264.1875,1469.5 1263.2969,1470.25 Q1262.1094,1471.25 1260.2813,1471.25 Q1259.5781,1471.25 1258.9063,1471.0781 Q1258.25,1470.9063 1257.6094,1470.5625 Z " fill="#000000"/><text fill="#000000" font-family="sans-serif" font-size="14" lengthAdjust="spacing" textLength="65" x="1273.5" y="1471.7285">Properties</text></g><!--class GeoCentroid--><g id="elem_GeoCentroid"><rect codeLine="160" fill="#F1F1F1" height="32" id="GeoCentroid" rx="2.5" ry="2.5" style="stroke:#181818;stroke-width:0.5;" width="113" x="1376.5" y="1450"/><ellipse cx="1391.5" cy="1466" fill="#F1F1F1" rx="11" ry="11" style="stroke:#181818;stroke-width:1.0;"/><path d="M1389.6094,1470.5625 Q1389.3906,1470.8281 1389.25,1470.9063 Q1389.1094,1470.9844 1388.9219,1470.9844 Q1388.5313,1470.9844 1388.2813,1470.7188 Q1388.0469,1470.4531 1388.0469,1469.8594 L1388.0469,1468.7031 Q1388.0469,1468.0938 1388.2813,1467.8438 Q1388.5313,1467.5781 1388.9219,1467.5781 Q1389.2188,1467.5781 1389.4219,1467.7344 Q1389.625,1467.8906 1389.7344,1468.2656 Q1389.8438,1468.625 1389.9531,1468.7656 Q1390.2031,1469.0156 1390.8125,1469.2813 Q1391.4219,1469.5469 1392.1563,1469.5469 Q1393.2969,1469.5469 1394.0156,1469.0156 Q1394.4844,1468.6875 1394.4844,1468.2188 Q1394.4844,1467.9063 1394.2656,1467.625 Q1394.0469,1467.3438 1393.5313,1467.1719 Q1393.2031,1467.0469 1392.0469,1466.8281 Q1390.6563,1466.5625 1389.9375,1466.2031 Q1389.2188,1465.8438 1388.7969,1465.1875 Q1388.3906,1464.5156 1388.3906,1463.7344 Q1388.3906,1462.5156 1389.4063,1461.6094 Q1390.4375,1460.6875 1392.0781,1460.6875 Q1392.7344,1460.6875 1393.2813,1460.8281 Q1393.8438,1460.9688 1394.3125,1461.2656 Q1394.6406,1460.9531 1394.9688,1460.9531 Q1395.3438,1460.9531 1395.5781,1461.2188 Q1395.8125,1461.4688 1395.8125,1462.0781 L1395.8125,1463.3594 Q1395.8125,1463.9688 1395.5781,1464.2344 Q1395.3438,1464.4844 1394.9688,1464.4844 Q1394.6563,1464.4844 1394.4219,1464.2969 Q1394.2344,1464.1563 1394.1406,1463.7344 Q1394.0625,1463.3125 1393.9219,1463.125 Q1393.6719,1462.8125 1393.1875,1462.6094 Q1392.7188,1462.3906 1392.0781,1462.3906 Q1391.1563,1462.3906 1390.625,1462.8125 Q1390.0938,1463.2344 1390.0938,1463.7031 Q1390.0938,1464.0156 1390.3125,1464.3125 Q1390.5313,1464.6094 1390.9531,1464.7813 Q1391.2344,1464.8906 1392.5313,1465.1563 Q1393.8438,1465.4063 1394.5469,1465.7188 Q1395.25,1466.0156 1395.7188,1466.6719 Q1396.1875,1467.3281 1396.1875,1468.2344 Q1396.1875,1469.5 1395.2969,1470.25 Q1394.1094,1471.25 1392.2813,1471.25 Q1391.5781,1471.25 1390.9063,1471.0781 Q1390.25,1470.9063 1389.6094,1470.5625 Z " fill="#000000"/><text fill="#000000" font-family="sans-serif" font-size="14" lengthAdjust="spacing" textLength="81" x="1405.5" y="1471.7285">GeoCentroid</text></g><!--class Coordinates--><g id="elem_Coordinates"><rect codeLine="161" fill="#F1F1F1" height="32" id="Coordinates" rx="2.5" ry="2.5" style="stroke:#181818;stroke-width:0.5;" width="109" x="1378.5" y="1597.5"/><ellipse cx="1393.5" cy="1613.5" fill="#F1F1F1" rx="11" ry="11" style="stroke:#181818;stroke-width:1.0;"/><path d="M1391.6094,1618.0625 Q1391.3906,1618.3281 1391.25,1618.4063 Q1391.1094,1618.4844 1390.9219,1618.4844 Q1390.5313,1618.4844 1390.2813,1618.2188 Q1390.0469,1617.9531 1390.0469,1617.3594 L1390.0469,1616.2031 Q1390.0469,1615.5938 1390.2813,1615.3438 Q1390.5313,1615.0781 1390.9219,1615.0781 Q1391.2188,1615.0781 1391.4219,1615.2344 Q1391.625,1615.3906 1391.7344,1615.7656 Q1391.8438,1616.125 1391.9531,1616.2656 Q1392.2031,1616.5156 1392.8125,1616.7813 Q1393.4219,1617.0469 1394.1563,1617.0469 Q1395.2969,1617.0469 1396.0156,1616.5156 Q1396.4844,1616.1875 1396.4844,1615.7188 Q1396.4844,1615.4063 1396.2656,1615.125 Q1396.0469,1614.8438 1395.5313,1614.6719 Q1395.2031,1614.5469 1394.0469,1614.3281 Q1392.6563,1614.0625 1391.9375,1613.7031 Q1391.2188,1613.3438 1390.7969,1612.6875 Q1390.3906,1612.0156 1390.3906,1611.2344 Q1390.3906,1610.0156 1391.4063,1609.1094 Q1392.4375,1608.1875 1394.0781,1608.1875 Q1394.7344,1608.1875 1395.2813,1608.3281 Q1395.8438,1608.4688 1396.3125,1608.7656 Q1396.6406,1608.4531 1396.9688,1608.4531 Q1397.3438,1608.4531 1397.5781,1608.7188 Q1397.8125,1608.9688 1397.8125,1609.5781 L1397.8125,1610.8594 Q1397.8125,1611.4688 1397.5781,1611.7344 Q1397.3438,1611.9844 1396.9688,1611.9844 Q1396.6563,1611.9844 1396.4219,1611.7969 Q1396.2344,1611.6563 1396.1406,1611.2344 Q1396.0625,1610.8125 1395.9219,1610.625 Q1395.6719,1610.3125 1395.1875,1610.1094 Q1394.7188,1609.8906 1394.0781,1609.8906 Q1393.1563,1609.8906 1392.625,1610.3125 Q1392.0938,1610.7344 1392.0938,1611.2031 Q1392.0938,1611.5156 1392.3125,1611.8125 Q1392.5313,1612.1094 1392.9531,1612.2813 Q1393.2344,1612.3906 1394.5313,1612.6563 Q1395.8438,1612.9063 1396.5469,1613.2188 Q1397.25,1613.5156 1397.7188,1614.1719 Q1398.1875,1614.8281 1398.1875,1615.7344 Q1398.1875,1617 1397.2969,1617.75 Q1396.1094,1618.75 1394.2813,1618.75 Q1393.5781,1618.75 1392.9063,1618.5781 Q1392.25,1618.4063 1391.6094,1618.0625 Z " fill="#000000"/><text fill="#000000" font-family="sans-serif" font-size="14" lengthAdjust="spacing" textLength="77" x="1407.5" y="1619.2285">Coordinates</text></g><!--class Categories--><g id="elem_Categories"><rect codeLine="169" fill="#F1F1F1" height="92.8281" id="Categories" rx="2.5" ry="2.5" style="stroke:#181818;stroke-width:0.5;" width="101" x="908.5" y="1567"/><ellipse cx="923.5" cy="1583" fill="#EB937F" rx="11" ry="11" style="stroke:#181818;stroke-width:1.0;"/><path d="M922.3594,1583.7969 L922.3594,1586.2969 L926.6875,1586.2969 L926.6875,1585.375 Q926.6875,1584.7656 926.9219,1584.5 Q927.1719,1584.2344 927.5469,1584.2344 Q927.9219,1584.2344 928.1563,1584.5 Q928.3906,1584.7656 928.3906,1585.375 L928.3906,1588 L920.3906,1588 Q919.7656,1588 919.5,1587.7656 Q919.25,1587.5313 919.25,1587.1406 Q919.25,1586.7656 919.5156,1586.5313 Q919.7813,1586.2969 920.3906,1586.2969 L920.6563,1586.2969 L920.6563,1579.6406 L920.3906,1579.6406 Q919.7656,1579.6406 919.5,1579.4063 Q919.25,1579.1719 919.25,1578.7813 Q919.25,1578.4063 919.5,1578.1719 Q919.7656,1577.9375 920.3906,1577.9375 L928.0156,1577.9375 L928.0156,1580.5313 Q928.0156,1581.1406 927.7813,1581.4063 Q927.5625,1581.6563 927.1719,1581.6563 Q926.7969,1581.6563 926.5625,1581.4063 Q926.3281,1581.1406 926.3281,1580.5313 L926.3281,1579.6406 L922.3594,1579.6406 L922.3594,1582.0938 L923.8438,1582.0938 Q923.8438,1581.4375 923.9688,1581.25 Q924.2344,1580.8438 924.7031,1580.8438 Q925.0781,1580.8438 925.3125,1581.1094 Q925.5469,1581.3594 925.5469,1581.9688 L925.5469,1583.9375 Q925.5469,1584.4844 925.4219,1584.6719 Q925.1563,1585.0625 924.7031,1585.0625 Q924.2344,1585.0625 923.9688,1584.6563 Q923.8438,1584.4688 923.8438,1583.7969 L922.3594,1583.7969 Z " fill="#000000"/><text fill="#000000" font-family="sans-serif" font-size="14" lengthAdjust="spacing" textLength="69" x="937.5" y="1588.7285">Categories</text><line style="stroke:#181818;stroke-width:0.5;" x1="909.5" x2="1008.5" y1="1599" y2="1599"/><text fill="#000000" font-family="sans-serif" font-size="14" lengthAdjust="spacing" textLength="58" x="914.5" y="1617.5332">ItService,</text><text fill="#000000" font-family="sans-serif" font-size="14" lengthAdjust="spacing" textLength="65" x="914.5" y="1635.1426">Cemetery,</text><text fill="#000000" font-family="sans-serif" font-size="14" lengthAdjust="spacing" textLength="59" x="914.5" y="1652.752">Prisons...</text></g><!--class Languages--><g id="elem_Languages"><rect codeLine="175" fill="#F1F1F1" height="92.8281" id="Languages" rx="2.5" ry="2.5" style="stroke:#181818;stroke-width:0.5;" width="103" x="1044.5" y="1567"/><ellipse cx="1059.5" cy="1583" fill="#EB937F" rx="11" ry="11" style="stroke:#181818;stroke-width:1.0;"/><path d="M1058.3594,1583.7969 L1058.3594,1586.2969 L1062.6875,1586.2969 L1062.6875,1585.375 Q1062.6875,1584.7656 1062.9219,1584.5 Q1063.1719,1584.2344 1063.5469,1584.2344 Q1063.9219,1584.2344 1064.1563,1584.5 Q1064.3906,1584.7656 1064.3906,1585.375 L1064.3906,1588 L1056.3906,1588 Q1055.7656,1588 1055.5,1587.7656 Q1055.25,1587.5313 1055.25,1587.1406 Q1055.25,1586.7656 1055.5156,1586.5313 Q1055.7813,1586.2969 1056.3906,1586.2969 L1056.6563,1586.2969 L1056.6563,1579.6406 L1056.3906,1579.6406 Q1055.7656,1579.6406 1055.5,1579.4063 Q1055.25,1579.1719 1055.25,1578.7813 Q1055.25,1578.4063 1055.5,1578.1719 Q1055.7656,1577.9375 1056.3906,1577.9375 L1064.0156,1577.9375 L1064.0156,1580.5313 Q1064.0156,1581.1406 1063.7813,1581.4063 Q1063.5625,1581.6563 1063.1719,1581.6563 Q1062.7969,1581.6563 1062.5625,1581.4063 Q1062.3281,1581.1406 1062.3281,1580.5313 L1062.3281,1579.6406 L1058.3594,1579.6406 L1058.3594,1582.0938 L1059.8438,1582.0938 Q1059.8438,1581.4375 1059.9688,1581.25 Q1060.2344,1580.8438 1060.7031,1580.8438 Q1061.0781,1580.8438 1061.3125,1581.1094 Q1061.5469,1581.3594 1061.5469,1581.9688 L1061.5469,1583.9375 Q1061.5469,1584.4844 1061.4219,1584.6719 Q1061.1563,1585.0625 1060.7031,1585.0625 Q1060.2344,1585.0625 1059.9688,1584.6563 Q1059.8438,1584.4688 1059.8438,1583.7969 L1058.3594,1583.7969 Z " fill="#000000"/><text fill="#000000" font-family="sans-serif" font-size="14" lengthAdjust="spacing" textLength="71" x="1073.5" y="1588.7285">Languages</text><line style="stroke:#181818;stroke-width:0.5;" x1="1045.5" x2="1146.5" y1="1599" y2="1599"/><text fill="#000000" font-family="sans-serif" font-size="14" lengthAdjust="spacing" textLength="63" x="1050.5" y="1617.5332">Ukrainian,</text><text fill="#000000" font-family="sans-serif" font-size="14" lengthAdjust="spacing" textLength="50" x="1050.5" y="1635.1426">English,</text><text fill="#000000" font-family="sans-serif" font-size="14" lengthAdjust="spacing" textLength="51" x="1050.5" y="1652.752">Russian</text></g><!--class Order--><g id="elem_Order"><rect codeLine="181" fill="#F1F1F1" height="75.2188" id="Order" rx="2.5" ry="2.5" style="stroke:#181818;stroke-width:0.5;" width="83" x="917.5" y="1720"/><ellipse cx="938.8" cy="1736" fill="#EB937F" rx="11" ry="11" style="stroke:#181818;stroke-width:1.0;"/><path d="M937.6594,1736.7969 L937.6594,1739.2969 L941.9875,1739.2969 L941.9875,1738.375 Q941.9875,1737.7656 942.2219,1737.5 Q942.4719,1737.2344 942.8469,1737.2344 Q943.2219,1737.2344 943.4563,1737.5 Q943.6906,1737.7656 943.6906,1738.375 L943.6906,1741 L935.6906,1741 Q935.0656,1741 934.8,1740.7656 Q934.55,1740.5313 934.55,1740.1406 Q934.55,1739.7656 934.8156,1739.5313 Q935.0813,1739.2969 935.6906,1739.2969 L935.9563,1739.2969 L935.9563,1732.6406 L935.6906,1732.6406 Q935.0656,1732.6406 934.8,1732.4063 Q934.55,1732.1719 934.55,1731.7813 Q934.55,1731.4063 934.8,1731.1719 Q935.0656,1730.9375 935.6906,1730.9375 L943.3156,1730.9375 L943.3156,1733.5313 Q943.3156,1734.1406 943.0813,1734.4063 Q942.8625,1734.6563 942.4719,1734.6563 Q942.0969,1734.6563 941.8625,1734.4063 Q941.6281,1734.1406 941.6281,1733.5313 L941.6281,1732.6406 L937.6594,1732.6406 L937.6594,1735.0938 L939.1438,1735.0938 Q939.1438,1734.4375 939.2688,1734.25 Q939.5344,1733.8438 940.0031,1733.8438 Q940.3781,1733.8438 940.6125,1734.1094 Q940.8469,1734.3594 940.8469,1734.9688 L940.8469,1736.9375 Q940.8469,1737.4844 940.7219,1737.6719 Q940.4563,1738.0625 940.0031,1738.0625 Q939.5344,1738.0625 939.2688,1737.6563 Q939.1438,1737.4688 939.1438,1736.7969 L937.6594,1736.7969 Z " fill="#000000"/><text fill="#000000" font-family="sans-serif" font-size="14" lengthAdjust="spacing" textLength="37" x="954.2" y="1741.7285">Order</text><line style="stroke:#181818;stroke-width:0.5;" x1="918.5" x2="999.5" y1="1752" y2="1752"/><text fill="#000000" font-family="sans-serif" font-size="14" lengthAdjust="spacing" textLength="71" x="923.5" y="1770.5332">Relevance,</text><text fill="#000000" font-family="sans-serif" font-size="14" lengthAdjust="spacing" textLength="55" x="923.5" y="1788.1426">Distance</text></g><!--reverse link District to EquipmentCentre--><g id="link_District_EquipmentCentre"><path codeLine="41" d="M768.63,424 C780.22,424 780.22,424 791.81,424 " fill="none" id="District-backto-EquipmentCentre" style="stroke:#181818;stroke-width:1.0;"/><polygon fill="#181818" points="756.63,424,762.63,428,768.63,424,762.63,420,756.63,424" style="stroke:#181818;stroke-width:1.0;"/></g><!--reverse link EquipmentCentre to MapPoint--><g id="link_EquipmentCentre_MapPoint"><path codeLine="42" d="M946.1,424 C958,424 958.06,424 969.11,424 " fill="none" id="EquipmentCentre-backto-MapPoint" style="stroke:#181818;stroke-width:1.0;"/><polygon fill="none" points="934.1,424,940.1,428,946.1,424,940.1,420,934.1,424" style="stroke:#181818;stroke-width:1.0;"/></g><!--link IDataProvider to DistrictsController--><g id="link_IDataProvider_DistrictsController"><path codeLine="56" d="M1397,461.52 C1397,503.86 1397,561.31 1397,610.94 " fill="none" id="IDataProvider-to-DistrictsController" style="stroke:#181818;stroke-width:1.0;"/><polygon fill="none" points="1397,622.94,1401,616.94,1397,610.94,1393,616.94,1397,622.94" style="stroke:#181818;stroke-width:1.0;"/></g><!--link IMapPointProvider to DistrictsController--><g id="link_IMapPointProvider_DistrictsController"><path codeLine="57" d="M1250.5,453.09 C1250.5,494.08 1250.5,557.73 1250.5,610.81 " fill="none" id="IMapPointProvider-to-DistrictsController" style="stroke:#181818;stroke-width:1.0;"/><polygon fill="none" points="1250.5,622.81,1254.5,616.81,1250.5,610.81,1246.5,616.81,1250.5,622.81" style="stroke:#181818;stroke-width:1.0;"/></g><!--reverse link IMapPointProvider to VisicomMapPointProvider--><g id="link_IMapPointProvider_VisicomMapPointProvider"><path codeLine="66" d="M1148.5,471.09 C1148.5,516.82 1148.5,587.71 1148.5,640.25 " fill="none" id="IMapPointProvider-backto-VisicomMapPointProvider" style="stroke:#181818;stroke-width:1.0;stroke-dasharray:7.0,7.0;"/><polygon fill="none" points="1148.5,453.09,1142.5,471.09,1154.5,471.09,1148.5,453.09" style="stroke:#181818;stroke-width:1.0;"/></g><!--link WebScraper to IDataProvider--><g id="link_WebScraper_IDataProvider"><path codeLine="81" d="M1397,244.81 C1397,291.57 1397,331.12 1397,368.17 " fill="none" id="WebScraper-to-IDataProvider" style="stroke:#181818;stroke-width:1.0;stroke-dasharray:7.0,7.0;"/><polygon fill="none" points="1397,386.17,1403,368.17,1391,368.17,1397,386.17" style="stroke:#181818;stroke-width:1.0;"/></g><!--reverse link XPathBuilder to WebScraper--><g id="link_XPathBuilder_WebScraper"><path codeLine="93" d="M1280.26,168 C1291.67,168 1297.35,168 1308.75,168 " fill="none" id="XPathBuilder-backto-WebScraper" style="stroke:#181818;stroke-width:1.0;"/><polygon fill="#181818" points="1274.26,168,1283.26,172,1279.26,168,1283.26,164,1274.26,168" style="stroke:#181818;stroke-width:1.0;"/></g><!--reverse link IEquipmentCentreProvider to ApiEquipmentCentreProvider--><g id="link_IEquipmentCentreProvider_ApiEquipmentCentreProvider"><path d="M396,218.51 C396,264.92 396,331.45 396,382.19 " fill="none" id="IEquipmentCentreProvider-backto-ApiEquipmentCentreProvider" style="stroke:#181818;stroke-width:1.0;stroke-dasharray:7.0,7.0;"/><polygon fill="none" points="396,200.51,390,218.51,402,218.51,396,200.51" style="stroke:#181818;stroke-width:1.0;"/></g><!--reverse link IEquipmentCentreProvider to Main--><g id="link_IEquipmentCentreProvider_Main"><path codeLine="122" d="M290.83,168 C269.23,168 253.92,168 237.38,168 " fill="none" id="IEquipmentCentreProvider-backto-Main" style="stroke:#181818;stroke-width:1.0;"/><polygon fill="#181818" points="296.83,168,287.83,164,291.83,168,287.83,172,296.83,168" style="stroke:#181818;stroke-width:1.0;"/></g><!--reverse link Response to GeoCentroid--><g id="link_Response_GeoCentroid"><path codeLine="162" d="M1396.25,1245.34 C1396.25,1290.56 1396.25,1405.02 1396.25,1449.93 " fill="none" id="Response-backto-GeoCentroid" style="stroke:#181818;stroke-width:1.0;"/><polygon fill="none" points="1396.25,1233.34,1392.25,1239.34,1396.25,1245.34,1400.25,1239.34,1396.25,1233.34" style="stroke:#181818;stroke-width:1.0;"/></g><!--reverse link Response to Properties--><g id="link_Response_Properties"><path codeLine="163" d="M1330.75,1245.34 C1330.75,1290.56 1330.75,1405.02 1330.75,1449.93 " fill="none" id="Response-backto-Properties" style="stroke:#181818;stroke-width:1.0;"/><polygon fill="none" points="1330.75,1233.34,1326.75,1239.34,1330.75,1245.34,1334.75,1239.34,1330.75,1233.34" style="stroke:#181818;stroke-width:1.0;"/></g><!--reverse link GeoCentroid to Coordinates--><g id="link_GeoCentroid_Coordinates"><path codeLine="164" d="M1433,1494.07 C1433,1522.44 1433,1569.1 1433,1597.45 " fill="none" id="GeoCentroid-backto-Coordinates" style="stroke:#181818;stroke-width:1.0;"/><polygon fill="none" points="1433,1482.07,1429,1488.07,1433,1494.07,1437,1488.07,1433,1482.07" style="stroke:#181818;stroke-width:1.0;"/></g><!--reverse link IGeocoder to BasicGeocoder--><g id="link_IGeocoder_BasicGeocoder"><path d="M1084,1148.23 C1084,1102.2 1084,1051.99 1084,1001.21 " fill="none" id="IGeocoder-backto-BasicGeocoder" style="stroke:#181818;stroke-width:1.0;stroke-dasharray:7.0,7.0;"/><polygon fill="none" points="1084,1166.23,1090,1148.23,1078,1148.23,1084,1166.23" style="stroke:#181818;stroke-width:1.0;"/></g><!--reverse link IRequestOptions to RequestOptions--><g id="link_IRequestOptions_RequestOptions"><path d="M899,1391.28 C899,1413.56 899,1416.38 899,1432.63 " fill="none" id="IRequestOptions-backto-RequestOptions" style="stroke:#181818;stroke-width:1.0;stroke-dasharray:7.0,7.0;"/><polygon fill="none" points="899,1373.28,893,1391.28,905,1391.28,899,1373.28" style="stroke:#181818;stroke-width:1.0;"/></g><!--reverse link RequestOptions to Enums--><g id="link_RequestOptions_Enums"><path codeLine="199" d="M873,1511.1 C873,1516.2813 873,1509.8517 873,1515.6451 C873,1517.0935 873,1518.5557 873,1520.0294 C873,1520.7662 873,1521.5058 873,1522.248 C873,1522.4335 873,1522.6192 873,1522.805 " fill="none" id="RequestOptions-backto-Enums" style="stroke:#181818;stroke-width:1.0;"/><polygon fill="none" points="873,1499.1,869,1505.1,873,1511.1,877,1505.1,873,1499.1" style="stroke:#181818;stroke-width:1.0;"/></g><!--link BasicGeocoder to Data--><g id="link_BasicGeocoder_Data"><path codeLine="200" d="M1167.5,1001.03 C1167.5,1085.04 1167.5,1217 1167.5,1217 C1167.5,1217 1179.035,1217 1191.2913,1217 C1197.4194,1217 1203.7278,1217 1208.8648,1217 C1209.507,1217 1210.1308,1217 1210.7337,1217 C1211.0351,1217 1211.3313,1217 1211.622,1217 C1211.6946,1217 1205.7669,1217 1205.8389,1217 " fill="none" id="BasicGeocoder-to-Data" style="stroke:#181818;stroke-width:1.0;"/><polygon fill="#181818" points="1211.8389,1217,1202.8389,1213,1206.8389,1217,1202.8389,1221,1211.8389,1217" style="stroke:#181818;stroke-width:1.0;"/></g><!--reverse link BasicGeocoder to IRequestOptions--><g id="link_BasicGeocoder_IRequestOptions"><path codeLine="201" d="M1000.5,1013.17 C1000.5,1064.48 1000.5,1114 1000.5,1114 C1000.5,1114 986.67,1114 969.22,1114 " fill="none" id="BasicGeocoder-backto-IRequestOptions" style="stroke:#181818;stroke-width:1.0;"/><polygon fill="none" points="1000.5,1001.17,996.5,1007.17,1000.5,1013.17,1004.5,1007.17,1000.5,1001.17" style="stroke:#181818;stroke-width:1.0;"/></g><!--link VisicomMapPointProvider to BasicGeocoder--><g id="link_VisicomMapPointProvider_BasicGeocoder"><path codeLine="202" d="M1084,723.73 C1084,762.06 1084,801.59 1084,846.63 " fill="none" id="VisicomMapPointProvider-to-BasicGeocoder" style="stroke:#181818;stroke-width:1.0;"/><polygon fill="none" points="1084,864.63,1090,846.63,1078,846.63,1084,864.63" style="stroke:#181818;stroke-width:1.0;"/></g><!--SRC=[dLVRRjim37tFL_XnMsRt1uO1MLOCmTgkI7R3tbIRJOJQaYV9mOBM_pxAZY-wsTa2j6X9IhmT7Z7oYRAI2594EMMWJYL4NAW3NvGaVI9xY6Gfk3eT2r8kdXSHVZh5xa04P8seLOoLgmUf14aLvKpsoi5CVmuqW-YHGfv9GqwP0l58KeWs7uaYzu8VqL8ODkPD-lC9rFNlYfO5CBN67m4hUMBfgzS-orMUVwGO84sLz9dLeO1kINdFyV_BWshCfttKJlNk1IseeaUOh5q1s2UhU9XKbQgeosuclkKcSsLtf01NQXLNJjJh78DrOYwKhrJb7hyRziX5GJIGNEKDJmEQfkppCNRzd0lk1jseAWDV26plgdpDxNeIlOc3jR7a4O-741V3THrEBFCTY2DD8J2IQuusFCz1X52LvaJAFauv79WfJvo5vhJH5bD3qnGHv-JLw-Wb8YMzwjrxpTf4NUEhv_egRNJurqJV3Kg9ufZFfklC_EmftpotHwSB_vrAclBY7pacFYXLhdCA5egxYbr0GFuqtxqaoMnCjG-Mk_R9sB1lP9SAKfxjXzZRV7_0mrZjfXTARVai5GvaMgy540LMNZYI9DDjzYMzjDZVexQPRjvaP34KTSWkIfANzu77hAt4ptkY3XygccV1MdGfzyZJDDsSyvjP8Jga7ZBKV7kHePTxGyOwz-bq9b8Pzyiq6whTF8ZZCZglew5y5zleCn6CobLPdb7hZFEPPqFJFDeNh39SlZRymthIGcXLqe2pY1Pb3bek_pUWEOwvC5eFCUAlQL9SFV1gwdcktRseEOBzBnx6Z3jSUKiecqiO2M_EZRx6GTbWrwZZ71vL_7wwxlMYNaXGaGIzY2ik8iOPz0lucOAJXj9Acdm2dd9zrbp7RJDd0n-o706qlynVYnseBsLpXTLK_HHpBZBAa82dbJOcQbySM_XTWUoS1QB1j3x3oH3T4BQlC7r3k4QtUowejQLU_qbpNDG2sg_mnyJP3yp04Tu14OvWIp9QcRTz4VPKRNIo4fg6hF3TCYF6BGBn8Xt5ByuBCs7zpS0wMo6aJcjkxQ0ZENwVm8JLoUg1oNazHpylhAyPvY2TL-Sjo19R1ROSeOsSgiRbFMiGQmtwESrirGWklQfpW4jmx3rh67ZSZiuq9hOJQvTcLI7z-PiZ3cZeWvY9rOqwln9lpQOW4ICEJgOK-oCnaoH9F5FI-Ejm7dBtxKaWVYXXviNNR9zJUJ25sqfAj0ovCg5hkjb23aV2xAmq_skf5ryjwNuWI4yTsnXFaa51WxjO-2d1znOjlJor39BKCinGuvXDKZA2zl3L43hs4SdSORMews_hmr9gX0uODCiLunFIZwUfqiTyqGGMTxmATr7Z2dnz_W80]--></g></svg>